SplineFontDB: 3.2
FontName: AutumnCollectionRegular
FullName: AutumnCollection
FamilyName: AutumnCollection
Weight: Regular
Version: Version 1.002;Fontself Maker 3.0.1
ItalicAngle: 0
UnderlinePosition: 0
UnderlineWidth: 0
Ascent: 800
Descent: 200
InvalidEm: 0
sfntRevision: 0x00010000
LayerCount: 2
Layer: 0 0 "Arri+AOgA-re" 1
Layer: 1 0 "Avant" 0
XUID: [1021 836 -530006625 24840]
StyleMap: 0x0040
FSType: 0
OS2Version: 4
OS2_WeightWidthSlopeOnly: 0
OS2_UseTypoMetrics: 0
CreationTime: 1537495831
ModificationTime: 1614002374
PfmFamily: 81
TTFWeight: 400
TTFWidth: 5
LineGap: 0
VLineGap: 0
Panose: 0 0 0 0 0 0 0 0 0 0
OS2TypoAscent: 788
OS2TypoAOffset: 0
OS2TypoDescent: -200
OS2TypoDOffset: 0
OS2TypoLinegap: 0
OS2WinAscent: 861
OS2WinAOffset: 0
OS2WinDescent: 77
OS2WinDOffset: 0
HheadAscent: 788
HheadAOffset: 0
HheadDescent: -200
HheadDOffset: 0
OS2SubXSize: 650
OS2SubYSize: 699
OS2SubXOff: 0
OS2SubYOff: 140
OS2SupXSize: 650
OS2SupYSize: 699
OS2SupXOff: 0
OS2SupYOff: 479
OS2StrikeYSize: 49
OS2StrikeYPos: 258
OS2CapHeight: 671
OS2XHeight: 684
OS2Vendor: 'XXXX'
OS2CodePages: 00000003.00000000
OS2UnicodeRanges: 80000003.00000000.00000000.00000000
Lookup: 258 0 0 "'kern' Cr+AOkA-nage horizontal dans Latin lookup 0" { "sous-table 'kern' Cr+AOkA-nage horizontal dans Latin lookup 0"  } ['kern' ('DFLT' <'dflt' > 'latn' <'dflt' > ) ]
DEI: 91125
LangName: 1033 "" "" "" "1.002;AutumnCollectionRegular" "" "Version 1.002;Fontself Maker 3.0.1" "" "" "" "" "" "" "" "" "" "" "AutumnCollection" "Regular"
Encoding: UnicodeBmp
UnicodeInterp: none
NameList: AGL For New Fonts
DisplaySize: -48
AntiAlias: 1
FitToEm: 0
WinInfo: 0 39 14
BeginChars: 65537 96

StartChar: .notdef
Encoding: 65536 -1 0
Width: 527
Flags: W
LayerCount: 2
Fore
SplineSet
50 700 m 1
 477 700 l 1
 477 0 l 1
 50 0 l 1
 50 700 l 1
78 680 m 1
 263 371 l 1
 449 680 l 1
 78 680 l 1
251 350 m 1
 71 650 l 1
 71 49 l 1
 251 350 l 1
264 329 m 1
 79 21 l 1
 449 21 l 1
 264 329 l 1
276 350 m 1
 457 47 l 1
 457 652 l 1
 276 350 l 1
EndSplineSet
Validated: 1
EndChar

StartChar: exclam
Encoding: 33 33 5
Width: 108
Flags: W
LayerCount: 2
Fore
SplineSet
24.7822265625 313.737304688 m 0
 21.6806640625 373.2421875 18.6083984375 432.737304688 17.4794921875 492.333007812 c 0
 16.8818359375 523.893554688 13.2255859375 555.39453125 12.5791015625 586.956054688 c 0
 11.787109375 625.588867188 11.63671875 664.302734375 13.2431640625 702.896484375 c 0
 14.35546875 729.611328125 18.76171875 756.224609375 26.068359375 782.120117188 c 0
 28.396484375 790.37109375 31.291015625 798.854492188 39.9140625 802.891601562 c 0
 55.1025390625 810.004882812 80.03515625 794.071289062 80.3466796875 777.163085938 c 0
 80.5263671875 767.52734375 80.37890625 757.8828125 80.37890625 743.747070312 c 0
 81.55859375 730.422851562 77.8701171875 712.947265625 76.79296875 695.32421875 c 0
 74.63671875 660.036132812 74.5673828125 624.62109375 73.6376953125 589.258789062 c 0
 72.640625 551.2265625 73.6728515625 513.177734375 72.09375 475.124023438 c 0
 71.5 460.821289062 72.97265625 446.28125 72.705078125 431.783203125 c 0
 72.0634765625 397.021484375 72.23828125 362.245117188 71.90625 327.4765625 c 0
 71.5537109375 290.416015625 71.0048828125 253.357421875 70.525390625 216.296875 c 0
 70.44921875 210.388671875 70.564453125 204.427734375 68.267578125 198.821289062 c 0
 65.419921875 191.870117188 60.423828125 189.090820312 52.87890625 190.6953125 c 0
 39.1240234375 193.620117188 32.8896484375 200.359375 31.0478515625 214.266601562 c 0
 26.673828125 247.284179688 26.5126953125 280.555664062 24.7822265625 313.737304688 c 0
47.4248046875 70.7763671875 m 0
 63.2900390625 81.6123046875 94.6845703125 70.3466796875 95.251953125 41.7470703125 c 0
 95.4453125 24.896484375 79.236328125 6.40234375 67.3408203125 1.3251953125 c 0
 66.359375 0.9072265625 65.3603515625 0.458984375 64.322265625 0.2470703125 c 0
 52.6279296875 -2.13671875 22.9521484375 13.5732421875 18.16796875 24.6484375 c 0
 11.7607421875 39.4814453125 20.595703125 60.4609375 35.7099609375 65.73046875 c 0
 39.765625 67.1435546875 43.7900390625 68.294921875 47.4248046875 70.7763671875 c 0
EndSplineSet
Validated: 524321
EndChar

StartChar: quotesingle
Encoding: 39 39 6
AltUni2: 002019.ffffffff.0 002018.ffffffff.0
Width: 130
Flags: W
LayerCount: 2
Fore
SplineSet
106.428710938 799.198242188 m 0
 113.819335938 794.005859375 118.143554688 786.796875 117.970703125 775.418945312 c 0
 116.6875 769.461914062 115.877929688 761.283203125 113.138671875 753.81640625 c 0
 104.474609375 730.1953125 95.427734375 706.698242188 85.845703125 683.434570312 c 0
 80.72265625 670.999023438 75.056640625 669.09765625 61.7333984375 672.493164062 c 0
 57.609375 673.544921875 53.3310546875 674.240234375 49.0849609375 674.517578125 c 0
 35.8857421875 675.380859375 26.14453125 682.983398438 16.7275390625 691.014648438 c 0
 11.0869140625 695.826171875 11.2666015625 702.46875 13.2880859375 708.884765625 c 0
 16.9873046875 720.627929688 20.2529296875 732.608398438 25.1923828125 743.833984375 c 0
 31.03125 757.102539062 36.0673828125 770.625 40.9482421875 784.23046875 c 0
 49.4501953125 807.93359375 69.2919921875 816.731445312 92.2353515625 806.692382812 c 0
 97.130859375 804.55078125 102.083007812 802.251953125 106.428710938 799.198242188 c 0
EndSplineSet
Validated: 524321
EndChar

StartChar: asterisk
Encoding: 42 42 7
Width: 357
Flags: W
LayerCount: 2
Fore
SplineSet
161.5546875 568.1796875 m 0
 162.079101562 568.182617188 162.60546875 568.188476562 163.129882812 568.188476562 c 1
 163.129882812 578.9140625 162.7421875 589.657226562 163.219726562 600.361328125 c 0
 163.971679688 617.22265625 170.133789062 622.334960938 187.028320312 619.68359375 c 0
 207.518554688 616.46875 222.395507812 604.689453125 232.416992188 586.950195312 c 0
 241.662109375 570.586914062 250.114257812 553.776367188 259.1015625 537.265625 c 0
 264.8671875 526.672851562 266.072265625 526.447265625 276.0546875 533.064453125 c 0
 285.461914062 539.298828125 294.96875 545.408203125 304.084960938 552.05078125 c 0
 314.493164062 559.634765625 325.18359375 558.928710938 336.137695312 554.095703125 c 0
 345.9765625 549.75390625 347.181640625 543.723632812 340.171875 535.170898438 c 0
 336.721679688 530.963867188 332.428710938 527.771484375 327.646484375 525.170898438 c 0
 314.91796875 518.249023438 302.9140625 510.118164062 289.481445312 504.3203125 c 0
 278.767578125 499.697265625 278.322265625 495.510742188 284.271484375 485.776367188 c 0
 293.5234375 470.63671875 300.959960938 454.555664062 307.328125 438.056640625 c 0
 313.268554688 422.66796875 305.202148438 410.169921875 289.030273438 410.61328125 c 0
 270.739257812 411.114257812 252.97265625 413.196289062 239.426757812 428.9921875 c 0
 228.962890625 441.194335938 223.965820312 440.3359375 213.759765625 427.704101562 c 0
 197.48828125 407.564453125 182.5859375 386.564453125 177.974609375 360.189453125 c 0
 173.5625 334.954101562 161.401367188 312.6484375 151.336914062 289.547851562 c 0
 148.7109375 283.51953125 144.598632812 278.543945312 140.204101562 273.833984375 c 0
 136.2734375 269.622070312 131.279296875 270.995117188 126.603515625 272.326171875 c 0
 121.611328125 273.748046875 120.263671875 277.817382812 120.368164062 282.415039062 c 0
 120.44140625 285.62109375 120.889648438 288.840820312 121.436523438 292.009765625 c 0
 125.4609375 315.319335938 130.348632812 338.4609375 137.142578125 361.11328125 c 0
 145.206054688 388.000976562 149.671875 415.516601562 152.651367188 443.313476562 c 0
 153.780273438 453.842773438 151.7421875 456.033203125 140.973632812 454.309570312 c 0
 124.975585938 451.74609375 109.006835938 450.606445312 92.8193359375 450.83984375 c 0
 70.3037109375 451.163085938 49.43359375 457.745117188 29.0126953125 466.3515625 c 0
 18.712890625 470.6875 12.1904296875 478.381835938 12.00390625 489.693359375 c 0
 11.8232421875 500.713867188 19.3466796875 507.2109375 28.384765625 511.6953125 c 0
 42.20703125 518.551757812 57.25 520.630859375 72.333984375 519.5234375 c 0
 94.82421875 517.873046875 117.359375 515.721679688 138.84375 507.936523438 c 0
 140.861328125 507.205078125 142.9453125 506.612304688 145.0390625 506.145507812 c 0
 155.739257812 503.76171875 158.416992188 505.4375 159.728515625 516.697265625 c 0
 160.783203125 525.752929688 161.17578125 534.901367188 161.49609375 544.022460938 c 0
 161.778320312 552.065429688 161.5546875 560.126953125 161.5546875 568.1796875 c 0
65.8994140625 478.287109375 m 0
 89.9013671875 476.844726562 113.666015625 477.635742188 138.776367188 486.001953125 c 1
 124.779296875 492.76171875 111.827148438 495.372070312 98.611328125 496.4296875 c 0
 85.7451171875 497.4609375 72.96875 496.333007812 60.7783203125 491.555664062 c 0
 58.29296875 490.58203125 55.6298828125 489.248046875 55.51953125 486.151367188 c 0
 55.3857421875 482.412109375 58.1162109375 480.528320312 61.220703125 479.31640625 c 0
 62.693359375 478.7421875 64.3203125 478.381835938 65.8994140625 478.287109375 c 0
EndSplineSet
Validated: 524321
EndChar

StartChar: comma
Encoding: 44 44 8
Width: 128
Flags: W
LayerCount: 2
Fore
SplineSet
105.640625 60.4580078125 m 0
 112.841796875 57.0908203125 115.747070312 51.2099609375 115.159179688 40.54296875 c 0
 113.2734375 34.0458984375 111.3828125 24.462890625 107.752929688 15.5888671875 c 0
 96.7509765625 -11.3095703125 82.0859375 -36.3271484375 66.8232421875 -60.9921875 c 0
 62.8447265625 -67.421875 57.4072265625 -71.44921875 49.6572265625 -70.9599609375 c 0
 36.818359375 -70.150390625 25.9775390625 -64.205078125 16.40234375 -56.1962890625 c 0
 10.7822265625 -51.4931640625 11.6435546875 -44.51171875 13.0400390625 -38.09765625 c 0
 16.248046875 -23.373046875 20.54296875 -8.8564453125 26.6015625 4.8623046875 c 0
 31.6103515625 16.2060546875 36.369140625 27.6044921875 39.5859375 39.4921875 c 0
 42.21484375 49.2041015625 48.298828125 56.732421875 53.5654296875 64.6767578125 c 0
 59.0517578125 72.955078125 68.3994140625 72.853515625 77.005859375 71.111328125 c 0
 87.0224609375 69.0849609375 96.3857421875 64.7919921875 105.640625 60.4580078125 c 0
EndSplineSet
Validated: 524289
EndChar

StartChar: period
Encoding: 46 46 9
Width: 100
Flags: W
LayerCount: 2
Fore
SplineSet
78.349609375 49.9248046875 m 0
 85.00390625 45.76171875 88.171875 39.1376953125 87.9013671875 32.400390625 c 0
 88.375 18.9013671875 60.6455078125 -6.6572265625 44.302734375 1.6142578125 c 0
 34.09765625 6.779296875 24.51953125 12.2978515625 16.4365234375 20.296875 c 0
 11.259765625 25.419921875 10.90234375 30.9501953125 13.873046875 37.8583984375 c 0
 22.6220703125 58.189453125 40.640625 66.5283203125 61.1162109375 58.572265625 c 0
 67.0869140625 56.2509765625 72.921875 53.322265625 78.349609375 49.9248046875 c 0
EndSplineSet
Validated: 524321
EndChar

StartChar: zero
Encoding: 48 48 10
Width: 215
Flags: W
LayerCount: 2
Fore
SplineSet
31.1201171875 51.5634765625 m 0
 19.869140625 83.0673828125 9.5322265625 114.711914062 12.521484375 139.129882812 c 0
 13.0009765625 199.235351562 19.9267578125 248.521484375 35.9072265625 296.267578125 c 0
 46.1240234375 326.790039062 58.630859375 356.375 74.8720703125 384.344726562 c 0
 79.642578125 392.560546875 85.5068359375 398.954101562 93.2197265625 404.095703125 c 0
 106.727539062 413.096679688 119.672851562 408.33984375 122.97265625 392.615234375 c 0
 124.045898438 387.498046875 126.1328125 383.895507812 130.252929688 380.775390625 c 0
 146.555664062 368.434570312 156.77734375 351.6484375 165.146484375 333.307617188 c 0
 187.500976562 284.317382812 196.940429688 232.366210938 201.397460938 179.203125 c 0
 204.473632812 142.508789062 200.266601562 106.447265625 192.548828125 70.607421875 c 0
 188.092773438 49.9169921875 176.58984375 33.2373046875 163.399414062 17.56640625 c 0
 155.22265625 7.8544921875 144.672851562 1.86328125 131.536132812 0.6259765625 c 0
 94.216796875 -2.8896484375 62.8359375 8.26953125 38.4599609375 37.3515625 c 0
 34.958984375 41.5283203125 32.9462890625 46.4443359375 31.1201171875 51.5634765625 c 0
139.196289062 309.108398438 m 0
 135.013671875 323.809570312 129.850585938 338.27734375 119.329101562 352.515625 c 1
 112.268554688 329.076171875 109.150390625 307.046875 107.115234375 284.885742188 c 0
 101.276367188 221.299804688 98.486328125 157.612304688 101.249023438 93.7431640625 c 0
 101.791992188 81.1904296875 104.879882812 69.33203125 108.997070312 57.69140625 c 0
 111.859375 49.59765625 115.59765625 48.68359375 122 54.23828125 c 0
 127.708007812 59.1904296875 132.197265625 65.3779296875 135.735351562 71.9970703125 c 0
 154.739257812 107.534179688 159.983398438 146.321289062 160.103515625 185.719726562 c 0
 160.232421875 227.875976562 150.677734375 268.765625 139.196289062 309.108398438 c 0
EndSplineSet
Validated: 524321
EndChar

StartChar: one
Encoding: 49 49 11
Width: 112
Flags: W
LayerCount: 2
Fore
SplineSet
92.6044921875 118.344726562 m 0
 95.2236328125 87.310546875 95.9833984375 56.130859375 99.8330078125 29.4208984375 c 0
 100.458007812 2.4091796875 90.552734375 -5.419921875 68.8623046875 0.6455078125 c 0
 46.572265625 6.87890625 38.3955078125 17.6083984375 39.6669921875 41.90234375 c 0
 40.0986328125 50.1513671875 38.7421875 57.853515625 37.8212890625 65.8095703125 c 0
 34.853515625 91.4228515625 32.7666015625 117.151367188 29.203125 142.676757812 c 0
 25.720703125 167.627929688 23.7294921875 192.793945312 21.12109375 217.76171875 c 0
 14.99609375 276.376953125 7.3798828125 335.270507812 15.5869140625 394.463867188 c 0
 16.103515625 398.189453125 16.2490234375 401.997070312 17.1103515625 405.638671875 c 0
 18.7392578125 412.52734375 20.8486328125 420.305664062 28.796875 421.353515625 c 0
 36.966796875 422.430664062 45.056640625 419.3359375 49.8203125 411.950195312 c 0
 52.970703125 407.06640625 55.62890625 401.448242188 56.849609375 395.80078125 c 0
 66.4853515625 351.216796875 74.4990234375 306.4453125 78.224609375 260.8203125 c 0
 80.8388671875 228.807617188 81.8076171875 196.553710938 88.80078125 164.858398438 c 0
 92.1220703125 149.80859375 91.2958984375 133.861328125 92.6044921875 118.344726562 c 0
EndSplineSet
Validated: 524321
EndChar

StartChar: two
Encoding: 50 50 12
Width: 279
Flags: W
LayerCount: 2
Fore
SplineSet
98.7529296875 326.82421875 m 0
 100.013671875 331.75390625 103.439453125 336.755859375 100.033203125 342.890625 c 1
 95.154296875 342.084960938 93.181640625 339.42578125 91.658203125 336.639648438 c 0
 75.958984375 307.913085938 55.794921875 281.844726562 41.88671875 252.012695312 c 0
 35.8046875 238.967773438 31.990234375 237.640625 22.66796875 239.408203125 c 0
 14.9296875 240.875976562 11.2490234375 245.123046875 12.1240234375 252.803710938 c 0
 13.462890625 264.541992188 14.9521484375 276.270507812 18.4833984375 287.629882812 c 0
 31.4814453125 329.450195312 54.35546875 365.495117188 83.3427734375 397.861328125 c 0
 87.9658203125 403.022460938 91.0380859375 409.837890625 97.4638671875 413.14453125 c 0
 107.364257812 418.236328125 117.817382812 420.47265625 128.487304688 415.661132812 c 0
 134.344726562 413.021484375 139.604492188 409.028320312 145.505859375 406.517578125 c 0
 177.247070312 393.009765625 179.256835938 366.588867188 177.765625 337.134765625 c 0
 176.26953125 307.560546875 170.137695312 278.754882812 166.509765625 249.5546875 c 0
 163.919921875 228.698242188 155.645507812 209.247070312 150.873046875 188.873046875 c 0
 141.696289062 149.698242188 130.428710938 111.012695312 120.139648438 72.095703125 c 0
 119.188476562 68.4970703125 118.77734375 64.701171875 118.564453125 60.9716796875 c 0
 118.276367188 55.9404296875 120.473632812 52.7861328125 125.96875 52.5849609375 c 0
 132.384765625 52.349609375 138.692382812 51.3623046875 145.225585938 52.4658203125 c 0
 172.721679688 57.1142578125 200.735351562 58.2099609375 227.990234375 64.70703125 c 0
 237.666992188 67.0146484375 247.311523438 63.740234375 256.659179688 61.8134765625 c 0
 267.670898438 59.5419921875 269.624023438 50.90625 261.493164062 42.8681640625 c 0
 250.094726562 31.6025390625 235.831054688 24.9970703125 220.545898438 21.546875 c 0
 184.95703125 13.515625 149.362304688 5.9482421875 112.340820312 7.203125 c 0
 88.7392578125 8.00390625 70.5615234375 19.54296875 52.326171875 31.9140625 c 0
 47.078125 35.474609375 45.771484375 41.189453125 46.0712890625 47.607421875 c 0
 47.654296875 81.3974609375 50.271484375 115.171875 55.0693359375 148.575195312 c 0
 58.873046875 175.053710938 66.19140625 201.073242188 72.69921875 227.108398438 c 0
 81.0302734375 260.435546875 90.21875 293.547851562 98.7529296875 326.82421875 c 0
EndSplineSet
Validated: 524321
EndChar

StartChar: three
Encoding: 51 51 13
Width: 230
Flags: W
LayerCount: 2
Fore
SplineSet
126.229492188 401.8125 m 0
 126.453125 402.622070312 125.55859375 403.7265625 124.412109375 406.66015625 c 1
 103.864257812 396.924804688 87.759765625 382.768554688 71.5654296875 368.876953125 c 0
 61.7939453125 360.494140625 52.9130859375 351.08203125 43.439453125 342.341796875 c 0
 40.3046875 339.448242188 36.8203125 336.715820312 33.0537109375 334.762695312 c 0
 21.1220703125 328.573242188 10.8974609375 335.158203125 12.099609375 348.659179688 c 0
 13.5263671875 364.689453125 21.521484375 378.264648438 30.6396484375 391.013671875 c 0
 45.091796875 411.217773438 62.5234375 428.640625 81.8134765625 444.26953125 c 0
 96.7919921875 456.404296875 114.7890625 461.963867188 132.541015625 468.086914062 c 0
 136.231445312 469.360351562 140.087890625 469.150390625 143.466796875 467.083007812 c 0
 154.637695312 460.25390625 167.430664062 457.666992188 179.522460938 453.30078125 c 0
 188.756835938 449.965820312 195.756835938 444.264648438 199.133789062 435.40625 c 0
 205.642578125 418.333984375 209.8203125 400.983398438 209.615234375 382.1484375 c 0
 209.049804688 330.256835938 195.958984375 281.510742188 176.829101562 233.807617188 c 0
 169.434570312 215.3671875 162.109375 196.901367188 154.606445312 178.5 c 0
 149.466796875 165.891601562 150.858398438 164.08203125 163.221679688 159.803710938 c 0
 172.359375 156.643554688 181.436523438 153.291992188 190.483398438 149.875976562 c 0
 209.920898438 142.534179688 223.587890625 122.864257812 214.376953125 96.4013671875 c 0
 205.069335938 69.66796875 191.956054688 45.2705078125 175.990234375 22.2021484375 c 0
 164.331054688 5.3583984375 155.505859375 2.3125 136.075195312 8.1904296875 c 0
 128.885742188 10.3662109375 121.684570312 12.7900390625 114.91796875 16.0048828125 c 0
 104.28515625 21.056640625 102.147460938 34.29296875 111.640625 40.82421875 c 0
 136.055664062 57.623046875 143.374023438 84.5615234375 154.251953125 109.471679688 c 0
 155.299804688 111.872070312 155.890625 114.68359375 155.849609375 117.291992188 c 0
 155.80078125 120.440429688 153.7578125 122.088867188 150.438476562 121.09375 c 0
 149.448242188 120.795898438 148.383789062 120.202148438 147.721679688 119.428710938 c 0
 132.556640625 101.673828125 114.194335938 106.483398438 95.662109375 111.872070312 c 0
 88.166015625 114.05078125 84.2265625 118.780273438 82.3681640625 126.3984375 c 0
 79.7255859375 137.227539062 81.373046875 147.811523438 82.783203125 158.435546875 c 0
 85.892578125 181.865234375 87.3447265625 205.435546875 88.5126953125 229.001953125 c 0
 90.119140625 261.418945312 96.853515625 292.87890625 105.109375 324.080078125 c 0
 111.975585938 350.037109375 119.241210938 375.887695312 126.229492188 401.8125 c 0
EndSplineSet
Validated: 524321
EndChar

StartChar: four
Encoding: 52 52 14
Width: 237
Flags: W
LayerCount: 2
Fore
SplineSet
218.3515625 115.986328125 m 0
 220.140625 111.838867188 222.317382812 107.84375 224.791015625 104.010742188 c 1
 214.813476562 102.1484375 204.557617188 101.71484375 194.772460938 98.9658203125 c 0
 180.276367188 94.892578125 179.614257812 94.068359375 178.278320312 79.384765625 c 0
 176.331054688 57.9853515625 174.424804688 36.5810546875 172.337890625 15.1953125 c 0
 170.978515625 1.2734375 166.930664062 -1.7109375 153.5859375 0.818359375 c 0
 135.196289062 4.3037109375 127.563476562 14.806640625 130.153320312 34.49609375 c 0
 131.759765625 46.7099609375 135.958007812 58.5546875 135.41796875 71.107421875 c 0
 135.28125 74.3173828125 135.72265625 77.5537109375 135.547851562 80.7587890625 c 0
 135.266601562 85.9072265625 132.60546875 88.9765625 127.20703125 87.9375 c 0
 117.293945312 86.029296875 106.701171875 88.2177734375 97.404296875 82.3232421875 c 0
 91.611328125 78.6494140625 85.1123046875 79.96484375 78.59765625 81.0400390625 c 0
 60.7275390625 83.9853515625 45.6064453125 93.7451171875 29.275390625 100.44921875 c 0
 20.86328125 103.90234375 18.7890625 112.40234375 17.439453125 120.416015625 c 0
 13.8662109375 141.658203125 10.84765625 163.196289062 13.8408203125 184.568359375 c 0
 15.7431640625 198.150390625 11.083984375 210.716796875 12.1689453125 224.287109375 c 0
 15.9404296875 271.479492188 21.703125 318.3515625 29.6533203125 364.9765625 c 0
 32.0009765625 378.73828125 35.388671875 392.3203125 38.25 405.993164062 c 0
 39.607421875 412.48046875 42.212890625 418.315429688 47.259765625 422.735351562 c 0
 49.2236328125 424.455078125 51.4970703125 426.3203125 53.927734375 426.931640625 c 0
 68.5947265625 430.620117188 91.2607421875 415.0625 93.9638671875 400.036132812 c 0
 97.384765625 381.014648438 101.57421875 362.124023438 104.5859375 343.043945312 c 0
 106.3359375 331.958984375 106.427734375 320.611328125 107.3671875 308.017578125 c 0
 106.651367188 279.2890625 111.408203125 249.430664062 110.473632812 219.311523438 c 0
 109.69140625 194.057617188 107.166015625 168.956054688 104.94140625 143.823242188 c 0
 103.140625 123.458007812 103.907226562 122.604492188 124.123046875 125.06640625 c 0
 138.358398438 126.797851562 139.927734375 127.930664062 141.192382812 143.172851562 c 0
 143.323242188 168.890625 144.458984375 194.698242188 148.239257812 220.258789062 c 0
 151.540039062 242.577148438 154.935546875 264.883789062 158.552734375 287.153320312 c 0
 159.752929688 294.541015625 160.870117188 302.702148438 169.637695312 305.17578125 c 0
 174.911132812 306.6640625 181.724609375 298.688476562 183.711914062 287.8359375 c 0
 189.14453125 258.180664062 192.20703125 228.336914062 189.241210938 198.107421875 c 0
 187.40625 179.403320312 185.776367188 160.665039062 184.670898438 141.90625 c 0
 184.08203125 131.90625 185.669921875 130.9375 195.432617188 131.030273438 c 0
 199.930664062 131.072265625 204.399414062 131.331054688 208.8515625 131.750976562 c 0
 210.776367188 129.096679688 212.620117188 126.387695312 214.416015625 123.6484375 c 0
 215.61328125 121.049804688 216.924804688 118.493164062 218.3515625 115.986328125 c 0
EndSplineSet
Validated: 524321
EndChar

StartChar: five
Encoding: 53 53 15
Width: 198
Flags: W
LayerCount: 2
Fore
SplineSet
173.294921875 137.712890625 m 0
 184.005859375 131.643554688 187.690429688 120.321289062 184.833007812 108.338867188 c 0
 182.950195312 100.44140625 180.342773438 92.5947265625 174.482421875 86.7490234375 c 0
 152.049804688 64.373046875 131.904296875 39.7314453125 107.833007812 19.00390625 c 0
 100.946289062 13.07421875 93.28125 7.994140625 85.6904296875 2.951171875 c 0
 77.220703125 -2.673828125 58.662109375 0.158203125 51.267578125 7.9560546875 c 0
 46.74609375 12.724609375 49.3095703125 16.9228515625 53.0205078125 20.5205078125 c 0
 60.7041015625 27.96875 68.927734375 34.7568359375 76.064453125 42.89453125 c 0
 87.3759765625 55.7939453125 99.95703125 67.5693359375 111.750976562 80.0556640625 c 0
 119.8984375 88.6826171875 126.916992188 98.2255859375 132.03125 109.0078125 c 0
 133.842773438 112.825195312 136.708984375 117.419921875 133.568359375 121.059570312 c 0
 129.705078125 125.5390625 124.499023438 122.58984375 120.219726562 120.653320312 c 0
 107.475585938 114.888671875 94.423828125 109.315429688 84.5966796875 99.00390625 c 0
 78.0654296875 92.1513671875 71.1923828125 91.04296875 62.7333984375 94 c 0
 51.10546875 98.064453125 38.3466796875 98.484375 27.4482421875 105.024414062 c 0
 26.908203125 105.349609375 26.3330078125 105.626953125 25.744140625 105.877929688 c 0
 21.3828125 115.326171875 16.86328125 124.694335938 12 133.884765625 c 1
 15.900390625 135.43359375 17.630859375 138.250976562 17.1669921875 143.610351562 c 0
 15.5126953125 162.736328125 14.32421875 181.901367188 12.6552734375 201.025390625 c 0
 11.146484375 218.299804688 13.2001953125 235.403320312 14.7783203125 252.509765625 c 0
 17.9794921875 287.237304688 19.8046875 322.169921875 28.9619140625 356.086914062 c 0
 29.1025390625 356.606445312 29.4228515625 357.153320312 29.3515625 357.642578125 c 0
 25.97265625 381.065429688 42.6103515625 388.83203125 59.8046875 394.37109375 c 0
 78.111328125 400.26953125 96.1875 407.237304688 115.943359375 408.486328125 c 0
 127.0078125 409.185546875 137.841796875 413.578125 148.767578125 416.350585938 c 0
 158.657226562 418.859375 168.11328125 417.181640625 176.948242188 412.68359375 c 0
 186.25390625 407.948242188 186.568359375 400.791015625 176.973632812 396.274414062 c 0
 155.137695312 385.995117188 133.455078125 375.208007812 110.181640625 368.321289062 c 0
 107.610351562 367.561523438 104.896484375 367.293945312 102.31640625 366.557617188 c 0
 88.08984375 362.495117188 85.8837890625 359.215820312 87.412109375 344.670898438 c 0
 90.3828125 316.419921875 93.77734375 288.225585938 90.4189453125 259.692382812 c 0
 89.48828125 251.78515625 92.9404296875 243.93359375 92.9404296875 235.75 c 0
 92.9404296875 214.19140625 90.2099609375 192.86328125 88.5439453125 171.446289062 c 0
 88.294921875 168.23828125 87.54296875 165.046875 87.5205078125 161.845703125 c 0
 87.478515625 155.805664062 90.515625 152.63671875 96.6845703125 154.05859375 c 0
 103.567382812 155.64453125 110.518554688 155.536132812 117.4765625 156.041992188 c 0
 138.700195312 157.583984375 156.051757812 147.486328125 173.294921875 137.712890625 c 0
EndSplineSet
Validated: 524321
EndChar

StartChar: six
Encoding: 54 54 16
Width: 192
Flags: W
LayerCount: 2
Fore
SplineSet
15.494140625 168.327148438 m 0
 14.3349609375 181.625 10.240234375 194.66796875 12.8642578125 204.014648438 c 0
 12.970703125 243.904296875 17.34375 279.100585938 28.763671875 312.883789062 c 0
 39.560546875 344.8203125 50.3037109375 377.018554688 70.3740234375 404.87109375 c 0
 72.5712890625 407.919921875 74.4638671875 411.192382812 76.7001953125 414.2109375 c 0
 91.634765625 434.36328125 108.46484375 439.098632812 131.75390625 429.784179688 c 0
 140.920898438 426.1171875 143.993164062 420.09375 142.176757812 407.243164062 c 0
 139.021484375 384.912109375 136.380859375 362.453125 131.88671875 340.381835938 c 0
 122.989257812 296.678710938 117.416015625 252.426757812 109.26171875 208.591796875 c 0
 104.595703125 183.515625 99.00390625 158.083984375 100.852539062 131.954101562 c 0
 102.036132812 115.219726562 102.576171875 113.77734375 118.66015625 117.740234375 c 0
 132.59375 121.173828125 146.215820312 121.764648438 159.91796875 117.153320312 c 0
 180.291992188 110.296875 185.868164062 89.4765625 170.705078125 73.8984375 c 0
 158.643554688 61.5068359375 143.19921875 54.33203125 125.788085938 55.794921875 c 0
 92.759765625 58.5693359375 66.15625 74.291015625 43.3427734375 98.1552734375 c 0
 24.265625 118.109375 17.796875 141.9296875 15.494140625 168.327148438 c 0
117.2578125 78.5390625 m 0
 121.0546875 76.34375 125.372070312 76.2626953125 130.662109375 75.8173828125 c 0
 140.33203125 75.8037109375 149.427734375 79.1201171875 155.60546875 88.427734375 c 0
 157.758789062 91.669921875 158.956054688 95.21484375 156.87890625 98.8935546875 c 0
 154.51953125 103.073242188 150.65625 102.111328125 146.99609375 101.236328125 c 0
 137.708984375 99.0185546875 128.423828125 96.7890625 119.1640625 94.4541015625 c 0
 115.653320312 93.568359375 111.184570312 93.2919921875 110.720703125 88.6162109375 c 0
 110.25390625 83.908203125 113.413085938 80.7666015625 117.2578125 78.5390625 c 0
EndSplineSet
Validated: 524321
EndChar

StartChar: seven
Encoding: 55 55 17
Width: 201
Flags: W
LayerCount: 2
Fore
SplineSet
42.09375 18.03515625 m 0
 41.8857421875 22.86328125 42.064453125 27.7099609375 42.064453125 32.546875 c 0
 43.09375 57.15234375 44.2216796875 81.6943359375 50.4375 105.844726562 c 0
 56.5771484375 129.697265625 60.9638671875 153.967773438 65.0009765625 178.33203125 c 0
 67.775390625 195.076171875 71.0625 211.942382812 74.7119140625 228.614257812 c 0
 78.783203125 247.205078125 82.6806640625 266.309570312 83.9609375 285.569335938 c 0
 84.3583984375 291.55859375 86.8330078125 296.921875 88.087890625 302.509765625 c 0
 91.580078125 318.060546875 96.6416015625 333.181640625 99.9833984375 348.727539062 c 0
 102.240234375 359.23046875 104.047851562 369.689453125 108.615234375 379.634765625 c 0
 113.2109375 389.642578125 109.4609375 394.03515625 98.5791015625 391.6875 c 0
 81.255859375 387.94921875 64.1220703125 383.522460938 46.1435546875 384.1015625 c 0
 34.9638671875 384.459960938 24.7998046875 387.080078125 17.015625 395.405273438 c 0
 9.7451171875 403.182617188 10.3935546875 407.846679688 18.8701171875 413.798828125 c 0
 23.7607421875 417.232421875 29.25390625 419.36328125 35.07421875 420.76171875 c 0
 55.4365234375 425.654296875 75.8681640625 430.16796875 96.1162109375 435.653320312 c 0
 120.830078125 442.346679688 145.25 437.18359375 168.21875 426.915039062 c 0
 185.807617188 419.051757812 189.9140625 410.030273438 187.662109375 391.359375 c 0
 185.794921875 375.8828125 183.374023438 360.80078125 176.974609375 346.162109375 c 0
 172.779296875 336.56640625 172.545898438 325.255859375 170.408203125 314.739257812 c 0
 162.477539062 275.71484375 148.916015625 238.169921875 140.013671875 199.405273438 c 0
 132.203125 165.395507812 124.62109375 131.333007812 116.94921875 97.291015625 c 0
 113.192382812 80.619140625 109.061523438 64.0185546875 105.856445312 47.2421875 c 0
 103.442382812 34.6083984375 102.1875 21.7490234375 100.5 8.9775390625 c 0
 98.3671875 -7.162109375 91.697265625 -12.6474609375 75.6943359375 -10.986328125 c 0
 71.431640625 -10.544921875 67.1337890625 -9.8505859375 63.0146484375 -8.6875 c 0
 49.169921875 -4.7802734375 42.7197265625 3.5302734375 42.09375 18.03515625 c 0
EndSplineSet
Validated: 524321
EndChar

StartChar: eight
Encoding: 56 56 18
Width: 249
Flags: W
LayerCount: 2
Fore
SplineSet
66.3759765625 353.340820312 m 0
 88.6318359375 372.374023438 113.788085938 382.653320312 138.05078125 379.555664062 c 0
 160.294921875 380.202148438 176.712890625 377.998046875 192.907226562 373.51171875 c 0
 201.173828125 371.221679688 209.682617188 369.823242188 218.05859375 367.916992188 c 0
 235.194335938 364.014648438 239.897460938 357.063476562 234.341796875 340.112304688 c 0
 229.166992188 324.321289062 223.006835938 308.709960938 215.676757812 293.807617188 c 0
 207.884765625 277.965820312 200.040039062 262.140625 190.416015625 247.108398438 c 0
 180.053710938 230.922851562 172.215820312 213.047851562 164.09375 195.533203125 c 0
 160.3359375 187.4296875 162.860351562 178.572265625 165.008789062 170.228515625 c 0
 172.899414062 139.555664062 170.9140625 109.28515625 159.768554688 79.9404296875 c 0
 148.233398438 49.5732421875 128.163085938 26.8544921875 100.241210938 8.8916015625 c 0
 77.923828125 -5.4658203125 56.5751953125 -6.873046875 32.783203125 -0.6318359375 c 0
 16.341796875 3.6796875 9.74609375 13.841796875 12.6748046875 30.5166015625 c 0
 14.650390625 41.767578125 19.7734375 51.8642578125 24.724609375 62.0126953125 c 0
 39.1259765625 91.529296875 57.6953125 118.451171875 76.2001953125 145.444335938 c 0
 82.568359375 154.734375 87.013671875 165.411132812 93.8271484375 174.315429688 c 0
 105.377929688 189.411132812 101.037109375 203.763671875 92.9013671875 217.587890625 c 0
 84.232421875 232.321289062 73.9951171875 246.123046875 64.712890625 260.505859375 c 0
 54.1005859375 276.950195312 46.90625 294.62890625 46.71484375 314.581054688 c 0
 46.5576171875 330.8984375 54.3857421875 343.086914062 66.3759765625 353.340820312 c 0
130.845703125 332.961914062 m 0
 118.19140625 325.142578125 113.463867188 313.27734375 112.766601562 294.924804688 c 0
 113.729492188 280.416992188 126.234375 266.99609375 134.392578125 251.662109375 c 0
 135.8671875 248.889648438 139.022460938 249.473632812 141.168945312 251.828125 c 0
 142.963867188 253.798828125 144.927734375 255.74609375 146.1953125 258.046875 c 0
 159.876953125 282.852539062 173.4453125 307.720703125 187.00390625 332.595703125 c 0
 188.0234375 334.46484375 188.798828125 336.479492188 189.543945312 338.48046875 c 0
 191.922851562 344.874023438 189.41015625 349.540039062 183.162109375 350.608398438 c 0
 173.247070312 352.306640625 163.048828125 354.275390625 153.676757812 347.817382812 c 0
 146.203125 342.666015625 138.568359375 337.734375 130.845703125 332.961914062 c 0
86.642578125 52.28125 m 1
 94.5283203125 62.3017578125 101.607421875 71.154296875 103.758789062 82.890625 c 1
 92.279296875 70.7353515625 87.326171875 61.5888671875 86.642578125 52.28125 c 1
EndSplineSet
Validated: 524321
EndChar

StartChar: nine
Encoding: 57 57 19
Width: 246
Flags: W
LayerCount: 2
Fore
SplineSet
222.000976562 332.587890625 m 0
 228.938476562 311.340820312 234.107421875 290.30078125 233.182617188 278.799804688 c 0
 231.5625 236.088867188 227.05078125 205.112304688 215.65234375 174.973632812 c 0
 205.25 147.467773438 193.9140625 120.575195312 178.3984375 95.5986328125 c 0
 172.16015625 85.556640625 168.127929688 74.5 162.166015625 64.2568359375 c 0
 144.389648438 33.70703125 120.555664062 8.2666015625 95.2216796875 -15.4638671875 c 0
 76.703125 -32.810546875 53.564453125 -41.6318359375 27.267578125 -32.5732421875 c 0
 13.697265625 -27.8994140625 9.91015625 -20.7626953125 13.01953125 -6.4423828125 c 0
 16.0263671875 7.400390625 22.638671875 19.646484375 29.6689453125 31.7978515625 c 0
 46.5947265625 61.0439453125 65.3583984375 89.0947265625 84.6806640625 116.766601562 c 0
 105.643554688 146.790039062 121.969726562 179.35546875 138.685546875 211.782226562 c 0
 145.1171875 224.260742188 150.510742188 237.033203125 155.037109375 250.190429688 c 0
 158.390625 259.939453125 155.057617188 263.3984375 144.807617188 260.905273438 c 0
 134.881835938 258.493164062 125.220703125 255.22265625 114.749023438 256.311523438 c 0
 92.90625 258.580078125 83.4443359375 268.315429688 84.8662109375 290.060546875 c 0
 86.9453125 321.844726562 100.51171875 348.900390625 122.271484375 371.83203125 c 0
 130.026367188 380.004882812 139.848632812 383.229492188 151.411132812 382.919921875 c 0
 182.736328125 382.080078125 210.521484375 367.751953125 222.000976562 332.587890625 c 0
138.505859375 275.389648438 m 0
 163.607421875 281.702148438 163.178710938 279.03125 163.786132812 307.83203125 c 0
 164.649414062 319.009765625 162.92578125 330.6328125 159.2421875 341.870117188 c 0
 156.895507812 349.03125 153.731445312 349.647460938 146.994140625 345.987304688 c 0
 141.533203125 343.01953125 138.627929688 337.854492188 135.168945312 333.158203125 c 0
 124.963867188 319.305664062 116.689453125 304.452148438 112.327148438 287.673828125 c 0
 108.604492188 273.360351562 112.02734375 269.552734375 126.057617188 272.3359375 c 0
 130.244140625 273.166992188 134.36328125 274.346679688 138.505859375 275.389648438 c 0
EndSplineSet
Validated: 524321
EndChar

StartChar: question
Encoding: 63 63 20
Width: 301
Flags: W
LayerCount: 2
Fore
SplineSet
275.151367188 803.823242188 m 0
 283.055664062 776.963867188 289.763671875 749.62109375 288.822265625 721.549804688 c 0
 288.162109375 701.853515625 284.086914062 682.240234375 281.022460938 662.670898438 c 0
 279.448242188 652.622070312 276.3671875 642.817382812 274.631835938 632.787109375 c 0
 270.385742188 608.23828125 259.1875 585.888671875 252.6796875 562.096679688 c 0
 245.165039062 534.625976562 235.03125 507.9921875 224.838867188 481.578125 c 0
 214.004882812 453.5 207.827148438 423.991210938 196.026367188 396.334960938 c 0
 192.188476562 387.342773438 191.756835938 377.518554688 190.01171875 368.01953125 c 0
 182.693359375 328.1796875 183.2265625 287.838867188 182.171875 247.592773438 c 0
 181.400390625 218.108398438 180.438476562 188.62890625 179.556640625 159.147460938 c 0
 179.5078125 157.536132812 179.514648438 155.913085938 179.30859375 154.318359375 c 0
 177.76171875 142.412109375 173.80859375 137.51953125 165.29296875 138.672851562 c 0
 153.635742188 140.249023438 144.470703125 142.037109375 144.387695312 155.869140625 c 0
 144.244140625 179.982421875 144.546875 204.139648438 143.215820312 228.197265625 c 0
 141.465820312 259.836914062 142.204101562 291.55078125 140.223632812 323.123046875 c 0
 138.137695312 356.377929688 136.711914062 389.600585938 137.794921875 422.87109375 c 0
 138.265625 437.293945312 140.631835938 451.637695312 143.108398438 465.939453125 c 0
 148.96875 499.791992188 156.774414062 533.233398438 163.4140625 566.91015625 c 0
 166.021484375 580.134765625 171.67578125 592.249023438 173.877929688 605.66015625 c 0
 177.524414062 627.862304688 184.026367188 649.58203125 188.788085938 671.620117188 c 0
 194.103515625 696.229492188 198.000976562 721.057617188 196.766601562 746.419921875 c 0
 196.780273438 760.272460938 198.709960938 774.309570312 194.578125 787.938476562 c 0
 190.698242188 800.73828125 187.557617188 802.331054688 176.553710938 794.9453125 c 0
 156.038085938 781.17578125 136.7109375 765.758789062 120.16796875 747.313476562 c 0
 94.2685546875 718.434570312 72.1357421875 686.740234375 51.9501953125 653.658203125 c 0
 48.8740234375 648.615234375 45.666015625 643.643554688 42.3359375 638.764648438 c 0
 38.83984375 633.640625 34.521484375 629.3828125 27.6513671875 631.439453125 c 0
 20.15234375 633.684570312 13.810546875 637.499023438 12.6103515625 646.349609375 c 0
 10.8349609375 659.44921875 13.130859375 672.24609375 16.9248046875 684.546875 c 0
 29.53515625 725.43359375 47.623046875 763.467773438 75.62109375 796.458007812 c 0
 86.0234375 808.712890625 95.5341796875 821.5703125 107.196289062 832.87890625 c 0
 132.23046875 857.154296875 159.817382812 867.076171875 195.135742188 858.594726562 c 0
 225.4296875 851.318359375 249.2890625 836.009765625 269.416992188 813.392578125 c 0
 271.858398438 810.650390625 274.131835938 807.288085938 275.151367188 803.823242188 c 0
193.268554688 23.4365234375 m 0
 193.977539062 21.43359375 194.82421875 19.470703125 195.7265625 17.5458984375 c 0
 201.138671875 6.02734375 197.000976562 -0.337890625 182.666015625 0.0087890625 c 0
 170.41796875 2.7138671875 157.064453125 7.0048828125 146.694335938 16.9775390625 c 0
 135.657226562 27.59375 139.599609375 41.2080078125 154.245117188 45 c 0
 171.545898438 49.4794921875 187.084960938 40.8779296875 193.268554688 23.4365234375 c 0
EndSplineSet
Validated: 524321
EndChar

StartChar: A
Encoding: 65 65 21
AltUni2: 0000c5.ffffffff.0 0000c4.ffffffff.0 0000c3.ffffffff.0 0000c2.ffffffff.0 0000c1.ffffffff.0 0000c0.ffffffff.0
Width: 390
Flags: W
LayerCount: 2
Fore
SplineSet
368.189453125 486.951171875 m 4
 371.759765625 466.724609375 369.755859375 446.211914062 371.560546875 425.938476562 c 4
 374.842773438 392.62109375 370.625976562 359.420898438 370.333007812 326.157226562 c 4
 370.272460938 319.221679688 369.303710938 312.135742188 375.094726562 306.501953125 c 4
 378.401367188 303.284179688 377.646484375 299.583984375 374.802734375 296.450195312 c 4
 371.36328125 292.661132812 370.059570312 288.326171875 369.680664062 283.278320312 c 4
 366.1328125 236.055664062 366.345703125 188.9375 372.135742188 141.853515625 c 4
 373.506835938 130.706054688 373.084960938 119.31640625 373.12890625 108.037109375 c 4
 373.145507812 103.498046875 371.484375 99.39453125 366.012695312 98.908203125 c 4
 361.145507812 98.4765625 357.69921875 100.880859375 355.9296875 105.298828125 c 4
 354.946289062 107.754882812 354.3671875 110.450195312 354.059570312 113.090820312 c 4
 350.579101562 142.958007812 346.997070312 172.815429688 343.8515625 202.71875 c 4
 342.375 216.760742188 337.86328125 229.971679688 334.004882812 243.369140625 c 4
 331.181640625 253.173828125 327.69140625 262.786132812 324.556640625 272.501953125 c 4
 320.654296875 284.592773438 319.885742188 285.165039062 307.381835938 283.071289062 c 4
 273.981445312 277.479492188 241.215820312 268.998046875 208.288085938 261.254882812 c 4
 194.182617188 257.938476562 180.057617188 254.65625 165.833984375 251.918945312 c 4
 153.627929688 249.571289062 146.369140625 244.032226562 142.98828125 230.858398438 c 4
 134.040039062 195.987304688 126.655273438 160.7265625 117.752929688 125.922851562 c 4
 103.083984375 68.5849609375 95.705078125 9.80859375 80.7431640625 -47.38671875 c 4
 78.80859375 -54.783203125 76.20703125 -61.541015625 71.3369140625 -67.6083984375 c 4
 62.9658203125 -78.033203125 56.369140625 -80.2880859375 45.1982421875 -74.10546875 c 4
 37.125 -69.6376953125 30.4775390625 -63.39453125 27.892578125 -53.84375 c 4
 23.255859375 -36.7119140625 19.5400390625 -19.4580078125 17.1025390625 -1.8203125 c 4
 8.6572265625 59.2939453125 11.423828125 120.012695312 20.0595703125 180.916992188 c 4
 22.912109375 201.033203125 27.736328125 221.056640625 27.5556640625 241.616210938 c 4
 27.52734375 244.787109375 28.0283203125 248.16796875 29.16796875 251.108398438 c 4
 36.1650390625 269.166015625 37.7734375 288.444335938 42.115234375 307.096679688 c 4
 48.7001953125 335.391601562 58.89453125 362.6484375 66.2470703125 390.677734375 c 4
 72.1044921875 413.006835938 80.734375 434.360351562 87.2451171875 456.454101562 c 4
 92.34765625 473.767578125 98.7451171875 491.141601562 106.547851562 507.555664062 c 4
 120.171875 536.220703125 130.779296875 566.059570312 142.634765625 595.404296875 c 4
 153.255859375 621.694335938 167.655273438 645.87890625 188.39453125 664.637695312 c 4
 208.083984375 682.446289062 231.548828125 692.5 259.565429688 680.611328125 c 4
 274.860351562 674.119140625 290.909179688 669.440429688 305.65234375 661.470703125 c 4
 330.51171875 648.029296875 344.305664062 627.51171875 350.02734375 599.719726562 c 4
 357.721679688 562.349609375 361.561523438 524.439453125 368.189453125 486.951171875 c 4
259.21484375 506.830078125 m 4
 258.331054688 514.046875 255.155273438 521.079101562 249.793945312 527.654296875 c 5
 242.805664062 522.560546875 240.190429688 515.548828125 237.466796875 508.772460938 c 4
 225.076171875 477.947265625 209.283203125 448.387695312 202.698242188 415.384765625 c 4
 202.077148438 412.2734375 200.2890625 409.411132812 199.254882812 406.362304688 c 4
 186.693359375 369.2734375 171.125976562 333.211914062 161.432617188 295.135742188 c 4
 157.506835938 279.715820312 158.118164062 279.404296875 173.133789062 282.32421875 c 4
 196.845703125 286.935546875 220.038085938 293.752929688 244.110351562 297.025390625 c 4
 262.661132812 299.547851562 280.91015625 304.463867188 299.555664062 307.1484375 c 4
 310.833984375 308.771484375 311.858398438 311.354492188 309.739257812 322.573242188 c 4
 308.24609375 330.475585938 305.212890625 337.990234375 302.995117188 345.643554688 c 4
 298.672851562 360.5546875 292.8203125 374.918945312 288.465820312 389.828125 c 4
 282.586914062 409.966796875 279.736328125 430.795898438 273.063476562 450.706054688 c 4
 266.930664062 469.0078125 261.591796875 487.510742188 259.21484375 506.830078125 c 4
EndSplineSet
Validated: 524321
EndChar

StartChar: B
Encoding: 66 66 22
Width: 376
Flags: W
LayerCount: 2
Fore
SplineSet
220.060546875 191.740234375 m 0
 218.672851562 188.928710938 216.599609375 186.159179688 218.311523438 182.637695312 c 0
 225.697265625 182.637695312 233.096679688 182.697265625 240.494140625 182.625976562 c 0
 257.219726562 182.463867188 272.357421875 177.723632812 284.833984375 166.255859375 c 0
 297.9453125 154.204101562 302.16015625 142.249023438 290.9140625 117.907226562 c 0
 285.107421875 105.338867188 276.23046875 94.1826171875 268.680664062 82.427734375 c 0
 253.813476562 59.28125 235.401367188 38.9208984375 217.1640625 18.53515625 c 0
 209.69140625 10.1826171875 207.538085938 2.36328125 211.486328125 -7.724609375 c 0
 212.852539062 -11.21875 213.595703125 -14.951171875 214.779296875 -18.5234375 c 0
 217.706054688 -27.365234375 220.7890625 -36.12890625 211.254882812 -43.2724609375 c 0
 210.139648438 -44.1083984375 209.565429688 -46.0615234375 209.314453125 -47.591796875 c 0
 206.411132812 -65.30078125 193.766601562 -69.2744140625 178.537109375 -69.34765625 c 0
 165.220703125 -69.412109375 152.1484375 -73.033203125 138.522460938 -69.4443359375 c 0
 118.212890625 -64.0927734375 103.788085938 -54.3232421875 99.0712890625 -32.2265625 c 0
 93.7099609375 -7.1044921875 86.8271484375 17.63671875 85.490234375 43.53125 c 0
 84.85546875 55.806640625 77.6103515625 66.9580078125 77.5849609375 79.53125 c 0
 77.5439453125 99.7158203125 67.61328125 118.006835938 66.2216796875 137.8046875 c 0
 63.802734375 172.18359375 54.6767578125 205.536132812 51.08984375 239.6171875 c 0
 47.763671875 271.219726562 38.0615234375 301.415039062 33.7197265625 332.696289062 c 0
 33.5 334.286132812 32.6025390625 335.845703125 32.646484375 337.399414062 c 0
 33.2763671875 359.064453125 26.58984375 379.512695312 21.9599609375 400.25 c 0
 18.4013671875 416.190429688 20.5517578125 432.313476562 18.9619140625 448.3515625 c 0
 16.265625 475.55078125 13.8837890625 502.828125 12.3095703125 530.176757812 c 0
 10.740234375 557.431640625 15.541015625 583.73046875 19.1708984375 610.299804688 c 0
 20.1123046875 617.188476562 21.7021484375 624.442382812 26.6337890625 629.635742188 c 0
 34.5107421875 637.930664062 43.041015625 645.198242188 56.1845703125 641.397460938 c 0
 63.3720703125 639.318359375 71.0048828125 638.827148438 78.2861328125 637.017578125 c 0
 86.98046875 634.85546875 93.5263671875 629.829101562 98.078125 621.74609375 c 0
 103.786132812 611.60546875 105.180664062 611.153320312 115.34765625 617.7421875 c 0
 129.850585938 627.140625 144.603515625 635.91796875 161.165039062 641.11328125 c 0
 193.490234375 651.25390625 225.711914062 661.51953125 260.524414062 657.508789062 c 0
 279.96875 655.26953125 298.854492188 650.895507812 316.45703125 642.91015625 c 0
 342.181640625 631.241210938 356.306640625 610.650390625 361.358398438 582.357421875 c 0
 367.25 549.358398438 360.59375 517.989257812 351.953125 486.95703125 c 0
 342.005859375 451.232421875 329.063476562 416.442382812 312.9375 382.91796875 c 0
 304.331054688 365.026367188 294.532226562 347.770507812 286.606445312 329.482421875 c 0
 273.578125 299.423828125 259.874023438 269.586914062 244.803710938 240.513671875 c 0
 236.4140625 224.326171875 228.115234375 208.096679688 220.060546875 191.740234375 c 0
173.3203125 231.030273438 m 0
 177.217773438 210.231445312 180.254882812 189.2578125 184.055664062 166.383789062 c 1
 186.188476562 169.658203125 187.495117188 170.834960938 187.774414062 172.219726562 c 0
 194.696289062 206.501953125 205.615234375 239.717773438 215.071289062 273.305664062 c 0
 223.643554688 303.751953125 233.895507812 333.637695312 244.913085938 363.3984375 c 0
 265.224609375 418.262695312 288.400390625 472.106445312 305.755859375 528.03515625 c 0
 312.467773438 549.663085938 315.303710938 571.666992188 310.741210938 594.68359375 c 0
 307.186523438 612.618164062 285.0234375 629.94140625 267.368164062 628.8203125 c 0
 245.939453125 627.4609375 224.526367188 626.987304688 204.754882812 616.576171875 c 0
 194.819335938 611.34375 183.877929688 608.0546875 173.705078125 603.2265625 c 0
 158.66015625 596.0859375 143.905273438 588.356445312 130.251953125 578.69140625 c 0
 124.592773438 574.686523438 120.530273438 570.073242188 122.720703125 562.538085938 c 0
 127.670898438 545.505859375 130.025390625 527.94921875 133.556640625 510.627929688 c 0
 141.0546875 473.838867188 148.666015625 437.078125 154.35546875 399.961914062 c 0
 156.37890625 386.760742188 154.927734375 373.189453125 158.130859375 360.05078125 c 0
 160.954101562 348.474609375 161.11328125 336.641601562 161.170898438 324.80859375 c 0
 161.189453125 321.0703125 160.833984375 317.154296875 161.783203125 313.625 c 0
 169.059570312 286.580078125 168.189453125 258.430664062 173.3203125 231.030273438 c 0
265.70703125 138.581054688 m 0
 269.133789062 154.583984375 261.500976562 164.465820312 245.940429688 164.454101562 c 0
 228.54296875 162.935546875 212.869140625 156.560546875 200.485351562 143.75390625 c 0
 193.297851562 136.318359375 188.171875 127.116210938 189.209960938 116.310546875 c 0
 191.30078125 94.548828125 194.04296875 72.84765625 196.609375 51.1328125 c 0
 196.918945312 48.505859375 197.401367188 45.326171875 200.282226562 44.474609375 c 0
 204.052734375 43.3603515625 205.864257812 46.65625 207.811523438 49.12109375 c 0
 219.731445312 64.2236328125 231.8671875 79.1611328125 243.462890625 94.5068359375 c 0
 253.506835938 107.797851562 262.157226562 122.005859375 265.70703125 138.581054688 c 0
EndSplineSet
Validated: 524321
EndChar

StartChar: C
Encoding: 67 67 23
AltUni2: 0000c7.ffffffff.0
Width: 363
Flags: W
LayerCount: 2
Fore
SplineSet
147.814453125 341.978515625 m 0
 140.95703125 290.232421875 136.916992188 238.358398438 137.528320312 186.141601562 c 0
 137.841796875 150.768554688 137.583007812 115.35546875 145.189453125 80.4736328125 c 0
 148.270507812 66.33984375 150.95703125 64.9521484375 164.765625 70.9111328125 c 0
 182.950195312 78.759765625 199.760742188 89.4130859375 218.993164062 95.279296875 c 0
 233.482421875 99.69921875 243.064453125 112.98828125 256.540039062 119.909179688 c 0
 273.727539062 128.735351562 290.515625 138.322265625 308.247070312 146.102539062 c 0
 320.828125 151.623046875 332.505859375 149.95703125 343.26953125 142.127929688 c 0
 352.837890625 135.168945312 352.793945312 126.276367188 342.526367188 120.41015625 c 0
 323.276367188 109.415039062 305.961914062 96.0078125 289.522460938 81.2900390625 c 0
 287.172851562 79.1875 284.271484375 77.55859375 281.388671875 76.2197265625 c 0
 269.296875 70.599609375 260.409179688 61.5703125 253.067382812 50.6728515625 c 0
 243.138671875 35.9345703125 232.333007812 21.9375 218.041992188 11.021484375 c 0
 216.350585938 9.7294921875 214.532226562 8.314453125 213.465820312 6.5390625 c 0
 202.978515625 -10.890625 183.76953125 -15.6845703125 167.713867188 -24.9228515625 c 0
 160.981445312 -28.7978515625 152.965820312 -28.4404296875 145.647460938 -26.185546875 c 0
 122.0625 -18.916015625 98.08984375 -12.638671875 75.4794921875 -2.6064453125 c 0
 57.828125 5.224609375 45.3076171875 17.4541015625 37.10546875 36.224609375 c 0
 21.912109375 70.9912109375 16.6083984375 107.15625 15.255859375 144.372070312 c 0
 14.6904296875 159.918945312 15.3349609375 175.434570312 12.9765625 190.994140625 c 0
 10.6484375 206.348632812 13.1552734375 222.028320312 13.515625 237.502929688 c 0
 14.5908203125 283.677734375 18.5166015625 329.69140625 29.9150390625 374.728515625 c 0
 37.021484375 402.80859375 44.9462890625 430.59375 53.857421875 458.201171875 c 0
 60.474609375 478.705078125 71.1435546875 497.479492188 76.7197265625 518.208984375 c 0
 79.203125 527.438476562 86.2490234375 533.698242188 90.9990234375 541.344726562 c 0
 101.65234375 558.48828125 109.905273438 577.88671875 128.513671875 588.91796875 c 0
 130.2890625 589.970703125 131.931640625 591.734375 132.916992188 593.557617188 c 0
 142.072265625 610.470703125 158.572265625 618.711914062 173.515625 629.102539062 c 0
 205.873046875 651.602539062 268.916015625 643.40234375 297.543945312 622.202148438 c 0
 305.630859375 616.212890625 311.65625 607.498046875 315.538085938 597.786132812 c 0
 317.186523438 593.6640625 317.560546875 589.482421875 316.547851562 585.147460938 c 0
 314.255859375 575.323242188 307.21875 571.798828125 298.495117188 576.668945312 c 0
 294.811523438 578.725585938 291.806640625 582 288.495117188 584.720703125 c 0
 273.924804688 596.6875 265.350585938 596.982421875 249.456054688 585.963867188 c 0
 224.825195312 568.887695312 208.9765625 545.046875 196.967773438 518.1484375 c 0
 185.575195312 492.629882812 176.283203125 466.2890625 168.517578125 439.555664062 c 0
 159.239257812 407.614257812 152.204101562 375.092773438 147.814453125 341.978515625 c 0
EndSplineSet
Validated: 524321
EndChar

StartChar: D
Encoding: 68 68 24
Width: 355
Flags: W
LayerCount: 2
Fore
SplineSet
341.752929688 497.990234375 m 0
 342.530273438 491.63671875 341.889648438 485.10546875 341.889648438 478.657226562 c 0
 340.596679688 439.8515625 336.642578125 401.29296875 324.19140625 364.3984375 c 0
 314.424804688 335.4609375 302.661132812 307.161132812 290.922851562 278.935546875 c 0
 279.004882812 250.27734375 267.6796875 221.368164062 255.795898438 192.697265625 c 0
 236.704101562 146.639648438 215.795898438 101.369140625 197.328125 55.0283203125 c 0
 185.44921875 25.21875 169.603515625 -2.9912109375 156.2109375 -32.228515625 c 0
 150.206054688 -45.33984375 139.329101562 -49.0625 127.224609375 -47.6357421875 c 0
 114.016601562 -46.078125 100.71875 -42.9443359375 88.611328125 -36.7216796875 c 0
 76.3125 -30.3984375 72.8623046875 -23.4052734375 77.3349609375 -10.443359375 c 0
 84.3369140625 9.84765625 91.6904296875 30.0634765625 101.1640625 49.3779296875 c 0
 106.298828125 59.8466796875 108.4609375 69.75 104.572265625 81.70703125 c 0
 97.103515625 104.670898438 89.3193359375 127.890625 85.6171875 151.620117188 c 0
 81.947265625 175.151367188 74.1884765625 197.298828125 68.185546875 220.006835938 c 0
 64.1123046875 235.416992188 54.40234375 248.7890625 50.41015625 264.637695312 c 0
 43.880859375 290.576171875 35.8193359375 315.815429688 32.5927734375 342.84765625 c 0
 28.78515625 374.733398438 24.55078125 406.71484375 20.3486328125 438.596679688 c 0
 16.8701171875 464.983398438 14.123046875 491.754882812 14.65625 518.596679688 c 0
 14.7412109375 522.859375 14.0576171875 527.150390625 13.55859375 531.408203125 c 0
 10.5263671875 557.178710938 12.373046875 582.827148438 15.24609375 608.474609375 c 0
 18.4638671875 637.19921875 33.677734375 646.809570312 65.0546875 633.427734375 c 0
 76.935546875 628.361328125 86.34765625 627.387695312 98.376953125 629.87109375 c 0
 141.40625 638.75390625 184.474609375 640.60546875 227.583984375 628.818359375 c 0
 246.55078125 623.631835938 263.435546875 614.487304688 280.537109375 605.501953125 c 0
 285.35546875 602.969726562 288.7890625 598.744140625 292.126953125 594.459960938 c 0
 295.748046875 589.813476562 299.057617188 584.540039062 303.67578125 581.122070312 c 0
 319.490234375 569.4140625 327.790039062 552.234375 335.313476562 535.397460938 c 0
 340.321289062 524.192382812 340.2109375 510.595703125 341.752929688 497.990234375 c 0
144.75390625 217.299804688 m 0
 145.229492188 203.087890625 144.002929688 188.580078125 148.568359375 174.815429688 c 0
 149.875 174.665039062 151.181640625 174.512695312 152.490234375 174.362304688 c 0
 155.338867188 181.201171875 158.270507812 188.0078125 161.014648438 194.889648438 c 0
 165.392578125 205.869140625 168.482421875 217.544921875 174.185546875 227.775390625 c 0
 186.602539062 250.046875 192.26171875 274.83203125 201.698242188 298.186523438 c 0
 205.458007812 307.494140625 209.150390625 317.116210938 212.6953125 326.58984375 c 0
 221.802734375 350.938476562 225.248046875 377.516601562 240.646484375 399.479492188 c 0
 242.03125 401.455078125 242.153320312 404.583984375 242.190429688 407.185546875 c 0
 242.290039062 414.34765625 244.814453125 420.853515625 247.008789062 427.489257812 c 0
 254.252929688 449.412109375 261.4765625 471.192382812 262.044921875 494.791015625 c 0
 262.5390625 515.248046875 263.116210938 535.447265625 254.076171875 554.427734375 c 0
 241.59765625 580.625 220.943359375 595.610351562 192.041015625 599.50390625 c 0
 161.90234375 603.561523438 133.309570312 595.491210938 104.5625 588.83984375 c 0
 91.171875 585.7421875 90.80078125 585.109375 93.404296875 571.002929688 c 0
 100.014648438 535.18359375 104.268554688 498.883789062 114.98828125 463.876953125 c 0
 116.711914062 458.25 117.59375 452.33984375 118.538085938 446.505859375 c 0
 121.368164062 429.016601562 123.83984375 411.46484375 126.815429688 394.000976562 c 0
 131.650390625 365.63671875 140.3515625 338.033203125 141.186523438 308.84765625 c 0
 141.721679688 290.153320312 146.284179688 271.641601562 145.513671875 252.734375 c 0
 145.033203125 240.928710938 144.357421875 229.090820312 144.75390625 217.299804688 c 0
EndSplineSet
Validated: 524321
EndChar

StartChar: E
Encoding: 69 69 25
Width: 335
Flags: W
HStem: 305.001 36.1309<130.507 195.761> 658.28 17.7383<280.305 322.536>
VStem: 13.4404 98.8682<81.9884 298.749 340.193 577.323>
LayerCount: 2
Fore
SplineSet
126.328125 672.9765625 m 4
 140.846679688 672.80859375 155.37109375 672.927734375 165.21484375 672.927734375 c 4
 205.938476562 672.091796875 241.852539062 674.803710938 277.7734375 677.245117188 c 4
 288.567382812 677.978515625 299.26171875 676.9140625 309.952148438 676.018554688 c 4
 315.202148438 675.578125 321.970703125 674.9921875 322.568359375 668.364257812 c 4
 323.157226562 661.841796875 316.624023438 659.873046875 311.63671875 658.280273438 c 4
 292.72265625 652.235351562 273.396484375 647.810546875 254.08203125 643.173828125 c 4
 224.995117188 636.190429688 195.26953125 639.293945312 166.094726562 634.447265625 c 4
 146.209960938 631.14453125 135.408203125 620.809570312 130.939453125 602.130859375 c 4
 125.555664062 579.633789062 120.791992188 556.962890625 119.79296875 533.833007812 c 4
 118.01171875 492.55859375 113.887695312 451.442382812 112.30859375 410.123046875 c 4
 111.588867188 391.313476562 112.830078125 372.702148438 112.5625 354.0078125 c 4
 112.345703125 338.900390625 113.854492188 338.702148438 129.8046875 339.904296875 c 4
 144.788085938 341.033203125 159.870117188 341.03515625 174.911132812 341.131835938 c 4
 182.61328125 341.180664062 189.794921875 338.45703125 196.0546875 334.083007812 c 4
 202.262695312 329.74609375 202.513671875 324.8203125 197.138671875 319.43359375 c 4
 188.857421875 311.133789062 178.4296875 306.046875 167.131835938 305.000976562 c 4
 152.586914062 303.653320312 138.829101562 298.744140625 124.293945312 297.462890625 c 4
 112.65234375 296.436523438 110.649414062 293.936523438 110.282226562 281.947265625 c 4
 109.674804688 262.071289062 109.995117188 242.16796875 109.658203125 222.280273438 c 4
 108.923828125 178.822265625 108.018554688 135.366210938 107.204101562 91.908203125 c 4
 107.143554688 88.6845703125 106.979492188 85.4228515625 107.360351562 82.23828125 c 4
 108.296875 74.396484375 110.35546875 73.255859375 118.029296875 76.4921875 c 4
 121.971679688 78.15625 125.828125 80.154296875 129.447265625 82.4384765625 c 4
 164.3828125 104.474609375 199.553710938 126.127929688 234.704101562 147.813476562 c 4
 250.1953125 157.37109375 266.106445312 166.44140625 280.959960938 177.01171875 c 4
 287.528320312 181.685546875 293.3125 183.549804688 299.762695312 178.086914062 c 4
 304.637695312 173.959960938 304.063476562 167.299804688 298.353515625 159.178710938 c 4
 292.341796875 150.625976562 283.758789062 144.546875 275.141601562 139.451171875 c 4
 257.002929688 128.725585938 241.665039062 114.340820312 224.294921875 102.692382812 c 4
 203.809570312 88.9560546875 182.692382812 76.03125 163.18359375 61.0185546875 c 4
 150.03125 50.896484375 135.92578125 42.0751953125 123.345703125 31.1591796875 c 4
 111.895507812 21.2216796875 98.9482421875 15.3359375 83.29296875 20.9736328125 c 4
 81.7841796875 21.5166015625 80.1640625 22.03125 78.587890625 22.05859375 c 4
 53.37109375 22.490234375 42.6787109375 38.00390625 38.9912109375 60.453125 c 4
 34.55078125 87.48828125 29.3515625 114.45703125 26.3955078125 141.665039062 c 4
 21.189453125 189.58203125 16.3203125 237.58984375 13.4404296875 285.686523438 c 4
 11.259765625 322.108398438 11.630859375 358.681640625 14.017578125 395.26171875 c 4
 15.4814453125 417.719726562 17.2744140625 440.170898438 18.765625 462.629882812 c 4
 21.8671875 509.337890625 28.779296875 555.522460938 41.1591796875 600.70703125 c 4
 44.9716796875 614.619140625 49.6123046875 628.732421875 56.5869140625 641.241210938 c 4
 64.9228515625 656.192382812 79.3447265625 665.361328125 95.908203125 669.952148438 c 4
 105.747070312 672.6796875 116.053710938 673.08984375 126.328125 672.9765625 c 4
EndSplineSet
Validated: 6815777
EndChar

StartChar: F
Encoding: 70 70 26
Width: 290
Flags: W
LayerCount: 2
Fore
SplineSet
191.78125 583.098632812 m 0
 191.779296875 582.895507812 191.78125 582.696289062 191.783203125 582.493164062 c 1
 178.890625 582.493164062 165.99609375 582.63671875 153.104492188 582.45703125 c 0
 136.676757812 582.228515625 136.268554688 580.708007812 131.888671875 564.952148438 c 0
 120.37890625 523.5390625 119.64453125 481.28515625 119.59375 438.793945312 c 0
 119.5703125 420.090820312 117.12109375 401.401367188 116.16796875 382.684570312 c 0
 115.459960938 368.794921875 114.795898438 354.931640625 113.446289062 341.067382812 c 0
 112.000976562 326.21875 115.498046875 323.635742188 129.96484375 329.16796875 c 0
 142.622070312 334.0078125 155.640625 337.083984375 168.7890625 339.71484375 c 0
 180.525390625 342.0625 192.4140625 341.91015625 203.766601562 337.564453125 c 0
 213.307617188 333.911132812 214.353515625 327.504882812 206.591796875 320.731445312 c 0
 200.844726562 315.715820312 193.733398438 313.034179688 186.565429688 310.647460938 c 0
 166.18359375 303.85546875 145.751953125 297.201171875 125.430664062 290.235351562 c 0
 111.919921875 285.603515625 109.72265625 282.026367188 109.865234375 267.708007812 c 0
 110.211914062 232.83984375 108.674804688 197.981445312 108.24609375 163.16796875 c 0
 107.743164062 122.420898438 105.248046875 81.6884765625 106.159179688 40.9287109375 c 0
 106.3671875 31.6484375 104.26953125 22.7880859375 102.825195312 13.7919921875 c 0
 101.653320312 6.4970703125 97.1396484375 2.6171875 89.7685546875 1.7314453125 c 0
 75.669921875 0.0400390625 61.8935546875 1.72265625 48.24609375 5.2255859375 c 0
 42.3330078125 6.7421875 39.90234375 10.9501953125 38.0703125 16.484375 c 0
 33.435546875 30.4814453125 32.6572265625 45.0380859375 32.3017578125 59.4208984375 c 0
 30.78515625 120.609375 26.2041015625 181.630859375 23.32421875 242.733398438 c 0
 21.88671875 273.227539062 20.9755859375 303.837890625 19.69921875 334.362304688 c 0
 18.9208984375 353.005859375 16.30078125 371.705078125 14.8056640625 390.424804688 c 0
 10.6005859375 443.076171875 10.935546875 495.5859375 17.07421875 548.068359375 c 0
 19.3271484375 567.341796875 22.138671875 586.291992188 31.171875 603.931640625 c 0
 41.3271484375 623.765625 55.48828125 635.8984375 79.2626953125 634.818359375 c 0
 93.2509765625 634.18359375 107.237304688 633.615234375 120.98046875 631.231445312 c 0
 163.903320312 623.786132812 207.615234375 622.766601562 250.475585938 614.97265625 c 0
 256.813476562 613.819335938 263.282226562 612.857421875 269.327148438 610.7578125 c 0
 277.991210938 607.75 279.47265625 601.760742188 274.184570312 594.458984375 c 0
 270.484375 589.3515625 265.372070312 586.879882812 259.2265625 585.958984375 c 0
 242.182617188 583.40234375 225.1171875 581.728515625 207.841796875 583.03515625 c 0
 202.517578125 583.438476562 197.135742188 583.098632812 191.78125 583.098632812 c 0
EndSplineSet
Validated: 524321
EndChar

StartChar: G
Encoding: 71 71 27
Width: 359
Flags: W
LayerCount: 2
Fore
SplineSet
135.63671875 489.608398438 m 0
 125.915039062 445.977539062 118.967773438 402.02734375 118.926757812 357.189453125 c 0
 117.620117188 320.716796875 119.538085938 284.264648438 119.607421875 247.799804688 c 0
 119.702148438 197.258789062 127.118164062 147.612304688 136.948242188 98.17578125 c 0
 141.053710938 77.533203125 144.995117188 57.0625 155.770507812 38.60546875 c 0
 163.1171875 26.0224609375 165.671875 25.9580078125 175.60546875 36.0068359375 c 0
 203.201171875 63.921875 214.883789062 99.6279296875 224.810546875 136.0703125 c 0
 227.169921875 144.732421875 233.311523438 153.743164062 230.14453125 162.461914062 c 0
 226.719726562 171.8828125 214.774414062 170.841796875 207.072265625 175.37890625 c 0
 197.881835938 180.79296875 191.982421875 190.530273438 181.01953125 193.862304688 c 0
 177.252929688 195.006835938 178.96484375 199.379882812 182.798828125 200.693359375 c 0
 198.517578125 206.078125 214.112304688 211.956054688 230.701171875 214.248046875 c 0
 242.908203125 215.934570312 254.94921875 216.94140625 267.462890625 215.109375 c 0
 284.469726562 212.619140625 301.735351562 217.188476562 318.9453125 215.221679688 c 0
 324.85546875 214.545898438 330.756835938 214.077148438 336.127929688 211.341796875 c 0
 340.263671875 209.236328125 345.970703125 208.52734375 346.22265625 202.298828125 c 0
 346.483398438 195.891601562 343.852539062 190.49609375 338.11328125 187.587890625 c 0
 330.940429688 183.953125 323.446289062 180.904296875 315.483398438 179.2890625 c 0
 312.32421875 178.647460938 309.134765625 178.1484375 305.99609375 177.423828125 c 0
 295.6953125 175.044921875 289.311523438 169.328125 286.626953125 158.44140625 c 0
 280.453125 133.405273438 273.34765625 108.567382812 263.322265625 84.755859375 c 0
 253.716796875 61.939453125 241.916015625 40.3193359375 227.47265625 20.05859375 c 0
 206.047851562 -9.9912109375 178.91796875 -15.8994140625 146.999023438 -5.236328125 c 0
 118.68359375 4.2236328125 96.30859375 20.9208984375 84.0654296875 48.6533203125 c 0
 74.52734375 70.2578125 60.8251953125 89.857421875 53.87890625 112.67578125 c 0
 47.4951171875 133.645507812 38.3994140625 153.766601562 34.5654296875 175.55078125 c 0
 33.8408203125 179.66796875 31.6142578125 183.547851562 29.9013671875 187.458007812 c 0
 28.595703125 190.439453125 26.4677734375 193.774414062 27.94921875 196.65234375 c 0
 33.7880859375 208 27.5771484375 217.495117188 23.8134765625 227.325195312 c 0
 21.8818359375 232.372070312 20.2666015625 237.384765625 19.3935546875 242.752929688 c 0
 11.9453125 288.51953125 10.65234375 334.712890625 13.181640625 380.762695312 c 0
 14.908203125 412.201171875 15.978515625 443.923828125 25.0595703125 474.80859375 c 0
 30.1689453125 492.182617188 30.8515625 511.010742188 39.26171875 527.426757812 c 0
 48.21875 544.911132812 52.3798828125 564.9921875 67.634765625 579.173828125 c 0
 79.0361328125 589.774414062 89.8623046875 600.99609375 103.5546875 608.759765625 c 0
 119.87890625 618.016601562 138.150390625 617.229492188 155.499023438 615.87890625 c 0
 189.56640625 613.2265625 221.744140625 602.240234375 252.454101562 587.423828125 c 0
 258.611328125 584.454101562 264.2890625 579.829101562 269.1328125 574.924804688 c 0
 285.276367188 558.577148438 304.864257812 545.706054688 318.405273438 526.783203125 c 0
 330.822265625 509.431640625 338.448242188 489.997070312 340.897460938 468.791992188 c 0
 342.194335938 457.561523438 338.686523438 453.686523438 327.654296875 453.772460938 c 0
 311.815429688 453.896484375 298.380859375 458.7265625 289.705078125 473.525390625 c 0
 277.994140625 493.502929688 263.303710938 510.831054688 246.458007812 527.11328125 c 0
 234.71484375 538.463867188 222.852539062 548.455078125 208.874023438 556.560546875 c 0
 189.328125 567.89453125 170.0390625 563.809570312 158.578125 544.280273438 c 0
 148.525390625 527.151367188 140.016601562 509.2578125 135.63671875 489.608398438 c 0
EndSplineSet
Validated: 524321
EndChar

StartChar: H
Encoding: 72 72 28
Width: 368
Flags: W
LayerCount: 2
Fore
SplineSet
23.9501953125 61.9443359375 m 0
 18.6513671875 98.7392578125 17.8984375 135.732421875 17.18359375 172.775390625 c 0
 16.0869140625 227.522460938 14.3583984375 282.266601562 14.11328125 337.017578125 c 0
 13.9453125 374.569335938 11.9140625 412.071289062 12.0087890625 449.591796875 c 0
 12.078125 476.948242188 15.037109375 504.290039062 15.3740234375 531.655273438 c 0
 15.66015625 554.842773438 20.8095703125 577.340820312 23.267578125 600.196289062 c 0
 26.3974609375 629.306640625 37.953125 656.33203125 52.4560546875 681.553710938 c 0
 60.2919921875 695.181640625 73.1865234375 702.883789062 90.353515625 701.145507812 c 0
 100.986328125 700.068359375 111.725585938 701.252929688 122.443359375 699.224609375 c 0
 132.717773438 697.279296875 138.68359375 691.91796875 141.478515625 682.109375 c 0
 144.1328125 672.793945312 147.000976562 663.584960938 146.953125 653.73046875 c 0
 146.795898438 621.498046875 148.376953125 589.235351562 145.021484375 557.0625 c 0
 144.578125 552.802734375 144.534179688 548.46875 144.696289062 544.185546875 c 0
 146.19140625 504.609375 147.0703125 465.116210938 144.952148438 425.443359375 c 0
 143.706054688 402.078125 142.374023438 378.516601562 143.169921875 354.90625 c 0
 143.631835938 341.190429688 141.557617188 327.153320312 141.5546875 313.19921875 c 0
 141.552734375 302.860351562 142.060546875 301.643554688 152.12109375 303.1484375 c 0
 172.311523438 306.166992188 192.431640625 309.720703125 212.501953125 313.478515625 c 0
 228.858398438 316.54296875 245.258789062 319.328125 261.303710938 324.071289062 c 0
 275.818359375 328.361328125 277.844726562 329.55859375 278.62890625 344.569335938 c 0
 279.385742188 359.049804688 278.747070312 373.61328125 279.764648438 388.067382812 c 0
 282.59375 428.215820312 283.048828125 468.48046875 287.7109375 508.5625 c 0
 292.361328125 548.533203125 293.625976562 588.864257812 298.795898438 628.830078125 c 0
 301.279296875 648.034179688 304.071289062 667.168945312 308.604492188 685.995117188 c 0
 311.16796875 696.643554688 317.302734375 701.1875 328.0390625 701.307617188 c 0
 337.760742188 701.416015625 342.717773438 697.64453125 344.354492188 685.18359375 c 0
 349.883789062 643.1171875 354.174804688 600.98828125 355.266601562 558.4375 c 0
 356.162109375 523.513671875 355.991210938 488.650390625 354.315429688 453.848632812 c 0
 352.771484375 421.791015625 351.439453125 389.706054688 348.7109375 357.665039062 c 0
 345.708007812 322.40234375 346.504882812 286.83203125 344.305664062 251.479492188 c 0
 340.936523438 197.32421875 342.411132812 143.034179688 338.856445312 88.9033203125 c 0
 337.44140625 67.3515625 332.234375 61.734375 310.643554688 59.8740234375 c 0
 301.0078125 59.044921875 291.280273438 58.42578125 281.716796875 60.4794921875 c 0
 270.94140625 62.7939453125 266.734375 67.017578125 266.358398438 78.0234375 c 0
 265.8828125 91.9697265625 265.7421875 106.025390625 266.908203125 119.91015625 c 0
 271.362304688 172.91015625 273.642578125 226.017578125 275.853515625 279.13671875 c 0
 275.943359375 281.28515625 276.20703125 283.435546875 276.161132812 285.579101562 c 0
 275.927734375 296.6796875 273.169921875 299.065429688 262.274414062 295.926757812 c 0
 245.735351562 291.163085938 229.038085938 287.267578125 212.192382812 283.73828125 c 0
 193.265625 279.7734375 174.478515625 275.208984375 155.29296875 272.532226562 c 0
 143.017578125 270.819335938 142.341796875 269.87109375 141.09375 257.353515625 c 0
 136.990234375 216.16796875 137.208984375 174.8046875 135.8125 133.501953125 c 0
 134.977539062 108.836914062 133.166015625 84.2021484375 131.744140625 59.5576171875 c 0
 131.112304688 48.603515625 125.182617188 41.06640625 115.0234375 38.158203125 c 0
 89.525390625 30.8583984375 64.06640625 31.244140625 39.1640625 41.15625 c 0
 29.876953125 44.8515625 25.4248046875 51.6943359375 23.9501953125 61.9443359375 c 0
EndSplineSet
Validated: 524321
EndChar

StartChar: I
Encoding: 73 73 29
AltUni2: 0000cf.ffffffff.0 0000ce.ffffffff.0 0000cd.ffffffff.0 0000cc.ffffffff.0
Width: 143
Flags: W
LayerCount: 2
Fore
SplineSet
29.533203125 43.8603515625 m 0
 27.1103515625 74.876953125 24.833984375 105.908203125 22.5185546875 136.936523438 c 0
 18.458984375 179.075195312 21.953125 221.473632812 17.7197265625 263.673828125 c 0
 15.58984375 284.900390625 17.9248046875 306.537109375 17.0498046875 327.938476562 c 0
 16.1962890625 348.78125 17.076171875 369.705078125 14.4169921875 390.478515625 c 0
 13.8056640625 395.2578125 13.3466796875 400.143554688 13.6259765625 404.934570312 c 0
 15.8115234375 442.51953125 11.57421875 480.014648438 12.0380859375 517.532226562 c 0
 12.6611328125 567.991210938 14.0458984375 618.55859375 23.9208984375 668.248046875 c 0
 27.0322265625 683.905273438 33.2470703125 699.102539062 39.38671875 713.954101562 c 0
 44.9189453125 727.333007812 58.1923828125 733.69140625 72.3310546875 731.419921875 c 0
 78.1494140625 730.483398438 84.13671875 729.454101562 89.5234375 727.208007812 c 0
 101.08203125 722.38671875 110.247070312 715.901367188 114.885742188 702.459960938 c 0
 123.826171875 676.55859375 126.870117188 650.137695312 126.392578125 623.158203125 c 0
 125.92578125 596.79296875 130.498046875 570.731445312 130.23046875 544.409179688 c 0
 130.05078125 526.747070312 131.274414062 509.127929688 130.2890625 491.41015625 c 0
 129.127929688 470.5390625 129.365234375 449.567382812 129.586914062 428.645507812 c 0
 129.915039062 397.541015625 129.587890625 366.48046875 126.657226562 335.487304688 c 0
 126.405273438 332.822265625 126.326171875 330.083007812 126.633789062 327.431640625 c 0
 130.065429688 297.979492188 127.094726562 268.438476562 125.5234375 239.176757812 c 0
 123.625976562 203.793945312 124.064453125 168.370117188 121.721679688 133.005859375 c 0
 119.986328125 106.817382812 119.291015625 80.5390625 117.442382812 54.328125 c 0
 116.494140625 40.8798828125 115.4375 27.53515625 111.057617188 14.6865234375 c 0
 107.536132812 4.3603515625 101.653320312 0.009765625 90.6904296875 -0 c 0
 63.650390625 -0.02734375 45.671875 14.916015625 31.744140625 36.21875 c 0
 30.3505859375 38.349609375 29.736328125 41.2529296875 29.533203125 43.8603515625 c 0
EndSplineSet
Validated: 524321
EndChar

StartChar: J
Encoding: 74 74 30
Width: 323
Flags: W
LayerCount: 2
Fore
SplineSet
113.950195312 117.477539062 m 0
 129.743164062 108.911132812 139.506835938 93.46875 155.23046875 80.7861328125 c 1
 158.087890625 100.51953125 155.353515625 117.598632812 155.536132812 134.612304688 c 0
 155.905273438 168.877929688 154.486328125 203.12109375 155.51171875 237.4453125 c 0
 156.469726562 269.5625 156.633789062 301.786132812 159.0390625 333.76953125 c 0
 161.7734375 370.1328125 161.025390625 406.658203125 165.96875 442.953125 c 0
 168.92578125 464.662109375 168.223632812 486.887695312 170.1640625 508.845703125 c 0
 172.479492188 535.075195312 175.421875 561.192382812 180.416015625 587.0546875 c 0
 183.561523438 603.34375 186.049804688 619.80859375 190.208984375 635.836914062 c 0
 193.4140625 648.182617188 198.41015625 660.115234375 203.254882812 671.96875 c 0
 208.551757812 684.927734375 220.393554688 687.521484375 232.526367188 688.024414062 c 0
 249.623046875 688.733398438 266.756835938 688.631835938 283.875 688.731445312 c 0
 296.04296875 688.802734375 302.24609375 683.956054688 306.0703125 671.970703125 c 0
 308.703125 663.717773438 310.739257812 655.317382812 310.13671875 646.629882812 c 0
 308.198242188 618.751953125 309.755859375 590.834960938 307.708984375 562.865234375 c 0
 305.08984375 527.099609375 305.26953125 490.946289062 302.112304688 455.309570312 c 0
 298.500976562 414.551757812 302.159179688 373.706054688 296.908203125 333.049804688 c 0
 294.2421875 312.405273438 296.11328125 291.200195312 295.373046875 270.26953125 c 0
 294.82421875 254.74609375 294.583984375 239.149414062 291.399414062 223.827148438 c 0
 290.962890625 221.729492188 290.319335938 219.508789062 290.59375 217.454101562 c 0
 293.970703125 192.162109375 288.927734375 167.252929688 286.22265625 142.399414062 c 0
 284.043945312 122.374023438 283.106445312 101.624023438 273.31640625 83.0498046875 c 0
 272.58203125 81.65625 271.752929688 79.90625 271.9765625 78.4794921875 c 0
 274.653320312 61.3828125 265.36328125 47.150390625 260.169921875 32.2177734375 c 0
 254.220703125 15.11328125 238.209960938 6.8857421875 222.26953125 2.9990234375 c 0
 200.771484375 -2.2421875 178.255859375 0.375 156.487304688 3.3798828125 c 0
 141.774414062 5.4091796875 129.822265625 15.4833984375 120.599609375 26.568359375 c 0
 90.4169921875 62.8515625 60.8642578125 99.6767578125 31.7978515625 136.862304688 c 0
 21.6318359375 149.870117188 11.998046875 163.791992188 12.0009765625 181.685546875 c 0
 12.0029296875 195.494140625 16.9736328125 199.479492188 30.892578125 198.485351562 c 0
 46.88671875 197.344726562 57.4501953125 187.50390625 66.7626953125 176.569335938 c 0
 82.0625 158.608398438 96.2265625 139.680664062 110.873046875 121.162109375 c 0
 111.872070312 119.899414062 112.643554688 118.186523438 113.950195312 117.477539062 c 0
EndSplineSet
Validated: 524321
EndChar

StartChar: K
Encoding: 75 75 31
Width: 337
Flags: W
LayerCount: 2
Fore
SplineSet
119.952148438 444.21484375 m 0
 120.0625 441.205078125 119.026367188 437.619140625 123.107421875 434.930664062 c 1
 128.778320312 437.427734375 130.5859375 443.063476562 132.686523438 448.37890625 c 0
 136.461914062 457.936523438 141.336914062 466.787109375 147.7578125 474.892578125 c 0
 152.747070312 481.190429688 157.3671875 487.833007812 158.85546875 496.119140625 c 0
 159.317382812 498.692382812 160.482421875 501.299804688 161.911132812 503.512695312 c 0
 184.295898438 538.131835938 206.34375 572.9609375 229.62890625 607.0078125 c 0
 241.251953125 624.002929688 255.077148438 638.483398438 270.072265625 652.2890625 c 0
 281.35546875 662.676757812 294.544921875 665.189453125 308.907226562 663.940429688 c 0
 320.440429688 662.938476562 325.13671875 657.692382812 324.854492188 645.981445312 c 0
 324.515625 631.928710938 322.33203125 617.840820312 316.747070312 605.068359375 c 0
 307.432617188 583.770507812 302.836914062 561.077148438 295.229492188 539.330078125 c 0
 281.583007812 500.321289062 266.614257812 461.879882812 247.490234375 425.065429688 c 0
 239.356445312 409.404296875 232.224609375 392.888671875 223.340820312 377.862304688 c 0
 209.5 354.453125 197.873046875 329.681640625 181.07421875 307.874023438 c 0
 167.686523438 290.497070312 157.681640625 270.697265625 148.115234375 250.868164062 c 0
 146.720703125 247.978515625 145.901367188 244.768554688 144.250976562 242.049804688 c 0
 137.036132812 230.166015625 134.104492188 217.375 134.947265625 203.525390625 c 0
 135.370117188 196.5625 135.66796875 189.5 134.984375 182.584960938 c 0
 133.5390625 167.963867188 141.053710938 158.974609375 153.1171875 153.305664062 c 0
 166.708007812 146.916992188 180.484375 140.73828125 194.641601562 135.78515625 c 0
 213.381835938 129.23046875 232.208007812 122.724609375 251.811523438 118.967773438 c 0
 255.91015625 118.182617188 261.354492188 117.877929688 260.516601562 111.866210938 c 0
 259.826171875 106.913085938 255.083007812 105.3046875 250.676757812 105.237304688 c 0
 245.890625 105.163085938 241.041992188 105.814453125 236.301757812 106.62890625 c 0
 210.295898438 111.096679688 185.2734375 119.5546875 159.671875 125.674804688 c 0
 138.334960938 130.775390625 137.168945312 129.1875 139.719726562 106.943359375 c 0
 142.899414062 79.232421875 145.15625 51.412109375 147.455078125 23.6083984375 c 0
 148.11328125 15.63671875 142.848632812 8.8994140625 133.68359375 5.869140625 c 0
 114.98046875 -0.31640625 95.9326171875 -2.2578125 76.6240234375 3.2119140625 c 0
 63.7919921875 6.8486328125 57.4365234375 16.5390625 54.3671875 28.4990234375 c 0
 52.1171875 37.271484375 53.0927734375 46.9716796875 51.279296875 55.388671875 c 0
 46.9501953125 75.484375 46.146484375 95.810546875 43.7490234375 115.998046875 c 0
 37.236328125 170.825195312 28.2216796875 225.299804688 28.126953125 280.911132812 c 0
 28.060546875 319.977539062 23.12890625 359.060546875 19.791015625 398.0859375 c 0
 17.869140625 420.551757812 18.2109375 443.095703125 15.56640625 465.573242188 c 0
 11.548828125 499.749023438 11.533203125 534.231445312 12.5849609375 568.596679688 c 0
 13.7177734375 605.623046875 15.9404296875 642.685546875 26.6748046875 678.470703125 c 0
 32.16015625 696.755859375 36.482421875 699.264648438 55.7255859375 699.662109375 c 0
 84.8427734375 700.264648438 88.5009765625 697.1171875 96.6728515625 668.235351562 c 0
 101.828125 650.014648438 103.998046875 631.350585938 106.072265625 612.713867188 c 0
 112.307617188 556.689453125 117.876953125 500.592773438 119.952148438 444.21484375 c 0
EndSplineSet
Validated: 524321
EndChar

StartChar: L
Encoding: 76 76 32
Width: 389
Flags: W
LayerCount: 2
Fore
SplineSet
362.998046875 126.250976562 m 1
 367.502929688 117.622070312 371.815429688 108.895507812 375.998046875 100.099609375 c 0
 376.595703125 93.6923828125 376.7578125 87.2138671875 376.790039062 80.7724609375 c 2
 376.790039062 77.4951171875 l 2
 375.193359375 76.7109375 373.436523438 76.125 371.489257812 75.7978515625 c 0
 367.985351562 75.208984375 367.756835938 71.52734375 369.501953125 69.29296875 c 1
 335.549804688 48.232421875 299.18359375 32.265625 261.557617188 18.80078125 c 0
 252.974609375 15.7294921875 244.32421875 12.94140625 236.071289062 8.88671875 c 0
 224.376953125 3.142578125 212.166015625 -0.2890625 198.704101562 1.728515625 c 0
 193.002929688 2.58203125 186.947265625 1.390625 181.084960938 0.796875 c 0
 168.142578125 -0.513671875 155.396484375 -0.6494140625 142.859375 3.8515625 c 0
 138.377929688 5.4599609375 133.40625 5.705078125 128.654296875 6.5546875 c 0
 118.60546875 8.3525390625 108.512695312 9.9248046875 98.5146484375 11.9677734375 c 0
 62.87109375 19.25390625 44.2236328125 42.1572265625 38.9404296875 77.2314453125 c 0
 35.41796875 100.615234375 33.05859375 124.064453125 31.7978515625 147.725585938 c 0
 30.2880859375 176.025390625 26.650390625 204.20703125 24.2177734375 232.462890625 c 0
 22.3759765625 253.85546875 20.6591796875 275.270507812 19.482421875 296.70703125 c 0
 18.3935546875 316.532226562 19.8984375 336.502929688 15.974609375 356.172851562 c 0
 15.556640625 358.265625 15.2998046875 360.498046875 15.544921875 362.59765625 c 0
 18.6865234375 389.41796875 14.5927734375 415.993164062 13.40234375 442.693359375 c 0
 12.017578125 473.73046875 11.20703125 504.961914062 13.154296875 535.920898438 c 0
 14.4560546875 556.638671875 13.384765625 577.9296875 20.1142578125 598.213867188 c 0
 21.4326171875 602.190429688 21.794921875 606.767578125 21.4365234375 610.969726562 c 0
 19.791015625 630.251953125 27.5361328125 647.840820312 30.9501953125 666.196289062 c 0
 33.2490234375 678.55078125 42.8359375 685.85546875 52.7275390625 690.517578125 c 0
 65.1552734375 696.375 92.375 681.0390625 95.4375 666.690429688 c 0
 99.0126953125 649.92578125 105.5859375 633.90625 106.5390625 616.40234375 c 0
 107.083984375 606.39453125 111.932617188 596.696289062 113.358398438 586.649414062 c 0
 119.000976562 546.899414062 129.57421875 508.09375 134.439453125 468.087890625 c 0
 136.740234375 449.165039062 139.203125 429.907226562 142.637695312 410.950195312 c 0
 145.866210938 393.135742188 149.756835938 375.0859375 149.823242188 357.127929688 c 0
 149.95703125 320.63671875 156.98046875 284.876953125 160.432617188 248.836914062 c 0
 164.82421875 203.008789062 166.03125 156.744140625 174.508789062 111.26171875 c 0
 178.42578125 90.2451171875 180.348632812 88.2529296875 200.526367188 95.6357421875 c 0
 210.666992188 99.3466796875 220.796875 102.739257812 231.64453125 103.666992188 c 0
 234.829101562 103.939453125 238.336914062 104.288085938 241.032226562 105.79296875 c 0
 258.295898438 115.435546875 277.94140625 116.709960938 296.423828125 122.0234375 c 0
 304.877929688 124.453125 312.879882812 127.91015625 320.352539062 132.33203125 c 1
 335.206054688 132.899414062 349.387695312 130.97265625 362.998046875 126.250976562 c 1
EndSplineSet
Validated: 524321
EndChar

StartChar: M
Encoding: 77 77 33
Width: 498
Flags: W
LayerCount: 2
Fore
SplineSet
480.892578125 412.2578125 m 0
 484.026367188 381.298828125 486.715820312 350.13671875 484.880859375 318.919921875 c 0
 483.28125 291.6796875 482.325195312 264.434570312 479.78125 237.198242188 c 0
 476.786132812 205.166992188 474.59765625 172.987304688 472.493164062 140.844726562 c 0
 470.317382812 107.584960938 465.131835938 74.736328125 459.655273438 41.919921875 c 0
 459.223632812 39.328125 458.25390625 36.67578125 456.922851562 34.4111328125 c 0
 449.411132812 21.62109375 412.795898438 13.9775390625 400.6953125 22.5029296875 c 0
 395.772460938 25.9716796875 394.784179688 31.0908203125 394.172851562 36.5810546875 c 0
 390.421875 70.2958984375 391.109375 104.14453125 390.69140625 137.978515625 c 0
 390.313476562 168.544921875 388.619140625 199.092773438 388.16015625 229.657226562 c 0
 387.716796875 259.217773438 386.51171875 288.900390625 388.5546875 318.327148438 c 0
 390.895507812 352.03515625 389.849609375 386.166992188 395.580078125 419.366210938 c 0
 399.251953125 440.640625 393.848632812 461.984375 398.754882812 483.374023438 c 1
 389.134765625 466.823242188 379.952148438 449.99609375 369.786132812 433.787109375 c 0
 355.553710938 411.09375 345.4609375 385.948242188 327.997070312 365.124023438 c 0
 321.008789062 356.790039062 312.258789062 350.592773438 304.857421875 342.8359375 c 0
 302.502929688 340.368164062 298.219726562 339.02734375 294.639648438 338.572265625 c 0
 283.993164062 337.215820312 273.258789062 335.861328125 262.5546875 335.819335938 c 0
 251.530273438 335.775390625 242.754882812 340.71484375 233.931640625 348.188476562 c 0
 201.740234375 375.458984375 186.205078125 413.766601562 165.018554688 448.330078125 c 0
 148.484375 475.3046875 132.366210938 502.533203125 116.01953125 529.623046875 c 0
 114.658203125 531.877929688 113.185546875 534.232421875 109.501953125 534.045898438 c 0
 105.608398438 530.09765625 107.498046875 525.1015625 108.4140625 520.76953125 c 0
 117.291015625 478.77734375 125.793945312 436.763671875 136.9453125 395.208984375 c 0
 147.884765625 354.44140625 160.767578125 314.24609375 171.021484375 273.248046875 c 0
 185.25 216.364257812 197.3203125 159.127929688 206.499023438 101.293945312 c 0
 209.51953125 82.271484375 213.736328125 63.302734375 213.934570312 43.8310546875 c 0
 214.034179688 33.9560546875 212.342773438 24.7685546875 208.232421875 15.7333984375 c 0
 202.139648438 2.3447265625 188.638671875 -3.6376953125 175.3359375 2.2822265625 c 0
 168.393554688 5.3720703125 162.383789062 9.748046875 158.797851562 16.9599609375 c 0
 151.41015625 31.8203125 142.625976562 46.021484375 135.46484375 60.9404296875 c 1
 138.002929688 61.8037109375 139.8671875 65.3701171875 137.547851562 68.1259765625 c 0
 135.272460938 70.8310546875 133.086914062 73.603515625 130.95703125 76.4189453125 c 0
 128.190429688 87.7138671875 123.861328125 98.291015625 118.0390625 108.025390625 c 0
 111.504882812 130.584960938 104.934570312 153.133789062 98.4443359375 175.705078125 c 0
 85.52734375 220.624023438 71.26171875 265.1328125 58.849609375 310.220703125 c 0
 48.8671875 346.4765625 38.0224609375 382.509765625 29.9033203125 419.229492188 c 0
 25.1552734375 440.697265625 23.55859375 462.90625 18.1533203125 484.173828125 c 0
 11.95703125 508.552734375 12.6796875 533.09765625 12.021484375 557.71875 c 0
 11.56640625 574.7265625 18.056640625 590.314453125 22.5576171875 606.158203125 c 0
 26.3359375 619.456054688 39.017578125 624.461914062 51.0908203125 627.333007812 c 0
 77.09375 633.516601562 102.861328125 635.328125 128.208984375 622.518554688 c 0
 142.674804688 615.208984375 154.39453125 605.190429688 162.913085938 592.233398438 c 0
 180.005859375 566.232421875 194.2109375 538.576171875 208.3671875 510.782226562 c 0
 228.8984375 470.467773438 243.251953125 427.634765625 262.7265625 386.982421875 c 0
 267.048828125 377.958984375 269.30859375 365.63671875 281.857421875 365.684570312 c 0
 291.994140625 365.723632812 295.688476562 376.663085938 300.634765625 383.799804688 c 0
 330.344726562 426.66796875 355.521484375 472.353515625 380.412109375 518.045898438 c 0
 397.169921875 548.810546875 421.447265625 545.309570312 443.333007812 538.318359375 c 0
 447.681640625 536.928710938 450.3359375 533.799804688 452.768554688 530.040039062 c 0
 460.135742188 518.647460938 464.146484375 506.196289062 468.129882812 493.208984375 c 0
 476.267578125 466.671875 478.1484375 439.37109375 480.892578125 412.2578125 c 0
EndSplineSet
Validated: 524321
EndChar

StartChar: N
Encoding: 78 78 34
AltUni2: 0000d1.ffffffff.0
Width: 460
Flags: W
LayerCount: 2
Fore
SplineSet
323.341796875 156.372070312 m 0
 330.55859375 141.536132812 336.953125 126.317382812 347.555664062 112.428710938 c 1
 347.84375 114.478515625 348.381835938 116.52734375 348.381835938 118.577148438 c 0
 348.388671875 165.913085938 350.983398438 213.216796875 356.119140625 260.16015625 c 0
 360.092773438 296.463867188 362.305664062 332.928710938 366.986328125 369.169921875 c 0
 370.490234375 396.3046875 371.815429688 423.713867188 374.6171875 450.950195312 c 0
 378.349609375 487.244140625 381.403320312 523.6015625 386.62109375 559.750976562 c 0
 390.756835938 588.399414062 393.209960938 617.28515625 396.98828125 645.989257812 c 0
 400.704101562 674.215820312 405.029296875 702.36328125 409.337890625 730.506835938 c 0
 410.909179688 740.765625 412.561523438 741.564453125 423.649414062 739.712890625 c 0
 438.546875 737.225585938 442.682617188 733.076171875 445.765625 718.404296875 c 0
 449.713867188 699.604492188 446.845703125 680.760742188 445.100585938 662.186523438 c 0
 440.678710938 615.162109375 440.155273438 567.890625 435.673828125 520.928710938 c 0
 429.958984375 461.038085938 427.533203125 400.907226562 421.12109375 341.0625 c 0
 417.693359375 309.067382812 418.245117188 276.655273438 415.173828125 244.60546875 c 0
 410.005859375 190.666992188 408.870117188 136.34765625 400.176757812 82.7509765625 c 0
 398.978515625 75.36328125 397.08203125 67.99609375 394.624023438 60.9267578125 c 0
 390.254882812 48.3603515625 383.37890625 44.201171875 370 45.1982421875 c 0
 357.686523438 46.1162109375 348.19921875 50.6279296875 340.345703125 61.470703125 c 0
 323.04296875 85.3642578125 304.831054688 108.704101562 285.548828125 131.026367188 c 0
 266.459960938 153.125 252.990234375 179.02734375 235.01171875 201.728515625 c 0
 215.643554688 226.18359375 197.563476562 251.556640625 183.466796875 279.260742188 c 0
 175.70703125 294.51171875 166.944335938 308.7421875 156.733398438 322.268554688 c 0
 154.0859375 325.774414062 152.120117188 329.499023438 151.810546875 333.974609375 c 0
 151.170898438 343.194335938 146.319335938 350.01953125 139.024414062 356.140625 c 1
 134.9765625 353.577148438 136.435546875 349.515625 136.611328125 346.266601562 c 0
 137.337890625 332.860351562 138.083007812 319.439453125 139.447265625 306.087890625 c 0
 141.4140625 286.853515625 141.322265625 267.580078125 141.87109375 248.297851562 c 0
 142.358398438 231.159179688 144.345703125 214.004882812 146.690429688 196.998046875 c 0
 148.389648438 184.659179688 148.278320312 172.341796875 148.711914062 159.999023438 c 0
 149.595703125 134.814453125 150.498046875 109.630859375 151.435546875 84.447265625 c 0
 152.16015625 65.037109375 150.408203125 45.7587890625 148.03125 26.5517578125 c 0
 146.890625 17.3310546875 143.799804688 8.5673828125 135.46875 3.134765625 c 0
 132.893554688 1.455078125 129.53125 0.62890625 126.41796875 0.1904296875 c 0
 111.713867188 -1.88671875 81.4677734375 13.375 74.3203125 26.564453125 c 0
 63.5048828125 46.5263671875 57.0771484375 68.193359375 53.9287109375 90.3818359375 c 0
 49.10546875 124.393554688 43.4111328125 158.271484375 40.96484375 192.682617188 c 0
 38.1171875 232.705078125 31.140625 272.436523438 28.34375 312.4609375 c 0
 25.95703125 346.61328125 23.5498046875 380.860351562 20.708984375 414.912109375 c 0
 18.4814453125 441.598632812 17.5166015625 468.471679688 14.38671875 495.139648438 c 0
 11.3916015625 520.649414062 10.9140625 546.322265625 14.703125 571.887695312 c 0
 16.5234375 584.169921875 23.927734375 593 34.9990234375 593.450195312 c 0
 72.228515625 594.963867188 107.951171875 589.189453125 139.618164062 567.93359375 c 0
 153.73828125 558.455078125 164.02734375 545.55078125 170.8984375 529.794921875 c 0
 178.590820312 512.153320312 186.056640625 494.296875 194.090820312 476.971679688 c 0
 200.4609375 463.237304688 205.459960938 449.670898438 209.25390625 435.244140625 c 0
 210.5859375 430.177734375 213.461914062 425.2265625 216.661132812 420.999023438 c 0
 223.319335938 412.204101562 220.64453125 400.987304688 224.524414062 392.166992188 c 0
 228.5234375 383.080078125 236.55078125 375.858398438 236.354492188 364.6953125 c 0
 236.30078125 361.627929688 236.900390625 357.561523438 238.852539062 355.6015625 c 0
 254.0390625 340.353515625 256.822265625 319.206054688 264.733398438 300.709960938 c 0
 285.14453125 252.982421875 300.534179688 203.21875 323.341796875 156.372070312 c 0
EndSplineSet
Validated: 524321
EndChar

StartChar: O
Encoding: 79 79 35
AltUni2: 0000d8.ffffffff.0 0000d6.ffffffff.0 0000d5.ffffffff.0 0000d4.ffffffff.0 0000d3.ffffffff.0 0000d2.ffffffff.0
Width: 315
Flags: W
LayerCount: 2
Fore
SplineSet
201.229492188 3.609375 m 4
 189.4453125 2.787109375 177.541015625 3.4033203125 166.165039062 -0.0009765625 c 5
 141.712890625 5.4365234375 116.83984375 8.591796875 94.4482421875 19.353515625 c 4
 80.2470703125 26.1787109375 70.759765625 39.5712890625 62.7724609375 52.98046875 c 4
 45.6640625 81.703125 32.5185546875 112.325195312 25.0390625 144.931640625 c 4
 16.0263671875 184.219726562 8.75390625 224.28515625 13.4921875 264.47265625 c 4
 16.7353515625 291.990234375 18.8310546875 319.741210938 24.1025390625 347.166015625 c 4
 30.5205078125 380.559570312 39.6787109375 413.163085938 53.6279296875 443.708984375 c 4
 64.3994140625 467.297851562 75.1201171875 491.477539062 91.923828125 512.255859375 c 4
 100.005859375 522.250976562 107.651367188 532.533203125 116.869140625 541.524414062 c 4
 128.517578125 552.88671875 146.078125 555.171875 160.071289062 547.78125 c 4
 166.374023438 544.453125 165.03125 539.412109375 165.05859375 533.97265625 c 4
 165.092773438 527.182617188 157.524414062 520.231445312 163.303710938 514.307617188 c 4
 167.645507812 509.857421875 175.490234375 511.006835938 181.73046875 509.481445312 c 4
 205.44921875 503.686523438 222.686523438 488.521484375 236.864257812 469.752929688 c 4
 267.587890625 429.076171875 284.994140625 382.811523438 293.84765625 332.83984375 c 4
 299.66796875 299.98828125 302.393554688 266.93359375 302.720703125 233.694335938 c 4
 303.240234375 180.96484375 294.99609375 129.548828125 271.68359375 81.96875 c 4
 258.244140625 54.541015625 239.642578125 30.0009765625 215.541015625 10.3076171875 c 4
 211.243164062 6.796875 206.83984375 4 201.229492188 3.609375 c 4
151.345703125 485.422851562 m 4
 136.120117188 415.358398438 129.087890625 344.431640625 127.745117188 272.768554688 c 4
 127.745117188 259.354492188 125.321289062 245.373046875 128.295898438 232.654296875 c 4
 133.163085938 211.845703125 129.846679688 190.928710938 132.5234375 170.162109375 c 4
 134.088867188 158.015625 136.431640625 145.866210938 136.819335938 133.44921875 c 4
 137.477539062 112.350585938 144.403320312 92.3779296875 150.475585938 72.3935546875 c 4
 154.413085938 59.431640625 158.096679688 58.36328125 168.685546875 65.82421875 c 4
 174.354492188 69.8193359375 179.815429688 74.09375 184.768554688 79.162109375 c 4
 205.40625 100.270507812 219.365234375 125.345703125 229.436523438 152.752929688 c 4
 246.247070312 198.504882812 257.802734375 245.485351562 253.879882812 294.534179688 c 4
 250.618164062 335.322265625 241.739257812 375.313476562 226.965820312 413.623046875 c 4
 219.24609375 433.641601562 212.119140625 453.965820312 201.288085938 472.733398438 c 4
 194.071289062 485.240234375 183.330078125 492.408203125 170.142578125 496.571289062 c 4
 157.03515625 500.708984375 154.291015625 498.970703125 151.345703125 485.422851562 c 4
EndSplineSet
Validated: 524321
EndChar

StartChar: P
Encoding: 80 80 36
Width: 335
Flags: W
LayerCount: 2
Fore
SplineSet
317.500976562 679.857421875 m 0
 321.124023438 668.005859375 323.4609375 655.83203125 321.669921875 645.251953125 c 0
 319.939453125 607.717773438 309.2578125 574.71875 293.533203125 543.11328125 c 0
 272.48046875 500.796875 252.239257812 458.051757812 230.108398438 416.30859375 c 0
 218.317382812 394.067382812 204.84375 372.65625 192.67578125 350.543945312 c 0
 183.354492188 333.606445312 173.326171875 317.055664062 163.419921875 300.447265625 c 0
 158.385742188 292.006835938 158.807617188 282.7109375 159.516601562 273.733398438 c 0
 162.477539062 236.275390625 163.814453125 198.713867188 167.830078125 161.30859375 c 0
 169.942382812 141.635742188 169.153320312 121.575195312 170.2421875 101.80078125 c 0
 171.543945312 78.16796875 173.196289062 54.578125 171.857421875 30.9765625 c 0
 169.849609375 -4.427734375 167.15625 -1.4365234375 134.861328125 1.861328125 c 0
 130.139648438 2.34375 125.569335938 3.6806640625 120.653320312 3.87890625 c 0
 108.234375 4.376953125 95.455078125 5.3017578125 93.8671875 22.1083984375 c 1
 77.9287109375 39.751953125 82.087890625 62.5751953125 78.0439453125 83.2958984375 c 0
 72.177734375 113.354492188 66.197265625 143.494140625 63.9033203125 173.984375 c 0
 61.48046875 206.1875 54.8818359375 237.720703125 50.873046875 269.646484375 c 0
 48.41796875 289.206054688 47.0654296875 309.1953125 41.505859375 328.375976562 c 0
 40.615234375 331.448242188 40.08203125 334.716796875 39.99609375 337.911132812 c 0
 39.5234375 355.130859375 37.7880859375 372.142578125 33.22265625 388.829101562 c 0
 29.375 402.895507812 28.6875 417.313476562 28.080078125 431.853515625 c 0
 27.482421875 446.1484375 21.03125 459.591796875 20.0751953125 474.006835938 c 0
 19.828125 477.7265625 17.9423828125 481.391601562 17.9931640625 485.065429688 c 0
 18.5400390625 524.182617188 10.30078125 562.826171875 12.623046875 602.17578125 c 0
 13.4931640625 616.907226562 10.6201171875 632.32421875 12.8974609375 647.020507812 c 0
 16.8076171875 672.262695312 15.4921875 698.524414062 27.5556640625 722.358398438 c 0
 36.8583984375 740.743164062 48.2294921875 746.420898438 68.1376953125 740.546875 c 0
 78.0546875 737.620117188 87.7158203125 733.452148438 95.0732421875 726.436523438 c 0
 101.856445312 719.969726562 107.483398438 720.037109375 115.096679688 723.985351562 c 0
 139.276367188 736.522460938 165.353515625 742.642578125 192.22265625 746.012695312 c 0
 210.118164062 748.2578125 227.766601562 747.583984375 244.7109375 741.227539062 c 0
 254.31640625 737.623046875 264.653320312 737.680664062 274.159179688 733.206054688 c 0
 297.388671875 722.270507812 310.306640625 703.405273438 317.500976562 679.857421875 c 0
152.46875 393.044921875 m 0
 153.140625 382.80859375 153.806640625 372.774414062 157.6171875 361.965820312 c 1
 162.309570312 364.749023438 163.189453125 368.595703125 164.844726562 371.838867188 c 0
 181.680664062 404.795898438 198.581054688 437.72265625 215.176757812 470.799804688 c 0
 231.7890625 503.909179688 247.314453125 537.529296875 258.521484375 572.9140625 c 0
 270.079101562 609.400390625 274.05859375 646.396484375 263.005859375 683.810546875 c 0
 254.974609375 710.998046875 232.647460938 724.908203125 204.93359375 719.87890625 c 0
 175.740234375 714.58203125 147.860351562 704.90234375 120.765625 692.965820312 c 0
 111.302734375 688.797851562 109.66015625 685.37109375 112.145507812 675.227539062 c 0
 113.9296875 667.944335938 116.404296875 660.873046875 117.609375 653.392578125 c 0
 123.026367188 619.793945312 128.911132812 586.26953125 134.309570312 552.66796875 c 0
 138.895507812 524.12109375 143.952148438 495.646484375 146.029296875 466.728515625 c 0
 147.794921875 442.139648438 150.857421875 417.640625 152.46875 393.044921875 c 0
EndSplineSet
Validated: 524321
EndChar

StartChar: Q
Encoding: 81 81 37
Width: 419
Flags: W
LayerCount: 2
Fore
SplineSet
120.407226562 595.376953125 m 0
 130.802734375 607.25390625 143.375 612.534179688 162.618164062 612.03125 c 1
 159.864257812 612.03125 160.942382812 612.079101562 162.013671875 612.025390625 c 0
 186.499023438 610.797851562 194.455078125 601.241210938 191.096679688 576.69140625 c 0
 189.204101562 562.859375 187.087890625 549.052734375 184.768554688 535.286132812 c 0
 183.46875 527.5703125 184.393554688 520.443359375 187.756835938 513.348632812 c 0
 191.668945312 505.095703125 194.78515625 496.466796875 198.657226562 488.193359375 c 0
 210.284179688 463.353515625 218.227539062 436.858398438 229.649414062 412.237304688 c 0
 239.130859375 391.797851562 246.161132812 370.481445312 254.358398438 349.79296875 c 0
 264.755859375 323.553710938 272.353515625 295.778320312 277.32421875 267.651367188 c 0
 279.754882812 253.896484375 281.811523438 240.076171875 283.956054688 226.272460938 c 0
 287.333007812 204.5390625 287.01953125 182.61328125 287.416015625 160.713867188 c 0
 287.737304688 142.90625 288.323242188 142.359375 305.311523438 137.270507812 c 0
 324.358398438 131.565429688 343.11328125 124.943359375 362.635742188 120.754882812 c 0
 375.375 118.020507812 386.361328125 110.775390625 397.298828125 103.930664062 c 0
 399.922851562 102.287109375 402.2421875 99.66015625 403.846679688 96.9736328125 c 0
 409.348632812 87.7646484375 405.4140625 79.6962890625 394.677734375 78.5888671875 c 0
 382.609375 77.3447265625 371.212890625 80.8994140625 360.095703125 85.0517578125 c 0
 339.986328125 92.564453125 318.825195312 96.60546875 298.729492188 104.33203125 c 0
 286.669921875 108.96875 281.407226562 105.453125 280.1796875 92.7177734375 c 0
 278.040039062 70.490234375 268.928710938 50.9462890625 256.124023438 33.779296875 c 0
 237.159179688 8.3525390625 210.361328125 -2.4736328125 178.622070312 0.470703125 c 0
 144.125 3.669921875 113.157226562 17.2587890625 84.22265625 35.3046875 c 0
 71.9072265625 42.9873046875 60.6025390625 51.810546875 59.2568359375 69.568359375 c 0
 58.6171875 78.0087890625 50.095703125 86.2021484375 44.2314453125 93.802734375 c 0
 37.2734375 102.822265625 32.1748046875 112.040039062 29.03125 123.397460938 c 0
 23.298828125 144.115234375 18.0810546875 164.921875 14.9677734375 186.092773438 c 0
 11.8525390625 207.27734375 11.7021484375 228.719726562 12.244140625 250.241210938 c 0
 12.837890625 273.924804688 14.5048828125 297.408203125 17.177734375 320.927734375 c 0
 23.224609375 374.114257812 36.76953125 425.271484375 57.1767578125 474.669921875 c 0
 66.201171875 496.512695312 74.3134765625 518.837890625 84.951171875 539.87890625 c 0
 94.837890625 559.415039062 105.736328125 578.614257812 120.407226562 595.376953125 c 0
191.751953125 404.555664062 m 0
 186.762695312 423.087890625 179.192382812 440.919921875 172.762695312 459.0625 c 1
 166.461914062 453.283203125 165.412109375 447.129882812 164.564453125 440.796875 c 0
 159.377929688 402.018554688 152.115234375 363.526367188 149.45703125 324.399414062 c 0
 147.569335938 296.616210938 145.571289062 268.909179688 145.615234375 240.987304688 c 0
 145.643554688 223.6796875 149.32421875 206.854492188 149.481445312 189.803710938 c 0
 149.794921875 155.692382812 155.611328125 122.681640625 165.770507812 90.275390625 c 0
 167.416015625 85.02734375 169.984375 80.4111328125 173.94921875 76.609375 c 0
 181.692382812 69.1806640625 189.502929688 70.232421875 192.314453125 80.369140625 c 0
 194.984375 89.9951171875 199.7734375 98.0341796875 205.05859375 106.141601562 c 0
 207.375976562 109.6953125 209.01171875 113.7734375 210.469726562 117.791992188 c 0
 215.01171875 130.319335938 211.995117188 136.530273438 199.3828125 141.577148438 c 0
 189.421875 145.563476562 179.407226562 149.438476562 169.591796875 153.760742188 c 0
 160.17578125 157.90625 155.740234375 165.168945312 158.094726562 172.346679688 c 0
 161.002929688 181.211914062 168.715820312 180.383789062 175.577148438 179.776367188 c 0
 187.359375 178.733398438 199.005859375 176.588867188 210.1640625 172.459960938 c 0
 217.348632812 169.801757812 221.58203125 171.953125 222.805664062 179.624023438 c 0
 223.228515625 182.275390625 224.241210938 184.978515625 224.000976562 187.567382812 c 0
 221.231445312 217.30078125 226.858398438 247.1171875 222.592773438 276.88671875 c 0
 219.474609375 298.645507812 216.361328125 320.296875 211.428710938 341.795898438 c 0
 206.4921875 363.305664062 197.461914062 383.34765625 191.751953125 404.555664062 c 0
EndSplineSet
Validated: 524325
EndChar

StartChar: R
Encoding: 82 82 38
Width: 371
Flags: W
LayerCount: 2
Fore
SplineSet
179.72265625 192.903320312 m 0
 178.473632812 192.041992188 177.229492188 191.176757812 175.98046875 190.311523438 c 0
 184.768554688 171.354492188 181.521484375 150.71875 186.036132812 130.783203125 c 0
 189.369140625 116.0703125 196.743164062 100.154296875 190.67578125 83.765625 c 0
 189.884765625 81.630859375 191.327148438 78.5546875 192.033203125 75.9970703125 c 0
 196.641601562 59.322265625 197.393554688 42.0546875 199.638671875 25.041015625 c 0
 201.2890625 12.5234375 190.029296875 -0.064453125 175.768554688 -0.001953125 c 0
 143.654296875 0.140625 119.859375 10.5029296875 115.765625 50.5107421875 c 0
 115.110351562 56.9111328125 114.918945312 63.5810546875 112.897460938 69.583984375 c 0
 101.353515625 103.86328125 97.642578125 139.791015625 90.4736328125 174.965820312 c 0
 79.2109375 230.224609375 69.7763671875 285.854492188 58.6357421875 341.140625 c 0
 49.1103515625 388.412109375 42.634765625 436.1796875 34.1650390625 483.619140625 c 0
 30.97265625 501.50390625 30.486328125 519.909179688 29.34375 538.112304688 c 0
 28.6513671875 549.130859375 27.6572265625 559.5078125 17.8134765625 566.865234375 c 0
 12.6552734375 570.719726562 11.3310546875 576.5546875 12.29296875 582.836914062 c 0
 12.943359375 587.087890625 12.95703125 591.611328125 14.5009765625 595.521484375 c 0
 23.3271484375 617.880859375 23.958984375 641.623046875 26.779296875 665.001953125 c 0
 26.84375 665.53515625 26.904296875 666.0703125 26.982421875 666.6015625 c 0
 30.650390625 691.642578125 35.8134765625 695.923828125 60.8173828125 692.6328125 c 0
 71.302734375 691.252929688 79.880859375 693.454101562 87.1953125 701.026367188 c 0
 113.040039062 727.77734375 146.526367188 743.245117188 177.658203125 762.184570312 c 0
 181.39453125 764.458007812 185.509765625 765.778320312 189.869140625 765.995117188 c 0
 215.732421875 767.28125 241.541992188 767.108398438 266.584960938 759.473632812 c 0
 296.399414062 750.3828125 316.86328125 722.487304688 320.1640625 691.516601562 c 0
 324.668945312 649.240234375 315.3984375 608.96875 303.568359375 569.346679688 c 0
 295.418945312 542.047851562 290.131835938 514.086914062 281.6796875 486.926757812 c 0
 270.9453125 452.434570312 254.6953125 420.231445312 240.28515625 387.28515625 c 0
 226.498046875 355.767578125 213.061523438 324.127929688 200.859375 291.966796875 c 0
 197.80859375 283.92578125 195.3203125 275.614257812 191.588867188 267.903320312 c 0
 185.943359375 256.239257812 189.547851562 246.626953125 197.881835938 238.756835938 c 0
 207.971679688 229.231445312 217.434570312 219.025390625 229.5703125 211.62109375 c 0
 252.919921875 197.375976562 273.2890625 178.68359375 297.918945312 166.163085938 c 0
 309.428710938 160.3125 320.174804688 153.344726562 333.318359375 151.2421875 c 0
 338.481445312 150.416015625 343.48046875 147.782226562 348.23046875 145.340820312 c 0
 354.780273438 141.975585938 360.111328125 137.518554688 357.299804688 128.8203125 c 0
 354.946289062 121.543945312 348.421875 117.008789062 339.600585938 118.017578125 c 0
 325.194335938 119.666015625 310.561523438 121.045898438 296.986328125 126.423828125 c 0
 274.47265625 135.341796875 252.9609375 146.302734375 232.6484375 159.64453125 c 0
 215.237304688 171.08203125 197.3828125 181.84375 179.72265625 192.903320312 c 0
145.573242188 428.908203125 m 0
 145.512695312 417.430664062 146.852539062 406.059570312 152.643554688 394.995117188 c 1
 161.26171875 417.029296875 173.55078125 437.110351562 178.978515625 459.329101562 c 0
 186.39453125 489.694335938 196.421875 518.993164062 207.36328125 548.146484375 c 0
 213.384765625 564.19140625 218.526367188 580.62109375 223.09375 597.145507812 c 0
 229.518554688 620.3984375 233.291992188 644.366210938 239.59765625 667.575195312 c 0
 243.987304688 683.728515625 240.857421875 698.393554688 238.291015625 713.607421875 c 0
 237.16015625 720.311523438 232.791015625 722.84375 225.518554688 722.857421875 c 0
 206.858398438 722.891601562 191.004882812 714.77734375 175.991210938 705.665039062 c 0
 154.026367188 692.333984375 135.0390625 674.577148438 113.060546875 661.108398438 c 0
 108.083984375 658.057617188 108.30078125 653.270507812 109.256835938 648.225585938 c 0
 112.538085938 630.91796875 112.927734375 613.20703125 118.547851562 596.166992188 c 0
 124.903320312 576.900390625 126.7890625 556.51953125 129.47265625 536.489257812 c 0
 132.951171875 510.517578125 140.895507812 485.116210938 139.7421875 458.515625 c 0
 139.631835938 455.977539062 140.659179688 453.154296875 141.879882812 450.84375 c 0
 145.55859375 443.877929688 145.614257812 436.524414062 145.573242188 428.908203125 c 0
EndSplineSet
Validated: 524321
EndChar

StartChar: S
Encoding: 83 83 39
Width: 338
Flags: W
LayerCount: 2
Fore
SplineSet
228.583984375 746.71484375 m 0
 237.18359375 746.647460938 245.048828125 752.009765625 257.006835938 750.161132812 c 0
 274.658203125 750.091796875 294.405273438 745.603515625 312.715820312 735.55078125 c 0
 315.063476562 734.260742188 317.5859375 733.203125 319.711914062 731.615234375 c 0
 323.212890625 729.000976562 326.728515625 725.794921875 325.830078125 721.017578125 c 0
 324.758789062 715.321289062 319.510742188 715.813476562 315.400390625 715.977539062 c 0
 288.388671875 717.064453125 265.8984375 705.771484375 243.05859375 692.745117188 c 0
 196.006835938 665.90625 161.662109375 626.629882812 131.333007812 583.284179688 c 0
 118.0234375 564.262695312 110.0546875 542.245117188 104.188476562 519.7734375 c 0
 99.69921875 502.57421875 106.875 492.465820312 120.173828125 480.544921875 c 0
 140.98046875 461.89453125 169.174804688 459.05078125 191.05859375 443.147460938 c 0
 233.157226562 412.555664062 266.640625 375.666015625 277.517578125 323.310546875 c 0
 284.602539062 289.208984375 283.016601562 255.275390625 267.078125 222.807617188 c 0
 253.583984375 195.3203125 243.135742188 166.2890625 228.900390625 139.224609375 c 0
 208.918945312 101.234375 192.223632812 61.396484375 167.387695312 26.04296875 c 0
 163.993164062 21.2119140625 160.708984375 16.13671875 156.499023438 12.0859375 c 0
 150.881835938 6.6806640625 146.221679688 -1.1943359375 136.634765625 0.1533203125 c 0
 124.670898438 1.833984375 113.65234375 6.0087890625 105.212890625 15.060546875 c 0
 101.197265625 19.3671875 101.524414062 24.8583984375 102.627929688 30.34375 c 0
 104.905273438 41.6689453125 110.749023438 51.4013671875 116.633789062 60.99609375 c 0
 146.828125 110.23828125 169.397460938 163.052734375 189.529296875 216.950195312 c 0
 198.1953125 240.149414062 205.98046875 264.184570312 204.76171875 289.1328125 c 0
 202.198242188 341.555664062 183.243164062 385.65625 137.005859375 415.452148438 c 0
 112.493164062 431.248046875 87.5771484375 445.755859375 60.0205078125 455.477539062 c 0
 52.7373046875 458.046875 46.8408203125 462.551757812 42.1396484375 468.734375 c 0
 35.3173828125 477.705078125 29.314453125 487.356445312 20.6455078125 494.813476562 c 0
 17.171875 497.801757812 16.142578125 501.998046875 15.177734375 506.232421875 c 0
 8.455078125 535.6953125 12.396484375 563.087890625 27.0498046875 590.0625 c 0
 39.16015625 612.35546875 52.99609375 633.078125 68.365234375 653.143554688 c 0
 85.6591796875 675.721679688 108.553710938 691.392578125 131.088867188 707.663085938 c 0
 147.747070312 719.69140625 166.514648438 728.321289062 185.23828125 735.951171875 c 0
 198.709960938 741.44140625 213.178710938 746.836914062 228.583984375 746.71484375 c 0
EndSplineSet
Validated: 524321
EndChar

StartChar: T
Encoding: 84 84 40
Width: 408
Flags: W
LayerCount: 2
Fore
SplineSet
234.823242188 0.6552734375 m 0
 227.858398438 1.130859375 220.87109375 1.310546875 211.348632812 1.732421875 c 0
 196.459960938 -2.6669921875 178.994140625 5.17578125 161.146484375 0.4912109375 c 0
 148.815429688 -2.7451171875 132.77734375 10.5087890625 127.935546875 26.0625 c 0
 124.29296875 37.7705078125 121.279296875 49.79296875 121.0234375 62.345703125 c 0
 120.564453125 84.8173828125 118.436523438 107.30859375 119.108398438 129.729492188 c 0
 119.638671875 147.413085938 118.49609375 165.05078125 119.280273438 182.775390625 c 0
 120.173828125 203.013671875 119.40234375 223.528320312 121.686523438 243.598632812 c 0
 125.337890625 275.702148438 124.135742188 307.920898438 126.272460938 340.053710938 c 0
 129.083984375 382.344726562 132.178710938 424.610351562 135.08203125 466.893554688 c 0
 137.620117188 503.854492188 139.0859375 540.821289062 147.200195312 577.109375 c 0
 149.3046875 586.518554688 152.583984375 595.676757812 154.42578125 605.125976562 c 0
 155.993164062 613.165039062 153.87890625 615.587890625 145.946289062 613.681640625 c 0
 113.522460938 605.890625 80.646484375 609.379882812 47.931640625 608.880859375 c 0
 40.9296875 608.774414062 33.9638671875 609.09765625 27.22265625 611.43359375 c 0
 19.1728515625 614.225585938 12.4501953125 618.01953125 12.0458984375 627.911132812 c 0
 11.646484375 637.682617188 13.7333984375 646.392578125 23.1015625 651.185546875 c 0
 31.701171875 655.584960938 40.556640625 659.624023438 50.11328125 661.629882812 c 0
 80.6259765625 668.032226562 111.060546875 674.921875 142.551757812 674.48046875 c 0
 148.409179688 674.397460938 154.454101562 674.91015625 160.120117188 676.323242188 c 0
 188.426757812 683.390625 217.293945312 685.587890625 246.272460938 687.1640625 c 0
 251.60546875 687.455078125 256.900390625 688.55859375 262.197265625 689.38671875 c 0
 297.494140625 694.909179688 332.849609375 695.01953125 368.23046875 690.404296875 c 0
 372.4609375 689.852539062 376.70703125 688.749023438 380.7109375 687.267578125 c 0
 389.6328125 683.96484375 394.43359375 677.170898438 395.459960938 667.833007812 c 0
 396.413085938 659.159179688 391.390625 653.91796875 384.669921875 649.544921875 c 0
 369.6640625 639.782226562 352.999023438 639.265625 336.405273438 642.153320312 c 0
 321.188476562 644.802734375 306.817382812 644.682617188 291.993164062 639.759765625 c 0
 282.95703125 636.759765625 272.91796875 636.918945312 263.458007812 635.021484375 c 0
 252.83984375 632.891601562 251.473632812 631.552734375 253.506835938 620.853515625 c 0
 257.735351562 598.600585938 260.380859375 576.227539062 260.553710938 553.612304688 c 0
 260.955078125 501.0625 262.127929688 448.508789062 258.567382812 395.991210938 c 0
 257.73828125 383.751953125 258.23046875 371.385742188 258.02734375 359.084960938 c 0
 257.129882812 304.899414062 254.185546875 250.774414062 254.268554688 196.541992188 c 0
 254.314453125 166.62890625 253.244140625 136.690429688 253.841796875 106.7421875 c 0
 254.314453125 83.0703125 256.205078125 59.5576171875 259.96484375 36.1962890625 c 0
 261.397460938 27.294921875 259.99609375 19.150390625 254.900390625 11.59375 c 0
 250.055664062 4.4091796875 243.905273438 0.0419921875 234.823242188 0.6552734375 c 0
EndSplineSet
Validated: 524321
EndChar

StartChar: U
Encoding: 85 85 41
AltUni2: 0000dc.ffffffff.0 0000db.ffffffff.0 0000da.ffffffff.0 0000d9.ffffffff.0
Width: 400
Flags: W
LayerCount: 2
Fore
SplineSet
216.646484375 90.5966796875 m 0
 217.83984375 87.0908203125 219.140625 83.5517578125 224.610351562 80.15625 c 1
 237.3828125 101.08984375 245.961914062 122.348632812 253.149414062 144.252929688 c 0
 271.256835938 199.430664062 285.302734375 255.755859375 301.09765625 311.586914062 c 0
 318.427734375 372.841796875 329.325195312 435.192382812 339.994140625 497.688476562 c 0
 344.700195312 525.256835938 346.21484375 553.22265625 347.638671875 581.134765625 c 0
 348.580078125 599.60546875 342.958007812 617.29296875 340.329101562 635.338867188 c 0
 338.13671875 650.384765625 344.91015625 656.034179688 359.58203125 651.197265625 c 0
 368.481445312 648.263671875 374.01171875 641.8828125 376.377929688 633.036132812 c 0
 381.65625 613.295898438 386.494140625 593.53125 387.428710938 572.889648438 c 0
 389.60546875 524.790039062 384.721679688 477.247070312 376.168945312 430.100585938 c 0
 367.545898438 382.561523438 358.33984375 335.098632812 347.926757812 287.924804688 c 0
 337.51171875 240.739257812 325.944335938 193.780273438 313.6171875 147.056640625 c 0
 305.818359375 117.497070312 295.48828125 88.611328125 286.704101562 59.30078125 c 0
 281.818359375 43 270.787109375 30.18359375 263.002929688 15.5380859375 c 0
 259.91015625 9.7177734375 253.796875 6.1474609375 247.421875 4.759765625 c 0
 209.576171875 -3.4775390625 172.805664062 -2.265625 138.49609375 18.337890625 c 0
 135.247070312 20.2880859375 131.969726562 22.185546875 129.841796875 25.423828125 c 0
 108.391601562 58.0654296875 86.240234375 89.8662109375 72.3515625 127.287109375 c 0
 55.3125 173.19921875 41.7001953125 219.966796875 30.2734375 267.338867188 c 0
 24.0078125 293.307617188 22.2890625 320.416015625 19.2216796875 347.090820312 c 0
 18.2431640625 355.602539062 17.548828125 364.165039062 16.572265625 372.706054688 c 0
 10.572265625 425.186523438 11.33203125 477.779296875 14.0205078125 530.4375 c 0
 14.9248046875 548.151367188 15.73046875 565.78125 18.986328125 583.254882812 c 0
 20.4658203125 591.192382812 21.71484375 599.150390625 24.544921875 606.756835938 c 0
 31.2998046875 624.90625 48.0927734375 634.05078125 66.94921875 629.919921875 c 0
 75.953125 627.947265625 79.6689453125 621.133789062 83.1953125 613.538085938 c 0
 96.6064453125 584.64453125 104.442382812 553.889648438 113.727539062 523.616210938 c 0
 122.375976562 495.411132812 132.016601562 467.473632812 138.291992188 438.6015625 c 0
 143.651367188 413.943359375 148.125976562 389.09375 153.490234375 364.435546875 c 0
 162.719726562 322.010742188 172.646484375 279.736328125 181.633789062 237.260742188 c 0
 185.072265625 221.012695312 186.311523438 204.368164062 193.244140625 188.865234375 c 0
 195.572265625 183.658203125 195.438476562 177.31640625 196.213867188 171.463867188 c 0
 196.635742188 168.278320312 195.611328125 164.537109375 196.931640625 161.891601562 c 0
 208.157226562 139.375976562 208.669921875 113.95703125 216.646484375 90.5966796875 c 0
EndSplineSet
Validated: 524321
EndChar

StartChar: V
Encoding: 86 86 42
Width: 457
Flags: W
LayerCount: 2
Fore
SplineSet
216.563476562 111.328125 m 0
 216.639648438 100.8203125 218.885742188 90.330078125 220.544921875 76.5244140625 c 1
 228.91796875 91.49609375 233.35546875 104.575195312 237.84375 117.479492188 c 0
 254.973632812 166.740234375 276.241210938 214.385742188 294.333007812 263.247070312 c 0
 312.993164062 313.645507812 334.01171875 363.087890625 353.344726562 413.198242188 c 0
 368.614257812 452.779296875 382.837890625 492.771484375 399.284179688 531.891601562 c 0
 405.100585938 545.729492188 412.165039062 559.043945312 418.723632812 572.568359375 c 0
 419.65625 574.490234375 420.868164062 576.294921875 422.09375 578.051757812 c 0
 425.99609375 583.6484375 431.438476562 585.141601562 437.68359375 583.118164062 c 0
 443.97265625 581.08203125 444.916015625 575.700195312 444.665039062 570.05078125 c 0
 444.206054688 559.690429688 440.583007812 549.9921875 437.143554688 540.462890625 c 0
 411.06640625 468.234375 384.681640625 396.125 357.458984375 324.311523438 c 0
 342.655273438 285.254882812 326.659179688 246.611328125 314.404296875 206.549804688 c 0
 301.359375 163.904296875 284.291992188 122.708007812 266.42578125 81.8212890625 c 0
 256.3125 58.6796875 247.669921875 34.931640625 233.192382812 13.953125 c 0
 223.307617188 -0.3681640625 217.272460938 -1.7802734375 200.530273438 1.4228515625 c 0
 170.455078125 7.1767578125 146.795898438 23.6328125 127.907226562 46.0703125 c 0
 117.4609375 58.48046875 111.658203125 74.8349609375 104.016601562 89.5439453125 c 0
 101.80078125 93.80859375 100.451171875 98.5234375 98.7265625 103.041992188 c 0
 89.7763671875 126.490234375 80.8291015625 149.939453125 71.8955078125 173.392578125 c 0
 71.3232421875 174.895507812 70.46875 176.427734375 70.4091796875 177.971679688 c 0
 69.50390625 201.791992188 58.6474609375 223.659179688 56.0400390625 246.833007812 c 0
 52.6796875 276.70703125 44.2021484375 305.528320312 40.9013671875 335.418945312 c 0
 39.0478515625 352.197265625 32.98046875 368.728515625 30.8779296875 385.782226562 c 0
 27.8017578125 410.728515625 21.923828125 435.14453125 17.4697265625 459.807617188 c 0
 11.0625 495.298828125 9.7890625 531.325195312 16.3271484375 567.2109375 c 0
 19.9833984375 587.2734375 30.63671875 596.491210938 51.2216796875 597.478515625 c 0
 63.1376953125 598.048828125 74.7998046875 597.2734375 86.3076171875 593.825195312 c 0
 97.318359375 590.52734375 106.07421875 583.778320312 110.200195312 573.60546875 c 0
 120.828125 547.396484375 132.791992188 521.344726562 136.6953125 493.125976562 c 0
 138.452148438 480.430664062 139.197265625 467.485351562 143.268554688 455.415039062 c 0
 150.637695312 433.575195312 151.736328125 410.125976562 161.099609375 388.844726562 c 0
 163.02734375 384.461914062 164.668945312 379.635742188 164.987304688 374.916015625 c 0
 167.133789062 343.120117188 179.860351562 313.534179688 184.217773438 282.356445312 c 0
 186.75390625 264.217773438 195.783203125 248.267578125 197.616210938 229.92578125 c 0
 199.368164062 212.413085938 205.853515625 195.416992188 208.262695312 177.91796875 c 0
 211.30859375 155.783203125 216.40234375 133.897460938 216.563476562 111.328125 c 0
EndSplineSet
Validated: 524321
EndChar

StartChar: W
Encoding: 87 87 43
Width: 469
Flags: W
LayerCount: 2
Fore
SplineSet
250.106445312 252.872070312 m 0
 249.506835938 258.057617188 249.930664062 263.647460938 242.9375 271.634765625 c 1
 237.642578125 254.494140625 232.798828125 240.4921875 228.998046875 226.212890625 c 0
 214.490234375 171.692382812 199.176757812 117.427734375 177.907226562 65.0771484375 c 0
 168.721679688 42.46875 151.901367188 34.095703125 128.688476562 41.2578125 c 0
 111.270507812 46.6328125 93.88671875 52.83203125 77.5771484375 60.876953125 c 0
 63.1162109375 68.0107421875 55.662109375 82.78125 49.34765625 96.9306640625 c 0
 41.2705078125 115.024414062 32.12890625 133.334960938 29.87109375 153.017578125 c 0
 27.0947265625 177.208984375 19.3212890625 200.392578125 19.0830078125 225.327148438 c 0
 18.9462890625 239.640625 17.861328125 254.940429688 15.2412109375 269.80078125 c 0
 12.62109375 284.662109375 11.2109375 300.393554688 12.4638671875 316.10546875 c 0
 13.8583984375 333.604492188 13.9072265625 351.389648438 12.4580078125 368.87890625 c 0
 11.193359375 384.134765625 13.5341796875 398.962890625 15.076171875 413.7890625 c 0
 16.470703125 427.196289062 16.0546875 440.400390625 16.29296875 453.731445312 c 0
 16.5400390625 467.5234375 18.65234375 481.419921875 21.3291015625 494.998046875 c 0
 25.7099609375 517.228515625 24.7705078125 539.83203125 27.341796875 562.198242188 c 0
 32.3056640625 605.352539062 34.6943359375 648.850585938 46.982421875 690.859375 c 0
 48.787109375 697.030273438 50.947265625 703.176757812 53.7099609375 708.969726562 c 0
 57.4345703125 716.77734375 61.53515625 724.497070312 72.18359375 724.506835938 c 0
 84.1865234375 724.518554688 92.7236328125 718.766601562 98.3798828125 708.745117188 c 0
 101.5625 703.106445312 102.532226562 696.553710938 103.268554688 690.12109375 c 0
 106.568359375 661.301757812 106.65625 632.389648438 106.639648438 603.413085938 c 0
 106.625976562 579.359375 108.34765625 555.283203125 109.97265625 531.26171875 c 0
 110.452148438 524.190429688 110.81640625 517.430664062 108.866210938 510.559570312 c 0
 108.002929688 507.51953125 107.077148438 504.006835938 107.779296875 501.09375 c 0
 112.630859375 481.000976562 109.012695312 460.547851562 110.693359375 440.529296875 c 0
 112.618164062 417.609375 113.185546875 394.541015625 116.14453125 371.690429688 c 0
 116.901367188 365.849609375 118.140625 359.724609375 117.171875 354.0703125 c 0
 113.926757812 335.1015625 119.55078125 316.705078125 119.731445312 298.077148438 c 0
 119.959960938 274.517578125 122.734375 251.122070312 123.555664062 227.609375 c 0
 124.213867188 208.709960938 125.561523438 189.235351562 129.515625 170.376953125 c 0
 130.90234375 163.764648438 129.424804688 156.422851562 134.583007812 149.063476562 c 1
 143.969726562 160.095703125 149.2578125 172.1796875 153.40234375 184.505859375 c 0
 174.637695312 247.662109375 197.657226562 310.1328125 223.771484375 371.4453125 c 0
 225.032226562 374.408203125 226.26171875 377.411132812 227.84765625 380.201171875 c 0
 236.236328125 394.94921875 240.932617188 396.405273438 256.537109375 389.331054688 c 0
 259.959960938 387.778320312 263.239257812 385.514648438 266.830078125 384.790039062 c 0
 285.958007812 380.926757812 293.795898438 366.420898438 299.064453125 350.161132812 c 0
 304.841796875 332.327148438 308.291992188 313.849609375 312.529296875 295.591796875 c 0
 321.10546875 258.641601562 324.634765625 220.274414062 340.711914062 185.276367188 c 0
 344.056640625 177.993164062 341.532226562 170.4140625 343.778320312 163.150390625 c 0
 354.715820312 127.802734375 365.53515625 92.419921875 378.5078125 57.74609375 c 0
 379.235351562 55.80078125 379.98828125 53.71875 383.72265625 53.2021484375 c 0
 389.420898438 65.814453125 389.76953125 79.890625 390.673828125 93.3291015625 c 0
 392.838867188 125.455078125 395.34765625 157.563476562 396.25 189.810546875 c 0
 396.817382812 210.057617188 399.143554688 230.44140625 400.193359375 250.772460938 c 0
 402.348632812 292.56640625 403.78125 334.397460938 405.357421875 376.217773438 c 0
 406.955078125 418.607421875 408.2109375 461.006835938 410.025390625 503.39453125 c 0
 411.747070312 543.615234375 412.576171875 583.904296875 414.787109375 624.106445312 c 0
 416.3515625 652.53515625 417.82421875 680.939453125 418.303710938 709.408203125 c 0
 418.415039062 716.071289062 417.231445312 724.255859375 426.618164062 726.443359375 c 0
 434.236328125 728.217773438 444.747070312 721.038085938 446.712890625 711.573242188 c 0
 449.318359375 699.022460938 452.828125 686.65234375 453.750976562 673.700195312 c 0
 457.915039062 615.249023438 456.961914062 556.80078125 454.87109375 498.310546875 c 0
 454.375 484.415039062 456.916015625 470.405273438 456.333984375 456.520507812 c 0
 453.8828125 398.083007812 456.051757812 339.51953125 452.78125 281.177734375 c 0
 450.5546875 241.485351562 453.33984375 201.780273438 450.067382812 162.2265625 c 0
 447.544921875 131.73828125 448.615234375 101.084960938 445.797851562 70.7177734375 c 0
 444.184570312 53.33203125 441.374023438 35.5498046875 432.87109375 19.4404296875 c 0
 424.875976562 4.29296875 409.470703125 -3.11328125 392.736328125 1.228515625 c 0
 350.258789062 12.2509765625 321.723632812 38.4921875 304.50390625 78.8876953125 c 0
 297.157226562 96.123046875 289.271484375 113.227539062 283.240234375 130.887695312 c 0
 277.163085938 148.681640625 267.024414062 165.321289062 263.911132812 183.63671875 c 0
 259.959960938 206.881835938 252.828125 229.432617188 250.106445312 252.872070312 c 0
EndSplineSet
Validated: 524321
EndChar

StartChar: X
Encoding: 88 88 44
Width: 407
Flags: W
LayerCount: 2
Fore
SplineSet
193.797851562 179.328125 m 0
 193.22265625 180.604492188 191.51953125 181.373046875 190.298828125 182.41796875 c 0
 183.783203125 179.392578125 183.420898438 172.934570312 181.377929688 167.639648438 c 0
 165.517578125 126.549804688 149.821289062 85.396484375 133.979492188 44.298828125 c 0
 128.21484375 29.345703125 118.244140625 18.8466796875 102.04296875 15.296875 c 0
 97.2080078125 14.2373046875 92.46484375 14.205078125 87.8515625 16.3564453125 c 0
 79.921875 20.0537109375 77.62109375 25.359375 81.3369140625 33.2177734375 c 0
 102.055664062 77.0205078125 114.100585938 123.889648438 129.686523438 169.505859375 c 0
 136.283203125 188.814453125 142.487304688 208.26171875 149.323242188 227.484375 c 0
 153.819335938 240.12890625 155.78125 252.2109375 148.026367188 264.458984375 c 0
 144.903320312 269.391601562 143.950195312 275.754882812 140.624023438 280.495117188 c 0
 130.956054688 294.278320312 124.3203125 309.328125 118.975585938 325.193359375 c 0
 114.86328125 337.399414062 106.245117188 347.434570312 101.571289062 359.537109375 c 0
 89.052734375 391.950195312 72.267578125 422.44921875 60.212890625 455.233398438 c 0
 51.396484375 479.209960938 41.6201171875 503.159179688 30.4658203125 526.420898438 c 0
 20.9228515625 546.326171875 17.248046875 568.302734375 13.857421875 590.145507812 c 0
 9.5830078125 617.702148438 13.3720703125 644.71875 18.255859375 671.73046875 c 0
 19.0546875 676.150390625 20.0888671875 680.538085938 25.5400390625 680.88671875 c 0
 30.935546875 681.23046875 34.8525390625 678.728515625 36.41015625 673.275390625 c 0
 43.83984375 647.2578125 60.2314453125 625.4453125 70.4482421875 600.787109375 c 0
 79.068359375 579.986328125 90.873046875 560.770507812 98.53125 539.41796875 c 0
 104.8203125 521.884765625 114.69140625 505.668945312 120.506835938 487.748046875 c 0
 130.611328125 456.60546875 148.75 428.811523438 158.560546875 397.578125 c 0
 160.759765625 390.578125 165.5234375 385.604492188 168.618164062 379.452148438 c 0
 174.380859375 367.989257812 180.743164062 356.775390625 183.274414062 344.48046875 c 1
 188.9453125 343.510742188 189.563476562 347.177734375 190.576171875 350.020507812 c 0
 200.310546875 377.34375 209.41796875 404.903320312 219.752929688 431.994140625 c 0
 236.212890625 475.138671875 253.233398438 518.077148438 270.572265625 560.875976562 c 0
 274.78125 571.263671875 280.5234375 581.190429688 286.704101562 590.576171875 c 0
 294.384765625 602.240234375 304.20703125 611.046875 320.060546875 608.15234375 c 0
 332.77734375 605.831054688 335.987304688 601.59375 331.98046875 589.375 c 0
 326.790039062 573.549804688 321.303710938 557.797851562 315.229492188 542.294921875 c 0
 288.568359375 474.248046875 264.729492188 405.190429688 240.602539062 336.227539062 c 0
 235.827148438 322.576171875 229.41796875 309.487304688 223.576171875 296.220703125 c 0
 216.998046875 281.279296875 218.7421875 268.396484375 227.74609375 253.9609375 c 0
 241.282226562 232.26171875 251.427734375 208.494140625 262.307617188 185.234375 c 0
 271.814453125 164.911132812 281.135742188 144.471679688 294.712890625 126.158203125 c 0
 302.30859375 115.911132812 307.978515625 104.118164062 315.858398438 93.9169921875 c 0
 330.498046875 74.96484375 341.763671875 53.45703125 360.181640625 37.3154296875 c 0
 366.255859375 31.9931640625 373.182617188 30.146484375 380.1484375 27.564453125 c 0
 391.7734375 23.255859375 395.30859375 19.416015625 393.8359375 12.6767578125 c 0
 392.219726562 5.2802734375 385.204101562 -0.23046875 375.407226562 0.0048828125 c 0
 356.583984375 0.45703125 337.786132812 1.7978515625 319.95703125 8.7841796875 c 0
 307.185546875 13.7880859375 295.966796875 21.0693359375 288.177734375 32.57421875 c 0
 283.913085938 38.873046875 279.124023438 44.4833984375 273.4375 49.5234375 c 0
 270.270507812 52.328125 267.001953125 55.658203125 265.361328125 59.4404296875 c 0
 256.3125 80.2919921875 240.856445312 97.287109375 230.505859375 117.090820312 c 0
 219.298828125 138.533203125 203.704101562 157.232421875 193.797851562 179.328125 c 0
EndSplineSet
Validated: 524321
EndChar

StartChar: Y
Encoding: 89 89 45
AltUni2: 0000dd.ffffffff.0
Width: 387
Flags: W
LayerCount: 2
Fore
SplineSet
303.69140625 503.232421875 m 0
 305.358398438 516.309570312 308.884765625 529.083007812 306.69921875 542.73046875 c 1
 294.799804688 530.122070312 286.787109375 515.451171875 279.19921875 500.90625 c 0
 262.780273438 469.428710938 242.551757812 440.243164062 225.768554688 409.018554688 c 0
 218.918945312 396.274414062 212.161132812 383.2734375 203.578125 371.71484375 c 0
 187.922851562 350.627929688 171.329101562 330.211914062 148.40234375 316.09375 c 0
 139.631835938 310.69140625 129.821289062 309.567382812 120.459960938 309.833007812 c 0
 102.815429688 310.33203125 84.9609375 310.296875 67.6728515625 315.185546875 c 0
 48.548828125 320.594726562 35.6455078125 332.014648438 31.3203125 351.98046875 c 0
 30.8662109375 354.071289062 30.7412109375 356.326171875 29.8505859375 358.215820312 c 0
 8.8974609375 402.709960938 11.2998046875 450.0546875 13.2041015625 497.219726562 c 0
 13.984375 516.5390625 17.4345703125 535.588867188 21.8544921875 554.504882812 c 0
 24.8134765625 567.1640625 32.6875 572.76953125 44.3916015625 573.685546875 c 0
 52.900390625 574.350585938 61.599609375 573.934570312 70.09765625 572.97265625 c 0
 79.095703125 571.955078125 83.13671875 566.734375 85.3779296875 556.739257812 c 0
 91.9814453125 527.290039062 93.8134765625 497.247070312 95.8671875 467.310546875 c 0
 98.001953125 436.188476562 103.889648438 405.545898438 106.213867188 374.4609375 c 0
 107.252929688 360.565429688 113.931640625 358.158203125 125.673828125 366.5546875 c 0
 146.751953125 381.625976562 164.444335938 400.384765625 181.682617188 419.53125 c 0
 202.9296875 443.127929688 220.041015625 469.849609375 238.877929688 495.28515625 c 0
 266.0625 531.995117188 290.302734375 570.443359375 313.66796875 609.55078125 c 0
 315.983398438 613.427734375 318.873046875 616.373046875 323.061523438 617.930664062 c 0
 337.67578125 623.36328125 358.953125 614.018554688 364.118164062 599.168945312 c 0
 367.099609375 590.6015625 369.580078125 581.565429688 370.357421875 572.573242188 c 0
 376.013671875 507.018554688 377.091796875 441.440429688 361.337890625 377.040039062 c 0
 349.772460938 329.754882812 337.693359375 282.508789062 317.688476562 237.711914062 c 0
 306.098632812 211.758789062 296.8671875 184.758789062 285.494140625 158.700195312 c 0
 277.78125 141.030273438 270.456054688 123.118164062 261.889648438 105.89453125 c 0
 254.0546875 90.1435546875 243.67578125 75.6357421875 234.104492188 60.7822265625 c 0
 229.174804688 53.1337890625 223.241210938 46.1318359375 218.328125 38.474609375 c 0
 208.712890625 23.486328125 195.017578125 13.5625 179.54296875 5.505859375 c 0
 170.115234375 0.5986328125 160.53515625 -1.3486328125 149.9765625 0.96875 c 0
 142.118164062 2.693359375 134.073242188 3.55859375 126.1171875 4.83984375 c 0
 107.03125 7.916015625 94.8818359375 26.84765625 99.9384765625 45.6044921875 c 0
 102.583984375 55.421875 108.177734375 59.7744140625 118.561523438 59.97265625 c 0
 125.088867188 60.0966796875 131.501953125 58.9384765625 137.5390625 56.6787109375 c 0
 144.965820312 53.8994140625 149.19140625 56.8486328125 153.8828125 62.55859375 c 0
 165.01171875 76.1064453125 170.965820312 92.4189453125 178.690429688 107.673828125 c 0
 189.341796875 128.709960938 201.169921875 149.169921875 209.926757812 171.208984375 c 0
 222.81640625 203.649414062 234.194335938 236.620117188 246.1328125 269.399414062 c 0
 256.591796875 298.115234375 265.733398438 327.236328125 274.185546875 356.581054688 c 0
 277.74609375 368.944335938 281.030273438 381.422851562 283.640625 394.014648438 c 0
 291.158203125 430.2578125 299.006835938 466.41796875 303.69140625 503.232421875 c 0
EndSplineSet
Validated: 524321
EndChar

StartChar: Z
Encoding: 90 90 46
Width: 388
Flags: W
LayerCount: 2
Fore
SplineSet
207.669921875 651.53125 m 0
 215.602539062 653.765625 223.368164062 654.864257812 231.422851562 653.442382812 c 0
 259.26171875 660.315429688 286.00390625 650.987304688 312.954101562 647.6015625 c 0
 337.153320312 644.5625 358.8984375 631.478515625 368.584960938 608.66015625 c 0
 376.147460938 590.845703125 377.513671875 569.905273438 370.557617188 550.33203125 c 0
 368.370117188 544.178710938 366.770507812 538.092773438 365.9609375 531.676757812 c 0
 365.150390625 525.237304688 363.609375 518.999023438 359.865234375 513.499023438 c 0
 354.671875 505.869140625 350.568359375 497.8046875 349.534179688 488.413085938 c 0
 349.307617188 486.3515625 348.446289062 484.170898438 347.299804688 482.423828125 c 0
 330.440429688 456.771484375 320.872070312 427.24609375 304.709960938 401.337890625 c 0
 289.372070312 376.751953125 276.930664062 350.62890625 262.192382812 325.733398438 c 0
 244.412109375 295.696289062 224.416015625 267.1171875 206.092773438 237.552734375 c 0
 190.30859375 212.083007812 174.690429688 186.390625 157.8515625 161.676757812 c 0
 138.993164062 134 124.09375 104.537109375 110.266601562 74.310546875 c 0
 105.359375 63.5810546875 97.63671875 54.5107421875 93.0419921875 43.4580078125 c 0
 87.2880859375 29.615234375 86.62109375 29.751953125 98.408203125 21.478515625 c 0
 100.16015625 20.2490234375 102.189453125 19.287109375 103.631835938 17.7685546875 c 0
 108.66015625 12.4736328125 107.698242188 6.53125 101.043945312 3.4482421875 c 0
 94.6005859375 0.4638671875 87.5751953125 -0.517578125 80.5341796875 0.2490234375 c 0
 61.1845703125 2.3564453125 42.552734375 7.0166015625 24.716796875 15.1611328125 c 0
 14.8662109375 19.6591796875 11.236328125 26.5341796875 12.1318359375 36.89453125 c 0
 12.8798828125 45.5517578125 14.3818359375 54.212890625 17.6943359375 62.009765625 c 0
 32.2431640625 96.2568359375 40.013671875 132.590820312 50.974609375 167.927734375 c 0
 55.2529296875 181.721679688 55.9873046875 196.451171875 60.9560546875 210.22265625 c 0
 68.4169921875 230.901367188 73.5595703125 252.612304688 82.8701171875 272.384765625 c 0
 97.814453125 304.12109375 109.296875 337.966796875 133.286132812 364.86328125 c 0
 135.030273438 366.818359375 136.83984375 369.361328125 137.172851562 371.826171875 c 0
 139.669921875 390.275390625 153.715820312 402.837890625 160.985351562 418.862304688 c 0
 164 425.508789062 170 430.798828125 174.634765625 436.709960938 c 0
 176.940429688 439.6484375 179.963867188 442.279296875 181.415039062 445.59765625 c 0
 198.219726562 484.032226562 222.173828125 518.546875 241.408203125 555.634765625 c 0
 245.848632812 564.19921875 250.739257812 572.639648438 252.721679688 582.228515625 c 0
 254.724609375 591.923828125 253.118164062 593.947265625 243.37890625 593.874023438 c 0
 228.666015625 593.763671875 214.986328125 588.212890625 200.8046875 585.307617188 c 0
 172.42578125 579.494140625 144.107421875 573.462890625 115.950195312 566.516601562 c 0
 98.3818359375 562.182617188 79.865234375 561.27734375 61.681640625 566.064453125 c 0
 45.2216796875 570.3984375 42.46875 577.469726562 52.41796875 591.250976562 c 0
 55.58203125 595.633789062 58.923828125 600.051757812 63.703125 602.618164062 c 0
 85.4091796875 614.275390625 106.434570312 626.85546875 131.45703125 631.663085938 c 0
 157.188476562 636.606445312 182.395507812 644.407226562 207.669921875 651.53125 c 0
EndSplineSet
Validated: 524321
EndChar

StartChar: asciicircum
Encoding: 94 94 47
Width: 245
Flags: W
LayerCount: 2
Fore
SplineSet
217.056640625 505.481445312 m 0
 225.912109375 485.265625 230.9609375 462.665039062 232.137695312 444.411132812 c 0
 231.96484375 421.520507812 226.879882812 413.504882812 209.198242188 407.400390625 c 0
 180.260742188 397.411132812 150.3359375 391.133789062 120.254882812 385.731445312 c 0
 99.1328125 381.9375 77.916015625 378.6875 56.7470703125 375.159179688 c 0
 50.7646484375 374.162109375 45.5654296875 371.639648438 41.2490234375 367.243164062 c 0
 38.625 364.5703125 35.9794921875 361.73828125 32.8427734375 359.78125 c 0
 22.796875 353.515625 13.125 358.205078125 12.2529296875 370.07421875 c 0
 11.220703125 384.133789062 13.3896484375 398.12890625 17.591796875 411.408203125 c 0
 37.818359375 475.3515625 54.146484375 540.57421875 78.84375 603.044921875 c 0
 96.33984375 647.310546875 110.471679688 644.935546875 150.318359375 630.98828125 c 0
 163.280273438 626.451171875 175.6640625 616.405273438 178.377929688 600.0859375 c 0
 178.552734375 599.038085938 178.747070312 597.846679688 179.354492188 597.041015625 c 0
 199.890625 569.876953125 203.797851562 535.747070312 217.056640625 505.481445312 c 0
135.112304688 559.528320312 m 0
 133.13671875 563.709960938 131.9921875 568.793945312 127.06640625 571.573242188 c 1
 122.081054688 568.399414062 121.64453125 562.786132812 119.599609375 558.017578125 c 0
 107.120117188 528.928710938 98.642578125 498.328125 84.97265625 469.619140625 c 0
 75.7802734375 450.311523438 69.2744140625 429.694335938 62.0810546875 409.478515625 c 0
 57.6376953125 396.98828125 59.12109375 396.048828125 72.755859375 397.374023438 c 0
 88.3369140625 398.888671875 103.216796875 403.573242188 118.446289062 406.620117188 c 0
 136.323242188 410.197265625 154.00390625 414.918945312 171.560546875 419.87890625 c 0
 188.715820312 424.725585938 191.55859375 431.072265625 185.782226562 448.418945312 c 0
 184.595703125 451.982421875 183.53125 455.620117188 181.959960938 459.015625 c 0
 166.439453125 492.563476562 150.918945312 526.114257812 135.112304688 559.528320312 c 0
EndSplineSet
Validated: 524321
EndChar

StartChar: a
Encoding: 97 97 48
AltUni2: 0000e5.ffffffff.0 0000e4.ffffffff.0 0000e3.ffffffff.0 0000e2.ffffffff.0 0000e1.ffffffff.0 0000e0.ffffffff.0
Width: 390
Flags: W
LayerCount: 2
Fore
SplineSet
368.189453125 486.951171875 m 0
 371.759765625 466.724609375 369.755859375 446.211914062 371.560546875 425.938476562 c 0
 374.842773438 392.62109375 370.625976562 359.420898438 370.333007812 326.157226562 c 0
 370.272460938 319.221679688 369.303710938 312.135742188 375.094726562 306.501953125 c 0
 378.401367188 303.284179688 377.646484375 299.583984375 374.802734375 296.450195312 c 0
 371.36328125 292.661132812 370.059570312 288.326171875 369.680664062 283.278320312 c 0
 366.1328125 236.055664062 366.345703125 188.9375 372.135742188 141.853515625 c 0
 373.506835938 130.706054688 373.084960938 119.31640625 373.12890625 108.037109375 c 0
 373.145507812 103.498046875 371.484375 99.39453125 366.012695312 98.908203125 c 0
 361.145507812 98.4765625 357.69921875 100.880859375 355.9296875 105.298828125 c 0
 354.946289062 107.754882812 354.3671875 110.450195312 354.059570312 113.090820312 c 0
 350.579101562 142.958007812 346.997070312 172.815429688 343.8515625 202.71875 c 0
 342.375 216.760742188 337.86328125 229.971679688 334.004882812 243.369140625 c 0
 331.181640625 253.173828125 327.69140625 262.786132812 324.556640625 272.501953125 c 0
 320.654296875 284.592773438 319.885742188 285.165039062 307.381835938 283.071289062 c 0
 273.981445312 277.479492188 241.215820312 268.998046875 208.288085938 261.254882812 c 0
 194.182617188 257.938476562 180.057617188 254.65625 165.833984375 251.918945312 c 0
 153.627929688 249.571289062 146.369140625 244.032226562 142.98828125 230.858398438 c 0
 134.040039062 195.987304688 126.655273438 160.7265625 117.752929688 125.922851562 c 0
 103.083984375 68.5849609375 95.705078125 9.80859375 80.7431640625 -47.38671875 c 0
 78.80859375 -54.783203125 76.20703125 -61.541015625 71.3369140625 -67.6083984375 c 0
 62.9658203125 -78.033203125 56.369140625 -80.2880859375 45.1982421875 -74.10546875 c 0
 37.125 -69.6376953125 30.4775390625 -63.39453125 27.892578125 -53.84375 c 0
 23.255859375 -36.7119140625 19.5400390625 -19.4580078125 17.1025390625 -1.8203125 c 0
 8.6572265625 59.2939453125 11.423828125 120.012695312 20.0595703125 180.916992188 c 0
 22.912109375 201.033203125 27.736328125 221.056640625 27.5556640625 241.616210938 c 0
 27.52734375 244.787109375 28.0283203125 248.16796875 29.16796875 251.108398438 c 0
 36.1650390625 269.166015625 37.7734375 288.444335938 42.115234375 307.096679688 c 0
 48.7001953125 335.391601562 58.89453125 362.6484375 66.2470703125 390.677734375 c 0
 72.1044921875 413.006835938 80.734375 434.360351562 87.2451171875 456.454101562 c 0
 92.34765625 473.767578125 98.7451171875 491.141601562 106.547851562 507.555664062 c 0
 120.171875 536.220703125 130.779296875 566.059570312 142.634765625 595.404296875 c 0
 153.255859375 621.694335938 167.655273438 645.87890625 188.39453125 664.637695312 c 0
 208.083984375 682.446289062 231.548828125 692.5 259.565429688 680.611328125 c 0
 274.860351562 674.119140625 290.909179688 669.440429688 305.65234375 661.470703125 c 0
 330.51171875 648.029296875 344.305664062 627.51171875 350.02734375 599.719726562 c 0
 357.721679688 562.349609375 361.561523438 524.439453125 368.189453125 486.951171875 c 0
259.21484375 506.830078125 m 0
 258.331054688 514.046875 255.155273438 521.079101562 249.793945312 527.654296875 c 1
 242.805664062 522.560546875 240.190429688 515.548828125 237.466796875 508.772460938 c 0
 225.076171875 477.947265625 209.283203125 448.387695312 202.698242188 415.384765625 c 0
 202.077148438 412.2734375 200.2890625 409.411132812 199.254882812 406.362304688 c 0
 186.693359375 369.2734375 171.125976562 333.211914062 161.432617188 295.135742188 c 0
 157.506835938 279.715820312 158.118164062 279.404296875 173.133789062 282.32421875 c 0
 196.845703125 286.935546875 220.038085938 293.752929688 244.110351562 297.025390625 c 0
 262.661132812 299.547851562 280.91015625 304.463867188 299.555664062 307.1484375 c 0
 310.833984375 308.771484375 311.858398438 311.354492188 309.739257812 322.573242188 c 0
 308.24609375 330.475585938 305.212890625 337.990234375 302.995117188 345.643554688 c 0
 298.672851562 360.5546875 292.8203125 374.918945312 288.465820312 389.828125 c 0
 282.586914062 409.966796875 279.736328125 430.795898438 273.063476562 450.706054688 c 0
 266.930664062 469.0078125 261.591796875 487.510742188 259.21484375 506.830078125 c 0
EndSplineSet
Validated: 524321
EndChar

StartChar: b
Encoding: 98 98 49
Width: 376
Flags: W
LayerCount: 2
Fore
SplineSet
220.060546875 220.740234375 m 0
 218.672851562 217.928710938 216.599609375 215.159179688 218.311523438 211.637695312 c 0
 225.697265625 211.637695312 233.096679688 211.697265625 240.494140625 211.625976562 c 0
 257.219726562 211.463867188 272.357421875 206.723632812 284.833984375 195.255859375 c 0
 297.9453125 183.204101562 302.16015625 171.249023438 290.9140625 146.907226562 c 0
 285.107421875 134.338867188 276.23046875 123.182617188 268.680664062 111.427734375 c 0
 253.813476562 88.28125 235.401367188 67.9208984375 217.1640625 47.53515625 c 0
 209.69140625 39.1826171875 207.538085938 31.36328125 211.486328125 21.275390625 c 0
 212.852539062 17.78125 213.595703125 14.048828125 214.779296875 10.4765625 c 0
 217.706054688 1.634765625 220.7890625 -7.12890625 211.254882812 -14.2724609375 c 0
 210.139648438 -15.1083984375 209.565429688 -17.0615234375 209.314453125 -18.591796875 c 0
 206.411132812 -36.30078125 193.766601562 -40.2744140625 178.537109375 -40.34765625 c 0
 165.220703125 -40.412109375 152.1484375 -44.033203125 138.522460938 -40.4443359375 c 0
 118.212890625 -35.0927734375 103.788085938 -25.3232421875 99.0712890625 -3.2265625 c 0
 93.7099609375 21.8955078125 86.8271484375 46.63671875 85.490234375 72.53125 c 0
 84.85546875 84.806640625 77.6103515625 95.9580078125 77.5849609375 108.53125 c 0
 77.5439453125 128.715820312 67.61328125 147.006835938 66.2216796875 166.8046875 c 0
 63.802734375 201.18359375 54.6767578125 234.536132812 51.08984375 268.6171875 c 0
 47.763671875 300.219726562 38.0615234375 330.415039062 33.7197265625 361.696289062 c 0
 33.5 363.286132812 32.6025390625 364.845703125 32.646484375 366.399414062 c 0
 33.2763671875 388.064453125 26.58984375 408.512695312 21.9599609375 429.25 c 0
 18.4013671875 445.190429688 20.5517578125 461.313476562 18.9619140625 477.3515625 c 0
 16.265625 504.55078125 13.8837890625 531.828125 12.3095703125 559.176757812 c 0
 10.740234375 586.431640625 15.541015625 612.73046875 19.1708984375 639.299804688 c 0
 20.1123046875 646.188476562 21.7021484375 653.442382812 26.6337890625 658.635742188 c 0
 34.5107421875 666.930664062 43.041015625 674.198242188 56.1845703125 670.397460938 c 0
 63.3720703125 668.318359375 71.0048828125 667.827148438 78.2861328125 666.017578125 c 0
 86.98046875 663.85546875 93.5263671875 658.829101562 98.078125 650.74609375 c 0
 103.786132812 640.60546875 105.180664062 640.153320312 115.34765625 646.7421875 c 0
 129.850585938 656.140625 144.603515625 664.91796875 161.165039062 670.11328125 c 0
 193.490234375 680.25390625 225.711914062 690.51953125 260.524414062 686.508789062 c 0
 279.96875 684.26953125 298.854492188 679.895507812 316.45703125 671.91015625 c 0
 342.181640625 660.241210938 356.306640625 639.650390625 361.358398438 611.357421875 c 0
 367.25 578.358398438 360.59375 546.989257812 351.953125 515.95703125 c 0
 342.005859375 480.232421875 329.063476562 445.442382812 312.9375 411.91796875 c 0
 304.331054688 394.026367188 294.532226562 376.770507812 286.606445312 358.482421875 c 0
 273.578125 328.423828125 259.874023438 298.586914062 244.803710938 269.513671875 c 0
 236.4140625 253.326171875 228.115234375 237.096679688 220.060546875 220.740234375 c 0
173.3203125 260.030273438 m 0
 177.217773438 239.231445312 180.254882812 218.2578125 184.055664062 195.383789062 c 1
 186.188476562 198.658203125 187.495117188 199.834960938 187.774414062 201.219726562 c 0
 194.696289062 235.501953125 205.615234375 268.717773438 215.071289062 302.305664062 c 0
 223.643554688 332.751953125 233.895507812 362.637695312 244.913085938 392.3984375 c 0
 265.224609375 447.262695312 288.400390625 501.106445312 305.755859375 557.03515625 c 0
 312.467773438 578.663085938 315.303710938 600.666992188 310.741210938 623.68359375 c 0
 307.186523438 641.618164062 285.0234375 658.94140625 267.368164062 657.8203125 c 0
 245.939453125 656.4609375 224.526367188 655.987304688 204.754882812 645.576171875 c 0
 194.819335938 640.34375 183.877929688 637.0546875 173.705078125 632.2265625 c 0
 158.66015625 625.0859375 143.905273438 617.356445312 130.251953125 607.69140625 c 0
 124.592773438 603.686523438 120.530273438 599.073242188 122.720703125 591.538085938 c 0
 127.670898438 574.505859375 130.025390625 556.94921875 133.556640625 539.627929688 c 0
 141.0546875 502.838867188 148.666015625 466.078125 154.35546875 428.961914062 c 0
 156.37890625 415.760742188 154.927734375 402.189453125 158.130859375 389.05078125 c 0
 160.954101562 377.474609375 161.11328125 365.641601562 161.170898438 353.80859375 c 0
 161.189453125 350.0703125 160.833984375 346.154296875 161.783203125 342.625 c 0
 169.059570312 315.580078125 168.189453125 287.430664062 173.3203125 260.030273438 c 0
265.70703125 167.581054688 m 0
 269.133789062 183.583984375 261.500976562 193.465820312 245.940429688 193.454101562 c 0
 228.54296875 191.935546875 212.869140625 185.560546875 200.485351562 172.75390625 c 0
 193.297851562 165.318359375 188.171875 156.116210938 189.209960938 145.310546875 c 0
 191.30078125 123.548828125 194.04296875 101.84765625 196.609375 80.1328125 c 0
 196.918945312 77.505859375 197.401367188 74.326171875 200.282226562 73.474609375 c 0
 204.052734375 72.3603515625 205.864257812 75.65625 207.811523438 78.12109375 c 0
 219.731445312 93.2236328125 231.8671875 108.161132812 243.462890625 123.506835938 c 0
 253.506835938 136.797851562 262.157226562 151.005859375 265.70703125 167.581054688 c 0
EndSplineSet
Validated: 524321
EndChar

StartChar: c
Encoding: 99 99 50
AltUni2: 0000e7.ffffffff.0
Width: 363
Flags: W
LayerCount: 2
Fore
SplineSet
147.814453125 341.978515625 m 0
 140.95703125 290.232421875 136.916992188 238.358398438 137.528320312 186.141601562 c 0
 137.841796875 150.768554688 137.583007812 115.35546875 145.189453125 80.4736328125 c 0
 148.270507812 66.33984375 150.95703125 64.9521484375 164.765625 70.9111328125 c 0
 182.950195312 78.759765625 199.760742188 89.4130859375 218.993164062 95.279296875 c 0
 233.482421875 99.69921875 243.064453125 112.98828125 256.540039062 119.909179688 c 0
 273.727539062 128.735351562 290.515625 138.322265625 308.247070312 146.102539062 c 0
 320.828125 151.623046875 332.505859375 149.95703125 343.26953125 142.127929688 c 0
 352.837890625 135.168945312 352.793945312 126.276367188 342.526367188 120.41015625 c 0
 323.276367188 109.415039062 305.961914062 96.0078125 289.522460938 81.2900390625 c 0
 287.172851562 79.1875 284.271484375 77.55859375 281.388671875 76.2197265625 c 0
 269.296875 70.599609375 260.409179688 61.5703125 253.067382812 50.6728515625 c 0
 243.138671875 35.9345703125 232.333007812 21.9375 218.041992188 11.021484375 c 0
 216.350585938 9.7294921875 214.532226562 8.314453125 213.465820312 6.5390625 c 0
 202.978515625 -10.890625 183.76953125 -15.6845703125 167.713867188 -24.9228515625 c 0
 160.981445312 -28.7978515625 152.965820312 -28.4404296875 145.647460938 -26.185546875 c 0
 122.0625 -18.916015625 98.08984375 -12.638671875 75.4794921875 -2.6064453125 c 0
 57.828125 5.224609375 45.3076171875 17.4541015625 37.10546875 36.224609375 c 0
 21.912109375 70.9912109375 16.6083984375 107.15625 15.255859375 144.372070312 c 0
 14.6904296875 159.918945312 15.3349609375 175.434570312 12.9765625 190.994140625 c 0
 10.6484375 206.348632812 13.1552734375 222.028320312 13.515625 237.502929688 c 0
 14.5908203125 283.677734375 18.5166015625 329.69140625 29.9150390625 374.728515625 c 0
 37.021484375 402.80859375 44.9462890625 430.59375 53.857421875 458.201171875 c 0
 60.474609375 478.705078125 71.1435546875 497.479492188 76.7197265625 518.208984375 c 0
 79.203125 527.438476562 86.2490234375 533.698242188 90.9990234375 541.344726562 c 0
 101.65234375 558.48828125 109.905273438 577.88671875 128.513671875 588.91796875 c 0
 130.2890625 589.970703125 131.931640625 591.734375 132.916992188 593.557617188 c 0
 142.072265625 610.470703125 158.572265625 618.711914062 173.515625 629.102539062 c 0
 205.873046875 651.602539062 268.916015625 643.40234375 297.543945312 622.202148438 c 0
 305.630859375 616.212890625 311.65625 607.498046875 315.538085938 597.786132812 c 0
 317.186523438 593.6640625 317.560546875 589.482421875 316.547851562 585.147460938 c 0
 314.255859375 575.323242188 307.21875 571.798828125 298.495117188 576.668945312 c 0
 294.811523438 578.725585938 291.806640625 582 288.495117188 584.720703125 c 0
 273.924804688 596.6875 265.350585938 596.982421875 249.456054688 585.963867188 c 0
 224.825195312 568.887695312 208.9765625 545.046875 196.967773438 518.1484375 c 0
 185.575195312 492.629882812 176.283203125 466.2890625 168.517578125 439.555664062 c 0
 159.239257812 407.614257812 152.204101562 375.092773438 147.814453125 341.978515625 c 0
EndSplineSet
Validated: 524321
EndChar

StartChar: d
Encoding: 100 100 51
Width: 355
Flags: W
LayerCount: 2
Fore
SplineSet
341.752929688 483.990234375 m 0
 342.530273438 477.63671875 341.889648438 471.10546875 341.889648438 464.657226562 c 0
 340.596679688 425.8515625 336.642578125 387.29296875 324.19140625 350.3984375 c 0
 314.424804688 321.4609375 302.661132812 293.161132812 290.922851562 264.935546875 c 0
 279.004882812 236.27734375 267.6796875 207.368164062 255.795898438 178.697265625 c 0
 236.704101562 132.639648438 215.795898438 87.369140625 197.328125 41.0283203125 c 0
 185.44921875 11.21875 169.603515625 -16.9912109375 156.2109375 -46.228515625 c 0
 150.206054688 -59.33984375 139.329101562 -63.0625 127.224609375 -61.6357421875 c 0
 114.016601562 -60.078125 100.71875 -56.9443359375 88.611328125 -50.7216796875 c 0
 76.3125 -44.3984375 72.8623046875 -37.4052734375 77.3349609375 -24.443359375 c 0
 84.3369140625 -4.15234375 91.6904296875 16.0634765625 101.1640625 35.3779296875 c 0
 106.298828125 45.8466796875 108.4609375 55.75 104.572265625 67.70703125 c 0
 97.103515625 90.6708984375 89.3193359375 113.890625 85.6171875 137.620117188 c 0
 81.947265625 161.151367188 74.1884765625 183.298828125 68.185546875 206.006835938 c 0
 64.1123046875 221.416992188 54.40234375 234.7890625 50.41015625 250.637695312 c 0
 43.880859375 276.576171875 35.8193359375 301.815429688 32.5927734375 328.84765625 c 0
 28.78515625 360.733398438 24.55078125 392.71484375 20.3486328125 424.596679688 c 0
 16.8701171875 450.983398438 14.123046875 477.754882812 14.65625 504.596679688 c 0
 14.7412109375 508.859375 14.0576171875 513.150390625 13.55859375 517.408203125 c 0
 10.5263671875 543.178710938 12.373046875 568.827148438 15.24609375 594.474609375 c 0
 18.4638671875 623.19921875 33.677734375 632.809570312 65.0546875 619.427734375 c 0
 76.935546875 614.361328125 86.34765625 613.387695312 98.376953125 615.87109375 c 0
 141.40625 624.75390625 184.474609375 626.60546875 227.583984375 614.818359375 c 0
 246.55078125 609.631835938 263.435546875 600.487304688 280.537109375 591.501953125 c 0
 285.35546875 588.969726562 288.7890625 584.744140625 292.126953125 580.459960938 c 0
 295.748046875 575.813476562 299.057617188 570.540039062 303.67578125 567.122070312 c 0
 319.490234375 555.4140625 327.790039062 538.234375 335.313476562 521.397460938 c 0
 340.321289062 510.192382812 340.2109375 496.595703125 341.752929688 483.990234375 c 0
144.75390625 203.299804688 m 0
 145.229492188 189.087890625 144.002929688 174.580078125 148.568359375 160.815429688 c 0
 149.875 160.665039062 151.181640625 160.512695312 152.490234375 160.362304688 c 0
 155.338867188 167.201171875 158.270507812 174.0078125 161.014648438 180.889648438 c 0
 165.392578125 191.869140625 168.482421875 203.544921875 174.185546875 213.775390625 c 0
 186.602539062 236.046875 192.26171875 260.83203125 201.698242188 284.186523438 c 0
 205.458007812 293.494140625 209.150390625 303.116210938 212.6953125 312.58984375 c 0
 221.802734375 336.938476562 225.248046875 363.516601562 240.646484375 385.479492188 c 0
 242.03125 387.455078125 242.153320312 390.583984375 242.190429688 393.185546875 c 0
 242.290039062 400.34765625 244.814453125 406.853515625 247.008789062 413.489257812 c 0
 254.252929688 435.412109375 261.4765625 457.192382812 262.044921875 480.791015625 c 0
 262.5390625 501.248046875 263.116210938 521.447265625 254.076171875 540.427734375 c 0
 241.59765625 566.625 220.943359375 581.610351562 192.041015625 585.50390625 c 0
 161.90234375 589.561523438 133.309570312 581.491210938 104.5625 574.83984375 c 0
 91.171875 571.7421875 90.80078125 571.109375 93.404296875 557.002929688 c 0
 100.014648438 521.18359375 104.268554688 484.883789062 114.98828125 449.876953125 c 0
 116.711914062 444.25 117.59375 438.33984375 118.538085938 432.505859375 c 0
 121.368164062 415.016601562 123.83984375 397.46484375 126.815429688 380.000976562 c 0
 131.650390625 351.63671875 140.3515625 324.033203125 141.186523438 294.84765625 c 0
 141.721679688 276.153320312 146.284179688 257.641601562 145.513671875 238.734375 c 0
 145.033203125 226.928710938 144.357421875 215.090820312 144.75390625 203.299804688 c 0
EndSplineSet
Validated: 524321
EndChar

StartChar: e
Encoding: 101 101 52
AltUni2: 0000eb.ffffffff.0 0000ea.ffffffff.0 0000e9.ffffffff.0 0000e8.ffffffff.0
Width: 335
Flags: W
LayerCount: 2
Fore
SplineSet
126.328125 672.9765625 m 0
 140.846679688 672.80859375 155.37109375 672.927734375 165.21484375 672.927734375 c 0
 205.938476562 672.091796875 241.852539062 674.803710938 277.7734375 677.245117188 c 0
 288.567382812 677.978515625 299.26171875 676.9140625 309.952148438 676.018554688 c 0
 315.202148438 675.578125 321.970703125 674.9921875 322.568359375 668.364257812 c 0
 323.157226562 661.841796875 316.624023438 659.873046875 311.63671875 658.280273438 c 0
 292.72265625 652.235351562 273.396484375 647.810546875 254.08203125 643.173828125 c 0
 224.995117188 636.190429688 195.26953125 639.293945312 166.094726562 634.447265625 c 0
 146.209960938 631.14453125 135.408203125 620.809570312 130.939453125 602.130859375 c 0
 125.555664062 579.633789062 120.791992188 556.962890625 119.79296875 533.833007812 c 0
 118.01171875 492.55859375 113.887695312 451.442382812 112.30859375 410.123046875 c 0
 111.588867188 391.313476562 112.830078125 372.702148438 112.5625 354.0078125 c 0
 112.345703125 338.900390625 113.854492188 338.702148438 129.8046875 339.904296875 c 0
 144.788085938 341.033203125 159.870117188 341.03515625 174.911132812 341.131835938 c 0
 182.61328125 341.180664062 189.794921875 338.45703125 196.0546875 334.083007812 c 0
 202.262695312 329.74609375 202.513671875 324.8203125 197.138671875 319.43359375 c 0
 188.857421875 311.133789062 178.4296875 306.046875 167.131835938 305.000976562 c 0
 152.586914062 303.653320312 138.829101562 298.744140625 124.293945312 297.462890625 c 0
 112.65234375 296.436523438 110.649414062 293.936523438 110.282226562 281.947265625 c 0
 109.674804688 262.071289062 109.995117188 242.16796875 109.658203125 222.280273438 c 0
 108.923828125 178.822265625 108.018554688 135.366210938 107.204101562 91.908203125 c 0
 107.143554688 88.6845703125 106.979492188 85.4228515625 107.360351562 82.23828125 c 0
 108.296875 74.396484375 110.35546875 73.255859375 118.029296875 76.4921875 c 0
 121.971679688 78.15625 125.828125 80.154296875 129.447265625 82.4384765625 c 0
 164.3828125 104.474609375 199.553710938 126.127929688 234.704101562 147.813476562 c 0
 250.1953125 157.37109375 266.106445312 166.44140625 280.959960938 177.01171875 c 0
 287.528320312 181.685546875 293.3125 183.549804688 299.762695312 178.086914062 c 0
 304.637695312 173.959960938 304.063476562 167.299804688 298.353515625 159.178710938 c 0
 292.341796875 150.625976562 283.758789062 144.546875 275.141601562 139.451171875 c 0
 257.002929688 128.725585938 241.665039062 114.340820312 224.294921875 102.692382812 c 0
 203.809570312 88.9560546875 182.692382812 76.03125 163.18359375 61.0185546875 c 0
 150.03125 50.896484375 135.92578125 42.0751953125 123.345703125 31.1591796875 c 0
 111.895507812 21.2216796875 98.9482421875 15.3359375 83.29296875 20.9736328125 c 0
 81.7841796875 21.5166015625 80.1640625 22.03125 78.587890625 22.05859375 c 0
 53.37109375 22.490234375 42.6787109375 38.00390625 38.9912109375 60.453125 c 0
 34.55078125 87.48828125 29.3515625 114.45703125 26.3955078125 141.665039062 c 0
 21.189453125 189.58203125 16.3203125 237.58984375 13.4404296875 285.686523438 c 0
 11.259765625 322.108398438 11.630859375 358.681640625 14.017578125 395.26171875 c 0
 15.4814453125 417.719726562 17.2744140625 440.170898438 18.765625 462.629882812 c 0
 21.8671875 509.337890625 28.779296875 555.522460938 41.1591796875 600.70703125 c 0
 44.9716796875 614.619140625 49.6123046875 628.732421875 56.5869140625 641.241210938 c 0
 64.9228515625 656.192382812 79.3447265625 665.361328125 95.908203125 669.952148438 c 0
 105.747070312 672.6796875 116.053710938 673.08984375 126.328125 672.9765625 c 0
EndSplineSet
Validated: 4718625
EndChar

StartChar: f
Encoding: 102 102 53
Width: 290
Flags: W
LayerCount: 2
Fore
SplineSet
191.78125 654.098632812 m 0
 191.779296875 653.895507812 191.78125 653.696289062 191.783203125 653.493164062 c 1
 178.890625 653.493164062 165.99609375 653.63671875 153.104492188 653.45703125 c 0
 136.676757812 653.228515625 136.268554688 651.708007812 131.888671875 635.952148438 c 0
 120.37890625 594.5390625 119.64453125 552.28515625 119.59375 509.793945312 c 0
 119.5703125 491.090820312 117.12109375 472.401367188 116.16796875 453.684570312 c 0
 115.459960938 439.794921875 114.795898438 425.931640625 113.446289062 412.067382812 c 0
 112.000976562 397.21875 115.498046875 394.635742188 129.96484375 400.16796875 c 0
 142.622070312 405.0078125 155.640625 408.083984375 168.7890625 410.71484375 c 0
 180.525390625 413.0625 192.4140625 412.91015625 203.766601562 408.564453125 c 0
 213.307617188 404.911132812 214.353515625 398.504882812 206.591796875 391.731445312 c 0
 200.844726562 386.715820312 193.733398438 384.034179688 186.565429688 381.647460938 c 0
 166.18359375 374.85546875 145.751953125 368.201171875 125.430664062 361.235351562 c 0
 111.919921875 356.603515625 109.72265625 353.026367188 109.865234375 338.708007812 c 0
 110.211914062 303.83984375 108.674804688 268.981445312 108.24609375 234.16796875 c 0
 107.743164062 193.420898438 105.248046875 152.688476562 106.159179688 111.928710938 c 0
 106.3671875 102.6484375 104.26953125 93.7880859375 102.825195312 84.7919921875 c 0
 101.653320312 77.4970703125 97.1396484375 73.6171875 89.7685546875 72.7314453125 c 0
 75.669921875 71.0400390625 61.8935546875 72.72265625 48.24609375 76.2255859375 c 0
 42.3330078125 77.7421875 39.90234375 81.9501953125 38.0703125 87.484375 c 0
 33.435546875 101.481445312 32.6572265625 116.038085938 32.3017578125 130.420898438 c 0
 30.78515625 191.609375 26.2041015625 252.630859375 23.32421875 313.733398438 c 0
 21.88671875 344.227539062 20.9755859375 374.837890625 19.69921875 405.362304688 c 0
 18.9208984375 424.005859375 16.30078125 442.705078125 14.8056640625 461.424804688 c 0
 10.6005859375 514.076171875 10.935546875 566.5859375 17.07421875 619.068359375 c 0
 19.3271484375 638.341796875 22.138671875 657.291992188 31.171875 674.931640625 c 0
 41.3271484375 694.765625 55.48828125 706.8984375 79.2626953125 705.818359375 c 0
 93.2509765625 705.18359375 107.237304688 704.615234375 120.98046875 702.231445312 c 0
 163.903320312 694.786132812 207.615234375 693.766601562 250.475585938 685.97265625 c 0
 256.813476562 684.819335938 263.282226562 683.857421875 269.327148438 681.7578125 c 0
 277.991210938 678.75 279.47265625 672.760742188 274.184570312 665.458984375 c 0
 270.484375 660.3515625 265.372070312 657.879882812 259.2265625 656.958984375 c 0
 242.182617188 654.40234375 225.1171875 652.728515625 207.841796875 654.03515625 c 0
 202.517578125 654.438476562 197.135742188 654.098632812 191.78125 654.098632812 c 0
EndSplineSet
Validated: 524321
EndChar

StartChar: g
Encoding: 103 103 54
Width: 359
Flags: W
LayerCount: 2
Fore
SplineSet
135.63671875 504.608398438 m 0
 125.915039062 460.977539062 118.967773438 417.02734375 118.926757812 372.189453125 c 0
 117.620117188 335.716796875 119.538085938 299.264648438 119.607421875 262.799804688 c 0
 119.702148438 212.258789062 127.118164062 162.612304688 136.948242188 113.17578125 c 0
 141.053710938 92.533203125 144.995117188 72.0625 155.770507812 53.60546875 c 0
 163.1171875 41.0224609375 165.671875 40.9580078125 175.60546875 51.0068359375 c 0
 203.201171875 78.921875 214.883789062 114.627929688 224.810546875 151.0703125 c 0
 227.169921875 159.732421875 233.311523438 168.743164062 230.14453125 177.461914062 c 0
 226.719726562 186.8828125 214.774414062 185.841796875 207.072265625 190.37890625 c 0
 197.881835938 195.79296875 191.982421875 205.530273438 181.01953125 208.862304688 c 0
 177.252929688 210.006835938 178.96484375 214.379882812 182.798828125 215.693359375 c 0
 198.517578125 221.078125 214.112304688 226.956054688 230.701171875 229.248046875 c 0
 242.908203125 230.934570312 254.94921875 231.94140625 267.462890625 230.109375 c 0
 284.469726562 227.619140625 301.735351562 232.188476562 318.9453125 230.221679688 c 0
 324.85546875 229.545898438 330.756835938 229.077148438 336.127929688 226.341796875 c 0
 340.263671875 224.236328125 345.970703125 223.52734375 346.22265625 217.298828125 c 0
 346.483398438 210.891601562 343.852539062 205.49609375 338.11328125 202.587890625 c 0
 330.940429688 198.953125 323.446289062 195.904296875 315.483398438 194.2890625 c 0
 312.32421875 193.647460938 309.134765625 193.1484375 305.99609375 192.423828125 c 0
 295.6953125 190.044921875 289.311523438 184.328125 286.626953125 173.44140625 c 0
 280.453125 148.405273438 273.34765625 123.567382812 263.322265625 99.755859375 c 0
 253.716796875 76.939453125 241.916015625 55.3193359375 227.47265625 35.05859375 c 0
 206.047851562 5.0087890625 178.91796875 -0.8994140625 146.999023438 9.763671875 c 0
 118.68359375 19.2236328125 96.30859375 35.9208984375 84.0654296875 63.6533203125 c 0
 74.52734375 85.2578125 60.8251953125 104.857421875 53.87890625 127.67578125 c 0
 47.4951171875 148.645507812 38.3994140625 168.766601562 34.5654296875 190.55078125 c 0
 33.8408203125 194.66796875 31.6142578125 198.547851562 29.9013671875 202.458007812 c 0
 28.595703125 205.439453125 26.4677734375 208.774414062 27.94921875 211.65234375 c 0
 33.7880859375 223 27.5771484375 232.495117188 23.8134765625 242.325195312 c 0
 21.8818359375 247.372070312 20.2666015625 252.384765625 19.3935546875 257.752929688 c 0
 11.9453125 303.51953125 10.65234375 349.712890625 13.181640625 395.762695312 c 0
 14.908203125 427.201171875 15.978515625 458.923828125 25.0595703125 489.80859375 c 0
 30.1689453125 507.182617188 30.8515625 526.010742188 39.26171875 542.426757812 c 0
 48.21875 559.911132812 52.3798828125 579.9921875 67.634765625 594.173828125 c 0
 79.0361328125 604.774414062 89.8623046875 615.99609375 103.5546875 623.759765625 c 0
 119.87890625 633.016601562 138.150390625 632.229492188 155.499023438 630.87890625 c 0
 189.56640625 628.2265625 221.744140625 617.240234375 252.454101562 602.423828125 c 0
 258.611328125 599.454101562 264.2890625 594.829101562 269.1328125 589.924804688 c 0
 285.276367188 573.577148438 304.864257812 560.706054688 318.405273438 541.783203125 c 0
 330.822265625 524.431640625 338.448242188 504.997070312 340.897460938 483.791992188 c 0
 342.194335938 472.561523438 338.686523438 468.686523438 327.654296875 468.772460938 c 0
 311.815429688 468.896484375 298.380859375 473.7265625 289.705078125 488.525390625 c 0
 277.994140625 508.502929688 263.303710938 525.831054688 246.458007812 542.11328125 c 0
 234.71484375 553.463867188 222.852539062 563.455078125 208.874023438 571.560546875 c 0
 189.328125 582.89453125 170.0390625 578.809570312 158.578125 559.280273438 c 0
 148.525390625 542.151367188 140.016601562 524.2578125 135.63671875 504.608398438 c 0
EndSplineSet
Validated: 524321
EndChar

StartChar: h
Encoding: 104 104 55
Width: 368
Flags: W
LayerCount: 2
Fore
SplineSet
23.9501953125 61.9443359375 m 0
 18.6513671875 98.7392578125 17.8984375 135.732421875 17.18359375 172.775390625 c 0
 16.0869140625 227.522460938 14.3583984375 282.266601562 14.11328125 337.017578125 c 0
 13.9453125 374.569335938 11.9140625 412.071289062 12.0087890625 449.591796875 c 0
 12.078125 476.948242188 15.037109375 504.290039062 15.3740234375 531.655273438 c 0
 15.66015625 554.842773438 20.8095703125 577.340820312 23.267578125 600.196289062 c 0
 26.3974609375 629.306640625 37.953125 656.33203125 52.4560546875 681.553710938 c 0
 60.2919921875 695.181640625 73.1865234375 702.883789062 90.353515625 701.145507812 c 0
 100.986328125 700.068359375 111.725585938 701.252929688 122.443359375 699.224609375 c 0
 132.717773438 697.279296875 138.68359375 691.91796875 141.478515625 682.109375 c 0
 144.1328125 672.793945312 147.000976562 663.584960938 146.953125 653.73046875 c 0
 146.795898438 621.498046875 148.376953125 589.235351562 145.021484375 557.0625 c 0
 144.578125 552.802734375 144.534179688 548.46875 144.696289062 544.185546875 c 0
 146.19140625 504.609375 147.0703125 465.116210938 144.952148438 425.443359375 c 0
 143.706054688 402.078125 142.374023438 378.516601562 143.169921875 354.90625 c 0
 143.631835938 341.190429688 141.557617188 327.153320312 141.5546875 313.19921875 c 0
 141.552734375 302.860351562 142.060546875 301.643554688 152.12109375 303.1484375 c 0
 172.311523438 306.166992188 192.431640625 309.720703125 212.501953125 313.478515625 c 0
 228.858398438 316.54296875 245.258789062 319.328125 261.303710938 324.071289062 c 0
 275.818359375 328.361328125 277.844726562 329.55859375 278.62890625 344.569335938 c 0
 279.385742188 359.049804688 278.747070312 373.61328125 279.764648438 388.067382812 c 0
 282.59375 428.215820312 283.048828125 468.48046875 287.7109375 508.5625 c 0
 292.361328125 548.533203125 293.625976562 588.864257812 298.795898438 628.830078125 c 0
 301.279296875 648.034179688 304.071289062 667.168945312 308.604492188 685.995117188 c 0
 311.16796875 696.643554688 317.302734375 701.1875 328.0390625 701.307617188 c 0
 337.760742188 701.416015625 342.717773438 697.64453125 344.354492188 685.18359375 c 0
 349.883789062 643.1171875 354.174804688 600.98828125 355.266601562 558.4375 c 0
 356.162109375 523.513671875 355.991210938 488.650390625 354.315429688 453.848632812 c 0
 352.771484375 421.791015625 351.439453125 389.706054688 348.7109375 357.665039062 c 0
 345.708007812 322.40234375 346.504882812 286.83203125 344.305664062 251.479492188 c 0
 340.936523438 197.32421875 342.411132812 143.034179688 338.856445312 88.9033203125 c 0
 337.44140625 67.3515625 332.234375 61.734375 310.643554688 59.8740234375 c 0
 301.0078125 59.044921875 291.280273438 58.42578125 281.716796875 60.4794921875 c 0
 270.94140625 62.7939453125 266.734375 67.017578125 266.358398438 78.0234375 c 0
 265.8828125 91.9697265625 265.7421875 106.025390625 266.908203125 119.91015625 c 0
 271.362304688 172.91015625 273.642578125 226.017578125 275.853515625 279.13671875 c 0
 275.943359375 281.28515625 276.20703125 283.435546875 276.161132812 285.579101562 c 0
 275.927734375 296.6796875 273.169921875 299.065429688 262.274414062 295.926757812 c 0
 245.735351562 291.163085938 229.038085938 287.267578125 212.192382812 283.73828125 c 0
 193.265625 279.7734375 174.478515625 275.208984375 155.29296875 272.532226562 c 0
 143.017578125 270.819335938 142.341796875 269.87109375 141.09375 257.353515625 c 0
 136.990234375 216.16796875 137.208984375 174.8046875 135.8125 133.501953125 c 0
 134.977539062 108.836914062 133.166015625 84.2021484375 131.744140625 59.5576171875 c 0
 131.112304688 48.603515625 125.182617188 41.06640625 115.0234375 38.158203125 c 0
 89.525390625 30.8583984375 64.06640625 31.244140625 39.1640625 41.15625 c 0
 29.876953125 44.8515625 25.4248046875 51.6943359375 23.9501953125 61.9443359375 c 0
EndSplineSet
Validated: 524321
EndChar

StartChar: i
Encoding: 105 105 56
AltUni2: 0000ef.ffffffff.0 0000ee.ffffffff.0 0000ed.ffffffff.0 0000ec.ffffffff.0
Width: 143
Flags: W
LayerCount: 2
Fore
SplineSet
29.533203125 43.8603515625 m 0
 27.1103515625 74.876953125 24.833984375 105.908203125 22.5185546875 136.936523438 c 0
 18.458984375 179.075195312 21.953125 221.473632812 17.7197265625 263.673828125 c 0
 15.58984375 284.900390625 17.9248046875 306.537109375 17.0498046875 327.938476562 c 0
 16.1962890625 348.78125 17.076171875 369.705078125 14.4169921875 390.478515625 c 0
 13.8056640625 395.2578125 13.3466796875 400.143554688 13.6259765625 404.934570312 c 0
 15.8115234375 442.51953125 11.57421875 480.014648438 12.0380859375 517.532226562 c 0
 12.6611328125 567.991210938 14.0458984375 618.55859375 23.9208984375 668.248046875 c 0
 27.0322265625 683.905273438 33.2470703125 699.102539062 39.38671875 713.954101562 c 0
 44.9189453125 727.333007812 58.1923828125 733.69140625 72.3310546875 731.419921875 c 0
 78.1494140625 730.483398438 84.13671875 729.454101562 89.5234375 727.208007812 c 0
 101.08203125 722.38671875 110.247070312 715.901367188 114.885742188 702.459960938 c 0
 123.826171875 676.55859375 126.870117188 650.137695312 126.392578125 623.158203125 c 0
 125.92578125 596.79296875 130.498046875 570.731445312 130.23046875 544.409179688 c 0
 130.05078125 526.747070312 131.274414062 509.127929688 130.2890625 491.41015625 c 0
 129.127929688 470.5390625 129.365234375 449.567382812 129.586914062 428.645507812 c 0
 129.915039062 397.541015625 129.587890625 366.48046875 126.657226562 335.487304688 c 0
 126.405273438 332.822265625 126.326171875 330.083007812 126.633789062 327.431640625 c 0
 130.065429688 297.979492188 127.094726562 268.438476562 125.5234375 239.176757812 c 0
 123.625976562 203.793945312 124.064453125 168.370117188 121.721679688 133.005859375 c 0
 119.986328125 106.817382812 119.291015625 80.5390625 117.442382812 54.328125 c 0
 116.494140625 40.8798828125 115.4375 27.53515625 111.057617188 14.6865234375 c 0
 107.536132812 4.3603515625 101.653320312 0.009765625 90.6904296875 -0 c 0
 63.650390625 -0.02734375 45.671875 14.916015625 31.744140625 36.21875 c 0
 30.3505859375 38.349609375 29.736328125 41.2529296875 29.533203125 43.8603515625 c 0
EndSplineSet
Validated: 524321
EndChar

StartChar: j
Encoding: 106 106 57
Width: 323
Flags: W
LayerCount: 2
Fore
SplineSet
113.950195312 117.477539062 m 0
 129.743164062 108.911132812 139.506835938 93.46875 155.23046875 80.7861328125 c 1
 158.087890625 100.51953125 155.353515625 117.598632812 155.536132812 134.612304688 c 0
 155.905273438 168.877929688 154.486328125 203.12109375 155.51171875 237.4453125 c 0
 156.469726562 269.5625 156.633789062 301.786132812 159.0390625 333.76953125 c 0
 161.7734375 370.1328125 161.025390625 406.658203125 165.96875 442.953125 c 0
 168.92578125 464.662109375 168.223632812 486.887695312 170.1640625 508.845703125 c 0
 172.479492188 535.075195312 175.421875 561.192382812 180.416015625 587.0546875 c 0
 183.561523438 603.34375 186.049804688 619.80859375 190.208984375 635.836914062 c 0
 193.4140625 648.182617188 198.41015625 660.115234375 203.254882812 671.96875 c 0
 208.551757812 684.927734375 220.393554688 687.521484375 232.526367188 688.024414062 c 0
 249.623046875 688.733398438 266.756835938 688.631835938 283.875 688.731445312 c 0
 296.04296875 688.802734375 302.24609375 683.956054688 306.0703125 671.970703125 c 0
 308.703125 663.717773438 310.739257812 655.317382812 310.13671875 646.629882812 c 0
 308.198242188 618.751953125 309.755859375 590.834960938 307.708984375 562.865234375 c 0
 305.08984375 527.099609375 305.26953125 490.946289062 302.112304688 455.309570312 c 0
 298.500976562 414.551757812 302.159179688 373.706054688 296.908203125 333.049804688 c 0
 294.2421875 312.405273438 296.11328125 291.200195312 295.373046875 270.26953125 c 0
 294.82421875 254.74609375 294.583984375 239.149414062 291.399414062 223.827148438 c 0
 290.962890625 221.729492188 290.319335938 219.508789062 290.59375 217.454101562 c 0
 293.970703125 192.162109375 288.927734375 167.252929688 286.22265625 142.399414062 c 0
 284.043945312 122.374023438 283.106445312 101.624023438 273.31640625 83.0498046875 c 0
 272.58203125 81.65625 271.752929688 79.90625 271.9765625 78.4794921875 c 0
 274.653320312 61.3828125 265.36328125 47.150390625 260.169921875 32.2177734375 c 0
 254.220703125 15.11328125 238.209960938 6.8857421875 222.26953125 2.9990234375 c 0
 200.771484375 -2.2421875 178.255859375 0.375 156.487304688 3.3798828125 c 0
 141.774414062 5.4091796875 129.822265625 15.4833984375 120.599609375 26.568359375 c 0
 90.4169921875 62.8515625 60.8642578125 99.6767578125 31.7978515625 136.862304688 c 0
 21.6318359375 149.870117188 11.998046875 163.791992188 12.0009765625 181.685546875 c 0
 12.0029296875 195.494140625 16.9736328125 199.479492188 30.892578125 198.485351562 c 0
 46.88671875 197.344726562 57.4501953125 187.50390625 66.7626953125 176.569335938 c 0
 82.0625 158.608398438 96.2265625 139.680664062 110.873046875 121.162109375 c 0
 111.872070312 119.899414062 112.643554688 118.186523438 113.950195312 117.477539062 c 0
EndSplineSet
Validated: 524321
EndChar

StartChar: k
Encoding: 107 107 58
Width: 337
Flags: W
LayerCount: 2
Fore
SplineSet
119.952148438 444.21484375 m 0
 120.0625 441.205078125 119.026367188 437.619140625 123.107421875 434.930664062 c 1
 128.778320312 437.427734375 130.5859375 443.063476562 132.686523438 448.37890625 c 0
 136.461914062 457.936523438 141.336914062 466.787109375 147.7578125 474.892578125 c 0
 152.747070312 481.190429688 157.3671875 487.833007812 158.85546875 496.119140625 c 0
 159.317382812 498.692382812 160.482421875 501.299804688 161.911132812 503.512695312 c 0
 184.295898438 538.131835938 206.34375 572.9609375 229.62890625 607.0078125 c 0
 241.251953125 624.002929688 255.077148438 638.483398438 270.072265625 652.2890625 c 0
 281.35546875 662.676757812 294.544921875 665.189453125 308.907226562 663.940429688 c 0
 320.440429688 662.938476562 325.13671875 657.692382812 324.854492188 645.981445312 c 0
 324.515625 631.928710938 322.33203125 617.840820312 316.747070312 605.068359375 c 0
 307.432617188 583.770507812 302.836914062 561.077148438 295.229492188 539.330078125 c 0
 281.583007812 500.321289062 266.614257812 461.879882812 247.490234375 425.065429688 c 0
 239.356445312 409.404296875 232.224609375 392.888671875 223.340820312 377.862304688 c 0
 209.5 354.453125 197.873046875 329.681640625 181.07421875 307.874023438 c 0
 167.686523438 290.497070312 157.681640625 270.697265625 148.115234375 250.868164062 c 0
 146.720703125 247.978515625 145.901367188 244.768554688 144.250976562 242.049804688 c 0
 137.036132812 230.166015625 134.104492188 217.375 134.947265625 203.525390625 c 0
 135.370117188 196.5625 135.66796875 189.5 134.984375 182.584960938 c 0
 133.5390625 167.963867188 141.053710938 158.974609375 153.1171875 153.305664062 c 0
 166.708007812 146.916992188 180.484375 140.73828125 194.641601562 135.78515625 c 0
 213.381835938 129.23046875 232.208007812 122.724609375 251.811523438 118.967773438 c 0
 255.91015625 118.182617188 261.354492188 117.877929688 260.516601562 111.866210938 c 0
 259.826171875 106.913085938 255.083007812 105.3046875 250.676757812 105.237304688 c 0
 245.890625 105.163085938 241.041992188 105.814453125 236.301757812 106.62890625 c 0
 210.295898438 111.096679688 185.2734375 119.5546875 159.671875 125.674804688 c 0
 138.334960938 130.775390625 137.168945312 129.1875 139.719726562 106.943359375 c 0
 142.899414062 79.232421875 145.15625 51.412109375 147.455078125 23.6083984375 c 0
 148.11328125 15.63671875 142.848632812 8.8994140625 133.68359375 5.869140625 c 0
 114.98046875 -0.31640625 95.9326171875 -2.2578125 76.6240234375 3.2119140625 c 0
 63.7919921875 6.8486328125 57.4365234375 16.5390625 54.3671875 28.4990234375 c 0
 52.1171875 37.271484375 53.0927734375 46.9716796875 51.279296875 55.388671875 c 0
 46.9501953125 75.484375 46.146484375 95.810546875 43.7490234375 115.998046875 c 0
 37.236328125 170.825195312 28.2216796875 225.299804688 28.126953125 280.911132812 c 0
 28.060546875 319.977539062 23.12890625 359.060546875 19.791015625 398.0859375 c 0
 17.869140625 420.551757812 18.2109375 443.095703125 15.56640625 465.573242188 c 0
 11.548828125 499.749023438 11.533203125 534.231445312 12.5849609375 568.596679688 c 0
 13.7177734375 605.623046875 15.9404296875 642.685546875 26.6748046875 678.470703125 c 0
 32.16015625 696.755859375 36.482421875 699.264648438 55.7255859375 699.662109375 c 0
 84.8427734375 700.264648438 88.5009765625 697.1171875 96.6728515625 668.235351562 c 0
 101.828125 650.014648438 103.998046875 631.350585938 106.072265625 612.713867188 c 0
 112.307617188 556.689453125 117.876953125 500.592773438 119.952148438 444.21484375 c 0
EndSplineSet
Validated: 524321
EndChar

StartChar: l
Encoding: 108 108 59
Width: 389
Flags: W
LayerCount: 2
Fore
SplineSet
362.998046875 126.250976562 m 1
 367.502929688 117.622070312 371.815429688 108.895507812 375.998046875 100.099609375 c 0
 376.595703125 93.6923828125 376.7578125 87.2138671875 376.790039062 80.7724609375 c 2
 376.790039062 77.4951171875 l 2
 375.193359375 76.7109375 373.436523438 76.125 371.489257812 75.7978515625 c 0
 367.985351562 75.208984375 367.756835938 71.52734375 369.501953125 69.29296875 c 1
 335.549804688 48.232421875 299.18359375 32.265625 261.557617188 18.80078125 c 0
 252.974609375 15.7294921875 244.32421875 12.94140625 236.071289062 8.88671875 c 0
 224.376953125 3.142578125 212.166015625 -0.2890625 198.704101562 1.728515625 c 0
 193.002929688 2.58203125 186.947265625 1.390625 181.084960938 0.796875 c 0
 168.142578125 -0.513671875 155.396484375 -0.6494140625 142.859375 3.8515625 c 0
 138.377929688 5.4599609375 133.40625 5.705078125 128.654296875 6.5546875 c 0
 118.60546875 8.3525390625 108.512695312 9.9248046875 98.5146484375 11.9677734375 c 0
 62.87109375 19.25390625 44.2236328125 42.1572265625 38.9404296875 77.2314453125 c 0
 35.41796875 100.615234375 33.05859375 124.064453125 31.7978515625 147.725585938 c 0
 30.2880859375 176.025390625 26.650390625 204.20703125 24.2177734375 232.462890625 c 0
 22.3759765625 253.85546875 20.6591796875 275.270507812 19.482421875 296.70703125 c 0
 18.3935546875 316.532226562 19.8984375 336.502929688 15.974609375 356.172851562 c 0
 15.556640625 358.265625 15.2998046875 360.498046875 15.544921875 362.59765625 c 0
 18.6865234375 389.41796875 14.5927734375 415.993164062 13.40234375 442.693359375 c 0
 12.017578125 473.73046875 11.20703125 504.961914062 13.154296875 535.920898438 c 0
 14.4560546875 556.638671875 13.384765625 577.9296875 20.1142578125 598.213867188 c 0
 21.4326171875 602.190429688 21.794921875 606.767578125 21.4365234375 610.969726562 c 0
 19.791015625 630.251953125 27.5361328125 647.840820312 30.9501953125 666.196289062 c 0
 33.2490234375 678.55078125 42.8359375 685.85546875 52.7275390625 690.517578125 c 0
 65.1552734375 696.375 92.375 681.0390625 95.4375 666.690429688 c 0
 99.0126953125 649.92578125 105.5859375 633.90625 106.5390625 616.40234375 c 0
 107.083984375 606.39453125 111.932617188 596.696289062 113.358398438 586.649414062 c 0
 119.000976562 546.899414062 129.57421875 508.09375 134.439453125 468.087890625 c 0
 136.740234375 449.165039062 139.203125 429.907226562 142.637695312 410.950195312 c 0
 145.866210938 393.135742188 149.756835938 375.0859375 149.823242188 357.127929688 c 0
 149.95703125 320.63671875 156.98046875 284.876953125 160.432617188 248.836914062 c 0
 164.82421875 203.008789062 166.03125 156.744140625 174.508789062 111.26171875 c 0
 178.42578125 90.2451171875 180.348632812 88.2529296875 200.526367188 95.6357421875 c 0
 210.666992188 99.3466796875 220.796875 102.739257812 231.64453125 103.666992188 c 0
 234.829101562 103.939453125 238.336914062 104.288085938 241.032226562 105.79296875 c 0
 258.295898438 115.435546875 277.94140625 116.709960938 296.423828125 122.0234375 c 0
 304.877929688 124.453125 312.879882812 127.91015625 320.352539062 132.33203125 c 1
 335.206054688 132.899414062 349.387695312 130.97265625 362.998046875 126.250976562 c 1
EndSplineSet
Validated: 524321
EndChar

StartChar: m
Encoding: 109 109 60
Width: 498
Flags: W
LayerCount: 2
Fore
SplineSet
480.892578125 412.2578125 m 0
 484.026367188 381.298828125 486.715820312 350.13671875 484.880859375 318.919921875 c 0
 483.28125 291.6796875 482.325195312 264.434570312 479.78125 237.198242188 c 0
 476.786132812 205.166992188 474.59765625 172.987304688 472.493164062 140.844726562 c 0
 470.317382812 107.584960938 465.131835938 74.736328125 459.655273438 41.919921875 c 0
 459.223632812 39.328125 458.25390625 36.67578125 456.922851562 34.4111328125 c 0
 449.411132812 21.62109375 412.795898438 13.9775390625 400.6953125 22.5029296875 c 0
 395.772460938 25.9716796875 394.784179688 31.0908203125 394.172851562 36.5810546875 c 0
 390.421875 70.2958984375 391.109375 104.14453125 390.69140625 137.978515625 c 0
 390.313476562 168.544921875 388.619140625 199.092773438 388.16015625 229.657226562 c 0
 387.716796875 259.217773438 386.51171875 288.900390625 388.5546875 318.327148438 c 0
 390.895507812 352.03515625 389.849609375 386.166992188 395.580078125 419.366210938 c 0
 399.251953125 440.640625 393.848632812 461.984375 398.754882812 483.374023438 c 1
 389.134765625 466.823242188 379.952148438 449.99609375 369.786132812 433.787109375 c 0
 355.553710938 411.09375 345.4609375 385.948242188 327.997070312 365.124023438 c 0
 321.008789062 356.790039062 312.258789062 350.592773438 304.857421875 342.8359375 c 0
 302.502929688 340.368164062 298.219726562 339.02734375 294.639648438 338.572265625 c 0
 283.993164062 337.215820312 273.258789062 335.861328125 262.5546875 335.819335938 c 0
 251.530273438 335.775390625 242.754882812 340.71484375 233.931640625 348.188476562 c 0
 201.740234375 375.458984375 186.205078125 413.766601562 165.018554688 448.330078125 c 0
 148.484375 475.3046875 132.366210938 502.533203125 116.01953125 529.623046875 c 0
 114.658203125 531.877929688 113.185546875 534.232421875 109.501953125 534.045898438 c 0
 105.608398438 530.09765625 107.498046875 525.1015625 108.4140625 520.76953125 c 0
 117.291015625 478.77734375 125.793945312 436.763671875 136.9453125 395.208984375 c 0
 147.884765625 354.44140625 160.767578125 314.24609375 171.021484375 273.248046875 c 0
 185.25 216.364257812 197.3203125 159.127929688 206.499023438 101.293945312 c 0
 209.51953125 82.271484375 213.736328125 63.302734375 213.934570312 43.8310546875 c 0
 214.034179688 33.9560546875 212.342773438 24.7685546875 208.232421875 15.7333984375 c 0
 202.139648438 2.3447265625 188.638671875 -3.6376953125 175.3359375 2.2822265625 c 0
 168.393554688 5.3720703125 162.383789062 9.748046875 158.797851562 16.9599609375 c 0
 151.41015625 31.8203125 142.625976562 46.021484375 135.46484375 60.9404296875 c 1
 138.002929688 61.8037109375 139.8671875 65.3701171875 137.547851562 68.1259765625 c 0
 135.272460938 70.8310546875 133.086914062 73.603515625 130.95703125 76.4189453125 c 0
 128.190429688 87.7138671875 123.861328125 98.291015625 118.0390625 108.025390625 c 0
 111.504882812 130.584960938 104.934570312 153.133789062 98.4443359375 175.705078125 c 0
 85.52734375 220.624023438 71.26171875 265.1328125 58.849609375 310.220703125 c 0
 48.8671875 346.4765625 38.0224609375 382.509765625 29.9033203125 419.229492188 c 0
 25.1552734375 440.697265625 23.55859375 462.90625 18.1533203125 484.173828125 c 0
 11.95703125 508.552734375 12.6796875 533.09765625 12.021484375 557.71875 c 0
 11.56640625 574.7265625 18.056640625 590.314453125 22.5576171875 606.158203125 c 0
 26.3359375 619.456054688 39.017578125 624.461914062 51.0908203125 627.333007812 c 0
 77.09375 633.516601562 102.861328125 635.328125 128.208984375 622.518554688 c 0
 142.674804688 615.208984375 154.39453125 605.190429688 162.913085938 592.233398438 c 0
 180.005859375 566.232421875 194.2109375 538.576171875 208.3671875 510.782226562 c 0
 228.8984375 470.467773438 243.251953125 427.634765625 262.7265625 386.982421875 c 0
 267.048828125 377.958984375 269.30859375 365.63671875 281.857421875 365.684570312 c 0
 291.994140625 365.723632812 295.688476562 376.663085938 300.634765625 383.799804688 c 0
 330.344726562 426.66796875 355.521484375 472.353515625 380.412109375 518.045898438 c 0
 397.169921875 548.810546875 421.447265625 545.309570312 443.333007812 538.318359375 c 0
 447.681640625 536.928710938 450.3359375 533.799804688 452.768554688 530.040039062 c 0
 460.135742188 518.647460938 464.146484375 506.196289062 468.129882812 493.208984375 c 0
 476.267578125 466.671875 478.1484375 439.37109375 480.892578125 412.2578125 c 0
EndSplineSet
Validated: 524321
EndChar

StartChar: n
Encoding: 110 110 61
AltUni2: 0000f1.ffffffff.0
Width: 460
Flags: W
LayerCount: 2
Fore
SplineSet
323.341796875 156.372070312 m 0
 330.55859375 141.536132812 336.953125 126.317382812 347.555664062 112.428710938 c 1
 347.84375 114.478515625 348.381835938 116.52734375 348.381835938 118.577148438 c 0
 348.388671875 165.913085938 350.983398438 213.216796875 356.119140625 260.16015625 c 0
 360.092773438 296.463867188 362.305664062 332.928710938 366.986328125 369.169921875 c 0
 370.490234375 396.3046875 371.815429688 423.713867188 374.6171875 450.950195312 c 0
 378.349609375 487.244140625 381.403320312 523.6015625 386.62109375 559.750976562 c 0
 390.756835938 588.399414062 393.209960938 617.28515625 396.98828125 645.989257812 c 0
 400.704101562 674.215820312 405.029296875 702.36328125 409.337890625 730.506835938 c 0
 410.909179688 740.765625 412.561523438 741.564453125 423.649414062 739.712890625 c 0
 438.546875 737.225585938 442.682617188 733.076171875 445.765625 718.404296875 c 0
 449.713867188 699.604492188 446.845703125 680.760742188 445.100585938 662.186523438 c 0
 440.678710938 615.162109375 440.155273438 567.890625 435.673828125 520.928710938 c 0
 429.958984375 461.038085938 427.533203125 400.907226562 421.12109375 341.0625 c 0
 417.693359375 309.067382812 418.245117188 276.655273438 415.173828125 244.60546875 c 0
 410.005859375 190.666992188 408.870117188 136.34765625 400.176757812 82.7509765625 c 0
 398.978515625 75.36328125 397.08203125 67.99609375 394.624023438 60.9267578125 c 0
 390.254882812 48.3603515625 383.37890625 44.201171875 370 45.1982421875 c 0
 357.686523438 46.1162109375 348.19921875 50.6279296875 340.345703125 61.470703125 c 0
 323.04296875 85.3642578125 304.831054688 108.704101562 285.548828125 131.026367188 c 0
 266.459960938 153.125 252.990234375 179.02734375 235.01171875 201.728515625 c 0
 215.643554688 226.18359375 197.563476562 251.556640625 183.466796875 279.260742188 c 0
 175.70703125 294.51171875 166.944335938 308.7421875 156.733398438 322.268554688 c 0
 154.0859375 325.774414062 152.120117188 329.499023438 151.810546875 333.974609375 c 0
 151.170898438 343.194335938 146.319335938 350.01953125 139.024414062 356.140625 c 1
 134.9765625 353.577148438 136.435546875 349.515625 136.611328125 346.266601562 c 0
 137.337890625 332.860351562 138.083007812 319.439453125 139.447265625 306.087890625 c 0
 141.4140625 286.853515625 141.322265625 267.580078125 141.87109375 248.297851562 c 0
 142.358398438 231.159179688 144.345703125 214.004882812 146.690429688 196.998046875 c 0
 148.389648438 184.659179688 148.278320312 172.341796875 148.711914062 159.999023438 c 0
 149.595703125 134.814453125 150.498046875 109.630859375 151.435546875 84.447265625 c 0
 152.16015625 65.037109375 150.408203125 45.7587890625 148.03125 26.5517578125 c 0
 146.890625 17.3310546875 143.799804688 8.5673828125 135.46875 3.134765625 c 0
 132.893554688 1.455078125 129.53125 0.62890625 126.41796875 0.1904296875 c 0
 111.713867188 -1.88671875 81.4677734375 13.375 74.3203125 26.564453125 c 0
 63.5048828125 46.5263671875 57.0771484375 68.193359375 53.9287109375 90.3818359375 c 0
 49.10546875 124.393554688 43.4111328125 158.271484375 40.96484375 192.682617188 c 0
 38.1171875 232.705078125 31.140625 272.436523438 28.34375 312.4609375 c 0
 25.95703125 346.61328125 23.5498046875 380.860351562 20.708984375 414.912109375 c 0
 18.4814453125 441.598632812 17.5166015625 468.471679688 14.38671875 495.139648438 c 0
 11.3916015625 520.649414062 10.9140625 546.322265625 14.703125 571.887695312 c 0
 16.5234375 584.169921875 23.927734375 593 34.9990234375 593.450195312 c 0
 72.228515625 594.963867188 107.951171875 589.189453125 139.618164062 567.93359375 c 0
 153.73828125 558.455078125 164.02734375 545.55078125 170.8984375 529.794921875 c 0
 178.590820312 512.153320312 186.056640625 494.296875 194.090820312 476.971679688 c 0
 200.4609375 463.237304688 205.459960938 449.670898438 209.25390625 435.244140625 c 0
 210.5859375 430.177734375 213.461914062 425.2265625 216.661132812 420.999023438 c 0
 223.319335938 412.204101562 220.64453125 400.987304688 224.524414062 392.166992188 c 0
 228.5234375 383.080078125 236.55078125 375.858398438 236.354492188 364.6953125 c 0
 236.30078125 361.627929688 236.900390625 357.561523438 238.852539062 355.6015625 c 0
 254.0390625 340.353515625 256.822265625 319.206054688 264.733398438 300.709960938 c 0
 285.14453125 252.982421875 300.534179688 203.21875 323.341796875 156.372070312 c 0
EndSplineSet
Validated: 524321
EndChar

StartChar: o
Encoding: 111 111 62
AltUni2: 0000f8.ffffffff.0 0000f6.ffffffff.0 0000f5.ffffffff.0 0000f4.ffffffff.0 0000f3.ffffffff.0 0000f2.ffffffff.0
Width: 315
Flags: W
LayerCount: 2
Fore
SplineSet
201.229492188 3.609375 m 0
 189.4453125 2.787109375 177.541015625 3.4033203125 166.165039062 -0.0009765625 c 1
 141.712890625 5.4365234375 116.83984375 8.591796875 94.4482421875 19.353515625 c 0
 80.2470703125 26.1787109375 70.759765625 39.5712890625 62.7724609375 52.98046875 c 0
 45.6640625 81.703125 32.5185546875 112.325195312 25.0390625 144.931640625 c 0
 16.0263671875 184.219726562 8.75390625 224.28515625 13.4921875 264.47265625 c 0
 16.7353515625 291.990234375 18.8310546875 319.741210938 24.1025390625 347.166015625 c 0
 30.5205078125 380.559570312 39.6787109375 413.163085938 53.6279296875 443.708984375 c 0
 64.3994140625 467.297851562 75.1201171875 491.477539062 91.923828125 512.255859375 c 0
 100.005859375 522.250976562 107.651367188 532.533203125 116.869140625 541.524414062 c 0
 128.517578125 552.88671875 146.078125 555.171875 160.071289062 547.78125 c 0
 166.374023438 544.453125 165.03125 539.412109375 165.05859375 533.97265625 c 0
 165.092773438 527.182617188 157.524414062 520.231445312 163.303710938 514.307617188 c 0
 167.645507812 509.857421875 175.490234375 511.006835938 181.73046875 509.481445312 c 0
 205.44921875 503.686523438 222.686523438 488.521484375 236.864257812 469.752929688 c 0
 267.587890625 429.076171875 284.994140625 382.811523438 293.84765625 332.83984375 c 0
 299.66796875 299.98828125 302.393554688 266.93359375 302.720703125 233.694335938 c 0
 303.240234375 180.96484375 294.99609375 129.548828125 271.68359375 81.96875 c 0
 258.244140625 54.541015625 239.642578125 30.0009765625 215.541015625 10.3076171875 c 0
 211.243164062 6.796875 206.83984375 4 201.229492188 3.609375 c 0
151.345703125 485.422851562 m 0
 136.120117188 415.358398438 129.087890625 344.431640625 127.745117188 272.768554688 c 0
 127.745117188 259.354492188 125.321289062 245.373046875 128.295898438 232.654296875 c 0
 133.163085938 211.845703125 129.846679688 190.928710938 132.5234375 170.162109375 c 0
 134.088867188 158.015625 136.431640625 145.866210938 136.819335938 133.44921875 c 0
 137.477539062 112.350585938 144.403320312 92.3779296875 150.475585938 72.3935546875 c 0
 154.413085938 59.431640625 158.096679688 58.36328125 168.685546875 65.82421875 c 0
 174.354492188 69.8193359375 179.815429688 74.09375 184.768554688 79.162109375 c 0
 205.40625 100.270507812 219.365234375 125.345703125 229.436523438 152.752929688 c 0
 246.247070312 198.504882812 257.802734375 245.485351562 253.879882812 294.534179688 c 0
 250.618164062 335.322265625 241.739257812 375.313476562 226.965820312 413.623046875 c 0
 219.24609375 433.641601562 212.119140625 453.965820312 201.288085938 472.733398438 c 0
 194.071289062 485.240234375 183.330078125 492.408203125 170.142578125 496.571289062 c 0
 157.03515625 500.708984375 154.291015625 498.970703125 151.345703125 485.422851562 c 0
EndSplineSet
Validated: 524321
EndChar

StartChar: p
Encoding: 112 112 63
Width: 335
Flags: W
LayerCount: 2
Fore
SplineSet
317.500976562 679.857421875 m 0
 321.124023438 668.005859375 323.4609375 655.83203125 321.669921875 645.251953125 c 0
 319.939453125 607.717773438 309.2578125 574.71875 293.533203125 543.11328125 c 0
 272.48046875 500.796875 252.239257812 458.051757812 230.108398438 416.30859375 c 0
 218.317382812 394.067382812 204.84375 372.65625 192.67578125 350.543945312 c 0
 183.354492188 333.606445312 173.326171875 317.055664062 163.419921875 300.447265625 c 0
 158.385742188 292.006835938 158.807617188 282.7109375 159.516601562 273.733398438 c 0
 162.477539062 236.275390625 163.814453125 198.713867188 167.830078125 161.30859375 c 0
 169.942382812 141.635742188 169.153320312 121.575195312 170.2421875 101.80078125 c 0
 171.543945312 78.16796875 173.196289062 54.578125 171.857421875 30.9765625 c 0
 169.849609375 -4.427734375 167.15625 -1.4365234375 134.861328125 1.861328125 c 0
 130.139648438 2.34375 125.569335938 3.6806640625 120.653320312 3.87890625 c 0
 108.234375 4.376953125 95.455078125 5.3017578125 93.8671875 22.1083984375 c 1
 77.9287109375 39.751953125 82.087890625 62.5751953125 78.0439453125 83.2958984375 c 0
 72.177734375 113.354492188 66.197265625 143.494140625 63.9033203125 173.984375 c 0
 61.48046875 206.1875 54.8818359375 237.720703125 50.873046875 269.646484375 c 0
 48.41796875 289.206054688 47.0654296875 309.1953125 41.505859375 328.375976562 c 0
 40.615234375 331.448242188 40.08203125 334.716796875 39.99609375 337.911132812 c 0
 39.5234375 355.130859375 37.7880859375 372.142578125 33.22265625 388.829101562 c 0
 29.375 402.895507812 28.6875 417.313476562 28.080078125 431.853515625 c 0
 27.482421875 446.1484375 21.03125 459.591796875 20.0751953125 474.006835938 c 0
 19.828125 477.7265625 17.9423828125 481.391601562 17.9931640625 485.065429688 c 0
 18.5400390625 524.182617188 10.30078125 562.826171875 12.623046875 602.17578125 c 0
 13.4931640625 616.907226562 10.6201171875 632.32421875 12.8974609375 647.020507812 c 0
 16.8076171875 672.262695312 15.4921875 698.524414062 27.5556640625 722.358398438 c 0
 36.8583984375 740.743164062 48.2294921875 746.420898438 68.1376953125 740.546875 c 0
 78.0546875 737.620117188 87.7158203125 733.452148438 95.0732421875 726.436523438 c 0
 101.856445312 719.969726562 107.483398438 720.037109375 115.096679688 723.985351562 c 0
 139.276367188 736.522460938 165.353515625 742.642578125 192.22265625 746.012695312 c 0
 210.118164062 748.2578125 227.766601562 747.583984375 244.7109375 741.227539062 c 0
 254.31640625 737.623046875 264.653320312 737.680664062 274.159179688 733.206054688 c 0
 297.388671875 722.270507812 310.306640625 703.405273438 317.500976562 679.857421875 c 0
152.46875 393.044921875 m 0
 153.140625 382.80859375 153.806640625 372.774414062 157.6171875 361.965820312 c 1
 162.309570312 364.749023438 163.189453125 368.595703125 164.844726562 371.838867188 c 0
 181.680664062 404.795898438 198.581054688 437.72265625 215.176757812 470.799804688 c 0
 231.7890625 503.909179688 247.314453125 537.529296875 258.521484375 572.9140625 c 0
 270.079101562 609.400390625 274.05859375 646.396484375 263.005859375 683.810546875 c 0
 254.974609375 710.998046875 232.647460938 724.908203125 204.93359375 719.87890625 c 0
 175.740234375 714.58203125 147.860351562 704.90234375 120.765625 692.965820312 c 0
 111.302734375 688.797851562 109.66015625 685.37109375 112.145507812 675.227539062 c 0
 113.9296875 667.944335938 116.404296875 660.873046875 117.609375 653.392578125 c 0
 123.026367188 619.793945312 128.911132812 586.26953125 134.309570312 552.66796875 c 0
 138.895507812 524.12109375 143.952148438 495.646484375 146.029296875 466.728515625 c 0
 147.794921875 442.139648438 150.857421875 417.640625 152.46875 393.044921875 c 0
EndSplineSet
Validated: 524321
EndChar

